<?xml version="1.0" standalone="no"?>
<!DOCTYPE svg PUBLIC "-//W3C//DTD SVG 20010904//EN"
 "http://www.w3.org/TR/2001/REC-SVG-20010904/DTD/svg10.dtd">
<svg version="1.0" xmlns="http://www.w3.org/2000/svg"
 width="400.000000pt" height="600.000000pt" viewBox="0 0 400.000000 600.000000"
 preserveAspectRatio="xMidYMid meet">
<g transform="translate(0.000000,600.000000) scale(0.100000,-0.100000)"
fill="#FF69B4" stroke="none">
<path d="M1779 5866 c-3 -3 -38 -7 -77 -8 -40 -2 -72 -5 -72 -8 0 -3 -30 -6
-68 -8 -37 -2 -94 -8 -127 -14 -33 -6 -67 -12 -75 -13 -35 -5 -104 -23 -240
-61 -52 -15 -100 -27 -107 -27 -7 0 -10 -4 -7 -9 3 -4 -4 -8 -15 -8 -11 0 -23
-4 -26 -10 -3 -5 -13 -10 -21 -10 -36 0 -210 -89 -275 -141 -21 -15 -43 -30
-49 -31 -7 -2 -27 -16 -44 -31 -168 -153 -246 -265 -284 -405 -23 -84 -27
-297 -8 -363 18 -60 15 -67 -45 -101 -21 -12 -36 -25 -34 -29 3 -4 -2 -9 -10
-13 -16 -6 -21 -61 -6 -70 4 -3 12 -25 16 -48 4 -24 9 -48 10 -55 4 -15 -15
-22 -83 -29 -32 -3 -66 -8 -77 -9 -11 -2 -28 -4 -37 -4 -10 -1 -18 -8 -18 -17
0 -14 10 -15 73 -9 39 3 96 13 125 21 53 15 53 15 47 47 -4 18 -13 50 -21 72
-25 72 -20 90 35 123 55 34 245 112 336 137 519 145 781 182 1325 184 450 2
665 -17 1058 -95 312 -61 656 -178 730 -246 28 -27 28 -46 -2 -136 l-23 -71
31 -10 c32 -11 127 -25 229 -35 47 -5 57 -3 57 9 0 8 -8 16 -17 16 -10 1 -27
3 -38 4 -11 2 -49 6 -85 10 -100 10 -135 19 -133 36 1 8 9 40 18 73 20 71 10
103 -42 143 -29 22 -33 31 -28 52 23 87 28 291 9 361 -20 76 -44 139 -69 180
-12 19 -22 37 -22 40 1 3 -4 14 -11 25 -6 11 -12 16 -12 11 0 -5 -13 9 -29 30
-46 63 -195 193 -213 186 -5 -1 -8 3 -8 8 0 6 -7 10 -15 10 -8 0 -15 4 -15 8
0 5 -37 28 -82 52 -46 24 -84 47 -86 52 -2 4 -11 8 -21 8 -9 0 -21 4 -26 8 -6
5 -28 16 -50 24 -22 9 -65 27 -96 42 -31 14 -70 28 -88 31 -17 3 -48 11 -69
19 -20 7 -62 19 -92 26 -30 7 -75 18 -100 26 -25 7 -100 18 -168 24 -67 6
-132 13 -145 16 -35 8 -481 17 -488 10z m371 -73 c30 -49 59 -135 78 -233 11
-61 14 -432 4 -550 -7 -72 -8 -75 -32 -73 -69 4 -523 2 -572 -3 l-58 -6 -1 33
c0 19 -2 43 -4 54 -23 131 -32 530 -14 600 6 22 14 58 18 80 8 46 38 112 55
122 17 11 153 20 333 21 l163 2 30 -47z m259 21 c96 -16 127 -38 181 -130 26
-44 28 -55 20 -84 -10 -36 -6 -55 5 -21 9 30 28 26 23 -4 -3 -15 -1 -22 5 -18
6 4 8 -2 5 -15 -4 -12 -2 -22 2 -22 13 0 31 -65 24 -85 -5 -12 -4 -16 4 -11 8
4 10 -4 8 -28 -1 -19 1 -33 6 -30 4 3 8 -10 8 -30 0 -19 3 -42 7 -52 5 -12 3
-15 -6 -9 -10 6 -11 3 -4 -11 14 -27 15 -189 3 -254 -6 -30 -11 -65 -11 -77 1
-13 -4 -23 -10 -23 -5 0 -7 -5 -3 -12 4 -6 3 -8 -3 -5 -22 14 -104 25 -228 31
-27 1 -52 4 -55 5 -3 2 -34 4 -69 6 -37 1 -66 7 -71 14 -4 7 -6 31 -4 54 2 23
4 82 4 132 1 68 5 94 17 108 15 16 15 17 1 12 -14 -6 -16 8 -16 117 -1 68 -5
144 -10 171 -5 27 -6 50 -1 53 14 8 10 34 -5 34 -12 0 -31 63 -29 97 0 7 -4
10 -10 6 -6 -4 -8 0 -4 10 3 9 3 17 -1 19 -10 4 -52 64 -52 73 0 9 167 -4 269
-21z m-818 -21 c-11 -15 -26 -50 -32 -78 -6 -27 -17 -63 -23 -80 -6 -16 -11
-33 -11 -37 0 -3 -3 -10 -7 -14 -5 -4 -8 -12 -8 -18 0 -6 5 -4 11 4 8 11 9 8
4 -15 -12 -50 -13 -89 -3 -107 5 -10 5 -18 0 -18 -12 0 -10 -134 2 -142 8 -5
7 -14 -2 -29 -8 -11 -9 -18 -4 -15 17 10 27 -55 11 -65 -10 -7 -11 -11 -2 -16
11 -8 37 -222 28 -231 -3 -3 -5 1 -5 9 0 10 -3 10 -8 3 -8 -14 -134 -30 -204
-26 -27 1 -48 -2 -48 -6 0 -4 -12 -9 -27 -10 -110 -10 -105 -10 -100 9 3 11 1
17 -3 14 -5 -3 -8 8 -8 24 1 19 5 28 12 25 6 -3 3 1 -7 9 -15 13 -17 29 -13
130 2 63 10 132 17 152 11 30 11 39 2 42 -7 3 -13 11 -13 19 0 9 3 13 8 11 4
-3 8 15 9 40 1 25 7 49 14 53 6 4 8 13 5 19 -4 6 -4 11 1 11 4 0 9 14 9 31 1
17 7 35 15 40 8 5 10 9 6 9 -5 0 2 18 14 40 12 21 26 37 30 34 5 -3 6 2 3 11
-4 9 -3 15 2 13 5 -2 10 1 11 6 1 5 5 12 10 15 5 3 19 23 32 44 12 20 26 35
30 33 4 -3 8 5 8 17 3 44 -102 -94 -151 -198 -56 -119 -70 -196 -70 -395 -1
-102 1 -207 4 -235 l5 -50 -40 -3 c-22 -2 -53 -4 -70 -5 -16 -1 -33 -5 -36
-10 -3 -4 -24 -9 -46 -11 -23 -3 -50 -9 -61 -15 -11 -6 -22 -8 -25 -5 -2 3
-21 -1 -40 -10 -40 -16 -35 -22 -52 64 -11 51 -5 288 9 374 22 134 100 285
204 394 51 53 93 70 297 122 77 19 316 59 323 54 2 -1 -5 -15 -17 -31z m1092
-34 c88 -23 181 -50 206 -62 25 -11 54 -22 64 -24 60 -11 223 -97 361 -189
201 -134 335 -327 354 -510 9 -79 -3 -268 -18 -309 -10 -27 -11 -27 -36 -10
-14 9 -28 14 -31 11 -3 -3 -12 2 -20 12 -8 9 -12 12 -8 5 4 -8 -3 -8 -22 2
-15 8 -34 15 -42 15 -11 0 -11 3 0 17 13 15 12 15 -8 5 -33 -18 -34 -16 -28
36 3 26 6 106 6 179 0 107 -5 151 -26 238 -33 140 -119 315 -142 291 -4 -5 -2
-11 5 -13 18 -7 44 -61 36 -75 -5 -7 -3 -8 6 -3 10 6 12 4 7 -9 -4 -9 -3 -15
1 -12 12 7 44 -63 36 -76 -5 -7 -2 -8 6 -3 10 6 12 3 8 -13 -4 -12 -3 -20 1
-17 12 7 32 -97 26 -135 -4 -27 -3 -30 4 -15 8 16 10 11 11 -25 2 -102 2 -219
0 -278 -2 -60 -3 -64 -23 -58 -12 3 -28 6 -35 6 -7 0 -11 3 -9 8 3 4 -7 8 -21
8 -15 1 -45 7 -67 14 -22 6 -53 14 -70 17 -16 3 -39 12 -50 21 -15 11 -16 13
-3 9 12 -4 15 -2 11 8 -3 8 -10 12 -15 9 -7 -5 -8 5 -4 27 3 19 6 63 6 97 -1
50 2 62 12 56 10 -6 10 -5 1 7 -13 16 -16 112 -2 104 5 -4 6 1 3 9 -3 9 -10
14 -14 11 -5 -3 -6 4 -3 15 3 11 9 17 14 14 5 -3 6 2 3 10 -3 9 -11 13 -17 9
-6 -3 -7 -1 -3 5 4 6 2 20 -3 30 -7 13 -6 23 2 32 9 10 9 11 0 6 -7 -4 -12 1
-13 11 -2 53 -6 71 -12 66 -5 -2 -8 4 -8 14 0 26 -26 96 -49 134 -11 17 -17
39 -13 47 3 10 1 13 -6 8 -6 -3 -13 3 -17 15 -8 25 -73 99 -87 99 -5 0 6 -18
25 -40 87 -102 150 -272 168 -453 11 -113 6 -353 -7 -367 -3 -3 -11 2 -17 10
-7 8 -25 16 -42 17 -58 3 -110 14 -119 23 -13 13 -29 13 -21 0 4 -7 -3 -7 -20
0 -36 14 -71 20 -144 27 l-63 6 6 94 c10 141 8 341 -4 398 -6 28 -13 63 -16
80 -12 60 -68 201 -98 245 -17 25 -44 57 -60 73 -17 15 -27 27 -22 27 5 0 81
-18 169 -41z m-1688 -89 c-10 -11 -26 -22 -36 -25 -11 -4 -17 -10 -14 -15 3
-4 -2 -13 -10 -20 -8 -6 -26 -32 -40 -57 -15 -25 -32 -42 -39 -40 -8 3 -12 -3
-11 -16 2 -25 -15 -58 -26 -51 -4 2 -11 -1 -15 -7 -4 -8 -3 -9 5 -5 14 9 6
-28 -17 -84 -8 -19 -16 -55 -18 -79 -2 -24 -11 -52 -20 -62 -13 -15 -14 -22
-5 -33 7 -8 10 -20 6 -26 -11 -18 -3 -269 9 -289 4 -5 2 -12 -4 -16 -5 -3 -10
-14 -9 -23 0 -14 2 -14 8 2 5 12 10 15 14 9 8 -13 -12 -31 -39 -36 -10 -2 -32
-9 -47 -16 -16 -6 -33 -9 -38 -5 -5 3 -9 0 -9 -7 0 -6 -8 -9 -20 -6 -11 3 -18
1 -14 -4 3 -5 -1 -9 -10 -9 -8 0 -21 -3 -30 -6 -10 -4 -16 -1 -16 10 0 10 -5
13 -17 9 -13 -5 -15 -2 -10 17 3 13 2 30 -2 39 -5 9 -11 46 -14 84 -4 54 -2
67 10 67 8 0 11 5 8 10 -4 6 -10 8 -15 5 -5 -3 -7 14 -4 37 3 24 4 55 4 70 0
38 30 169 38 164 4 -2 8 8 9 24 1 15 12 44 23 64 12 20 19 36 15 36 -4 0 -2 7
5 15 7 8 17 12 23 8 6 -3 7 -1 3 5 -4 6 0 25 9 42 8 16 12 30 7 30 -5 0 -29
-39 -54 -87 -83 -161 -111 -326 -89 -523 7 -58 15 -114 17 -126 3 -13 0 -21
-8 -21 -22 -1 -43 -8 -49 -16 -3 -5 -12 -9 -20 -11 -8 -1 -23 -7 -34 -13 -17
-9 -20 -8 -22 10 -1 12 -8 85 -16 162 -13 137 -10 201 17 330 3 17 -3 6 -14
-23 -10 -30 -21 -82 -24 -117 -2 -36 -8 -70 -12 -76 -4 -7 -3 -9 3 -6 7 4 13
-27 17 -86 3 -50 9 -117 12 -149 6 -50 4 -57 -14 -67 -12 -6 -23 -8 -25 -4
-14 24 -29 138 -29 231 -1 221 60 354 241 527 106 101 210 167 381 241 89 39
99 41 75 14z m156 -407 c-8 -15 -10 -15 -11 -2 0 17 10 32 18 25 2 -3 -1 -13
-7 -23z"/>
<path d="M1629 5545 c0 -5 -2 -20 -3 -32 -2 -13 1 -23 5 -23 11 0 17 37 8 51
-5 8 -9 10 -10 4z"/>
<path d="M1660 5520 c0 -6 7 -10 15 -10 8 0 15 2 15 4 0 2 -7 6 -15 10 -8 3
-15 1 -15 -4z"/>
<path d="M1823 5513 c1 -13 8 -23 15 -23 12 0 11 -5 -2 -25 -13 -20 -13 -23
-2 -19 8 3 19 19 25 35 7 20 7 28 0 23 -6 -3 -17 2 -24 12 -13 18 -14 18 -12
-3z"/>
<path d="M1980 5519 c0 -5 5 -7 10 -4 6 3 10 8 10 11 0 2 -4 4 -10 4 -5 0 -10
-5 -10 -11z"/>
<path d="M1704 5505 c-10 -8 -14 -14 -9 -15 15 0 40 18 34 24 -3 3 -14 -1 -25
-9z"/>
<path d="M1763 5505 c0 -8 4 -15 8 -15 5 0 6 -8 3 -17 -5 -14 -4 -15 4 -4 10
14 5 51 -7 51 -4 0 -8 -7 -8 -15z"/>
<path d="M1896 5501 c-3 -5 1 -11 9 -15 9 -3 15 0 15 9 0 16 -16 20 -24 6z"/>
<path d="M1936 5497 c3 -10 9 -15 12 -12 3 3 0 11 -7 18 -10 9 -11 8 -5 -6z"/>
<path d="M1588 5493 c7 -3 16 -2 19 1 4 3 -2 6 -13 5 -11 0 -14 -3 -6 -6z"/>
<path d="M1970 5490 c0 -5 4 -10 9 -10 6 0 13 5 16 10 3 6 -1 10 -9 10 -9 0
-16 -4 -16 -10z"/>
<path d="M2090 5461 c-7 -13 -7 -22 0 -26 5 -3 10 1 10 9 0 9 6 16 14 16 8 0
18 5 21 10 3 6 -3 10 -14 10 -11 0 -25 -9 -31 -19z"/>
<path d="M2150 5463 c-13 -15 -12 -16 4 -10 10 4 20 7 22 7 2 0 4 5 4 10 0 15
-13 12 -30 -7z"/>
<path d="M1568 5453 c6 -2 18 -2 25 0 6 3 1 5 -13 5 -14 0 -19 -2 -12 -5z"/>
<path d="M1865 5450 c-3 -6 1 -7 9 -4 18 7 21 14 7 14 -6 0 -13 -4 -16 -10z"/>
<path d="M1923 5453 c9 -2 25 -2 35 0 9 3 1 5 -18 5 -19 0 -27 -2 -17 -5z"/>
<path d="M1984 5441 c3 -5 15 -7 26 -4 28 7 25 13 -6 13 -14 0 -23 -4 -20 -9z"/>
<path d="M2050 5441 c0 -5 5 -13 10 -16 6 -3 10 -2 10 4 0 5 -4 13 -10 16 -5
3 -10 2 -10 -4z"/>
<path d="M1803 5430 c2 -8 16 -16 33 -17 25 -1 26 0 4 4 -14 3 -29 10 -33 17
-6 7 -7 6 -4 -4z"/>
<path d="M1650 5230 l-25 -8 27 -1 c15 -1 30 4 33 9 7 11 0 11 -35 0z"/>
<path d="M1590 5213 c0 -10 4 -14 8 -8 4 6 11 13 16 18 5 4 2 7 -7 7 -10 0
-17 -8 -17 -17z"/>
<path d="M1698 5173 c7 -3 16 -2 19 1 4 3 -2 6 -13 5 -11 0 -14 -3 -6 -6z"/>
<path d="M2166 5165 c-9 -26 -7 -32 5 -12 6 10 9 21 6 23 -2 3 -7 -2 -11 -11z"/>
<path d="M1598 5163 c7 -3 16 -2 19 1 4 3 -2 6 -13 5 -11 0 -14 -3 -6 -6z"/>
<path d="M1645 5161 c-17 -7 -15 -9 12 -13 26 -4 30 -2 22 9 -7 7 -12 13 -13
12 0 0 -10 -4 -21 -8z"/>
<path d="M1765 5160 c-8 -13 -1 -24 14 -19 6 3 7 10 2 18 -6 10 -10 10 -16 1z"/>
<path d="M1860 5160 c0 -5 11 -10 25 -10 14 0 25 -4 25 -10 0 -14 27 -13 36 2
5 7 2 9 -9 5 -8 -3 -21 1 -27 9 -14 16 -50 19 -50 4z"/>
<path d="M1825 5140 c6 -10 -13 -15 -47 -12 -10 1 -18 -5 -18 -13 0 -12 5 -12
39 0 27 9 42 10 49 3 8 -8 9 -5 5 11 -3 11 -12 21 -20 21 -8 0 -11 -4 -8 -10z"/>
<path d="M1660 5128 c0 -9 5 -20 10 -23 13 -8 13 5 0 25 -8 13 -10 13 -10 -2z"/>
<path d="M1700 5130 c0 -5 5 -10 10 -10 6 0 10 5 10 10 0 6 -4 10 -10 10 -5 0
-10 -4 -10 -10z"/>
<path d="M1960 5125 c-11 -13 -10 -14 4 -9 9 3 16 10 16 15 0 13 -6 11 -20 -6z"/>
<path d="M2000 5122 c0 -5 7 -9 15 -9 8 0 12 4 9 9 -3 4 -9 8 -15 8 -5 0 -9
-4 -9 -8z"/>
<path d="M2150 5120 c0 -5 5 -10 10 -10 6 0 10 5 10 10 0 6 -4 10 -10 10 -5 0
-10 -4 -10 -10z"/>
<path d="M1735 5110 c-3 -5 -1 -10 4 -10 6 0 11 5 11 10 0 6 -2 10 -4 10 -3 0
-8 -4 -11 -10z"/>
<path d="M2410 5759 c0 -5 5 -7 10 -4 6 3 10 8 10 11 0 2 -4 4 -10 4 -5 0 -10
-5 -10 -11z"/>
<path d="M2308 5595 c-2 -19 0 -35 4 -35 4 0 8 9 8 20 0 11 4 20 10 20 5 0 7
7 4 15 -10 26 -22 17 -26 -20z"/>
<path d="M2365 5590 c-3 -5 -2 -10 4 -10 5 0 13 5 16 10 3 6 2 10 -4 10 -5 0
-13 -4 -16 -10z"/>
<path d="M2532 5580 c0 -14 2 -19 5 -12 2 6 2 18 0 25 -3 6 -5 1 -5 -13z"/>
<path d="M2440 5570 c0 -5 5 -10 11 -10 5 0 7 5 4 10 -3 6 -8 10 -11 10 -2 0
-4 -4 -4 -10z"/>
<path d="M2470 5541 c0 -6 11 -23 25 -38 l26 -28 -22 38 c-21 37 -29 45 -29
28z"/>
<path d="M2538 5533 c6 -2 18 -2 25 0 6 3 1 5 -13 5 -14 0 -19 -2 -12 -5z"/>
<path d="M2383 5523 c9 -2 23 -2 30 0 6 3 -1 5 -18 5 -16 0 -22 -2 -12 -5z"/>
<path d="M2436 5511 c-17 -6 -17 -8 -4 -14 10 -3 19 0 22 9 3 8 4 14 3 13 -1
0 -11 -4 -21 -8z"/>
<path d="M2516 5513 c7 -4 14 -17 17 -28 5 -16 5 -15 4 4 -1 14 -9 26 -17 28
-10 3 -11 2 -4 -4z"/>
<path d="M2564 5512 c5 -8 66 -4 66 4 0 2 -16 4 -36 4 -19 0 -33 -4 -30 -8z"/>
<path d="M2646 5497 c3 -10 9 -15 12 -12 3 3 0 11 -7 18 -10 9 -11 8 -5 -6z"/>
<path d="M2390 5470 c-9 -6 -10 -10 -3 -10 6 0 15 5 18 10 8 12 4 12 -15 0z"/>
<path d="M2570 5450 c0 -5 7 -7 15 -4 8 4 15 8 15 10 0 2 -7 4 -15 4 -8 0 -15
-4 -15 -10z"/>
<path d="M2611 5354 c0 -11 3 -14 6 -6 3 7 2 16 -1 19 -3 4 -6 -2 -5 -13z"/>
<path d="M1224 5670 c0 -13 4 -16 10 -10 7 7 7 13 0 20 -6 6 -10 3 -10 -10z"/>
<path d="M1466 5674 c-4 -10 -1 -14 6 -12 15 5 23 28 10 28 -5 0 -13 -7 -16
-16z"/>
<path d="M1316 5660 c-18 -18 -18 -19 3 -13 12 3 21 12 21 19 0 17 -1 17 -24
-6z"/>
<path d="M1370 5620 c-9 -6 -10 -10 -3 -10 6 0 15 5 18 10 8 12 4 12 -15 0z"/>
<path d="M1450 5580 c0 -5 5 -10 11 -10 5 0 7 5 4 10 -3 6 -8 10 -11 10 -2 0
-4 -4 -4 -10z"/>
<path d="M1130 5464 c0 -8 5 -12 10 -9 6 4 8 11 5 16 -9 14 -15 11 -15 -7z"/>
<path d="M992 5428 c5 -15 28 -18 29 -3 0 6 -7 12 -17 13 -10 3 -15 -1 -12
-10z"/>
<path d="M1080 5432 c0 -6 -7 -17 -15 -26 -9 -9 -11 -17 -5 -21 10 -6 35 44
25 53 -3 3 -5 0 -5 -6z"/>
<path d="M893 5423 c-15 -5 -18 -43 -3 -43 5 0 7 6 4 14 -3 9 2 16 13 18 10 2
14 6 8 9 -5 4 -16 4 -22 2z"/>
<path d="M936 5398 c-7 -21 -3 -48 6 -48 4 0 8 14 8 30 0 31 -8 40 -14 18z"/>
<path d="M1265 5360 c-4 -6 3 -10 14 -10 25 0 27 6 6 13 -8 4 -17 2 -20 -3z"/>
<path d="M890 5350 c0 -5 5 -10 11 -10 5 0 7 5 4 10 -3 6 -8 10 -11 10 -2 0
-4 -4 -4 -10z"/>
<path d="M1225 5340 c3 -5 8 -10 11 -10 2 0 4 5 4 10 0 6 -5 10 -11 10 -5 0
-7 -4 -4 -10z"/>
<path d="M830 5321 c0 -7 -5 -9 -12 -5 -7 5 -8 3 -3 -5 5 -9 10 -10 18 -2 6 6
8 14 4 18 -4 3 -7 1 -7 -6z"/>
<path d="M1365 5280 c-3 -6 1 -7 9 -4 18 7 21 14 7 14 -6 0 -13 -4 -16 -10z"/>
<path d="M996 5221 c-4 -5 -2 -12 3 -15 5 -4 12 -2 15 3 4 5 2 12 -3 15 -5 4
-12 2 -15 -3z"/>
<path d="M806 5211 c-18 -7 -18 -8 -2 -14 19 -8 36 -1 36 14 0 10 -7 11 -34 0z"/>
<path d="M1521 5204 c0 -11 3 -14 6 -6 3 7 2 16 -1 19 -3 4 -6 -2 -5 -13z"/>
<path d="M1007 5179 c-21 -24 -18 -33 7 -23 9 3 16 15 16 25 0 24 -2 24 -23
-2z"/>
<path d="M795 5140 c-3 -5 -1 -10 4 -10 6 0 11 5 11 10 0 6 -2 10 -4 10 -3 0
-8 -4 -11 -10z"/>
<path d="M1075 5140 c-3 -5 -1 -10 4 -10 6 0 11 5 11 10 0 6 -2 10 -4 10 -3 0
-8 -4 -11 -10z"/>
<path d="M831 5104 c0 -11 3 -14 6 -6 3 7 2 16 -1 19 -3 4 -6 -2 -5 -13z"/>
<path d="M1043 5113 c-23 -9 -14 -20 12 -15 14 2 22 8 19 13 -6 10 -12 10 -31
2z"/>
<path d="M850 5070 c8 -5 20 -10 25 -10 6 0 3 5 -5 10 -8 5 -19 10 -25 10 -5
0 -3 -5 5 -10z"/>
<path d="M935 5059 c4 -5 -5 -9 -19 -9 -18 0 -24 -4 -20 -14 5 -12 12 -11 40
6 19 11 34 21 34 22 0 1 -9 2 -20 3 -11 1 -18 -2 -15 -8z"/>
<path d="M1000 5058 c0 -4 4 -8 9 -8 6 0 12 4 15 8 3 5 -1 9 -9 9 -8 0 -15 -4
-15 -9z"/>
<path d="M1151 5034 c0 -11 3 -14 6 -6 3 7 2 16 -1 19 -3 4 -6 -2 -5 -13z"/>
<path d="M947 4989 c7 -7 15 -10 18 -7 3 3 -2 9 -12 12 -14 6 -15 5 -6 -5z"/>
<path d="M2711 5534 c0 -11 3 -14 6 -6 3 7 2 16 -1 19 -3 4 -6 -2 -5 -13z"/>
<path d="M3177 5431 c3 -12 11 -17 19 -14 18 7 18 10 -5 22 -16 9 -18 8 -14
-8z"/>
<path d="M2755 5390 c3 -5 8 -10 11 -10 2 0 4 5 4 10 0 6 -5 10 -11 10 -5 0
-7 -4 -4 -10z"/>
<path d="M2943 5393 c-15 -5 -17 -23 -4 -23 5 0 11 7 15 15 3 8 4 15 3 14 -1
0 -8 -3 -14 -6z"/>
<path d="M3000 5361 c0 -6 4 -11 9 -11 5 0 12 -10 14 -22 4 -22 4 -22 6 -2 0
12 -6 27 -14 34 -10 9 -15 9 -15 1z"/>
<path d="M2817 5352 c-3 -4 -3 -19 0 -35 6 -31 24 -34 77 -12 33 14 38 14 52
0 20 -19 30 -20 14 0 -6 8 -9 24 -5 37 5 20 4 21 -7 7 -7 -9 -28 -20 -46 -23
-17 -4 -32 -12 -32 -17 0 -5 -9 -9 -20 -9 -18 0 -26 20 -21 53 1 9 -6 9 -12
-1z"/>
<path d="M2766 5341 c-4 -7 -5 -15 -2 -18 9 -9 19 4 14 18 -4 11 -6 11 -12 0z"/>
<path d="M3047 5318 c-4 -12 -4 -24 -2 -27 3 -2 5 1 5 8 0 7 4 10 8 7 4 -2 8
4 8 15 0 26 -12 24 -19 -3z"/>
<path d="M3186 5277 c3 -10 9 -15 12 -12 3 3 0 11 -7 18 -10 9 -11 8 -5 -6z"/>
<path d="M2802 5169 c-8 -12 -9 -18 -4 -15 6 3 12 -1 16 -9 3 -8 10 -15 16
-15 7 0 5 7 -4 15 -8 9 -13 22 -10 30 9 22 1 18 -14 -6z"/>
<path d="M3495 5180 c-3 -5 -1 -10 4 -10 6 0 11 5 11 10 0 6 -2 10 -4 10 -3 0
-8 -4 -11 -10z"/>
<path d="M2750 5114 c0 -23 1 -24 16 -10 8 9 12 20 9 26 -12 19 -25 10 -25
-16z"/>
<path d="M3530 5131 c0 -6 4 -13 10 -16 6 -3 7 1 4 9 -7 18 -14 21 -14 7z"/>
<path d="M3608 5095 c14 -97 0 -338 -23 -397 -4 -10 -3 -18 3 -18 5 0 13 17
17 38 4 20 10 48 13 62 11 49 6 314 -6 340 -10 21 -11 18 -4 -25z"/>
<path d="M3510 5096 c0 -2 7 -9 15 -16 9 -7 15 -8 15 -2 0 5 -7 12 -15 16 -8
3 -15 4 -15 2z"/>
<path d="M2803 5083 c19 -3 27 -10 27 -25 0 -26 9 -19 15 11 3 19 0 21 -33 20
-30 -2 -32 -3 -9 -6z"/>
<path d="M3510 5049 c-24 -7 -24 -7 -2 -8 18 -1 22 -6 18 -26 -3 -17 0 -25 10
-25 8 0 14 -4 14 -10 0 -5 10 -9 23 -9 16 1 18 2 5 6 -10 2 -18 11 -18 19 0 8
-4 14 -9 14 -5 0 -11 10 -13 23 -2 19 -7 22 -28 16z"/>
<path d="M2955 5040 c-3 -5 -1 -10 4 -10 6 0 11 5 11 10 0 6 -2 10 -4 10 -3 0
-8 -4 -11 -10z"/>
<path d="M2894 5028 c-5 -8 -2 -9 9 -5 10 3 17 2 17 -3 0 -6 5 -10 11 -10 8 0
8 5 -1 15 -15 18 -26 19 -36 3z"/>
<path d="M3036 5025 c4 -8 8 -15 10 -15 2 0 4 7 4 15 0 8 -4 15 -10 15 -5 0
-7 -7 -4 -15z"/>
<path d="M3096 5031 c-3 -5 1 -11 9 -14 9 -4 12 -1 8 9 -6 16 -10 17 -17 5z"/>
<path d="M3060 5019 c0 -5 5 -7 10 -4 6 3 10 8 10 11 0 2 -4 4 -10 4 -5 0 -10
-5 -10 -11z"/>
<path d="M3570 5010 c0 -5 5 -10 10 -10 6 0 10 5 10 10 0 6 -4 10 -10 10 -5 0
-10 -4 -10 -10z"/>
<path d="M3530 4948 c0 -6 11 -21 25 -34 14 -13 25 -19 25 -14 0 5 -11 20 -25
34 -14 14 -25 20 -25 14z"/>
<path d="M3585 4940 c-3 -5 -1 -10 4 -10 6 0 11 5 11 10 0 6 -2 10 -4 10 -3 0
-8 -4 -11 -10z"/>
<path d="M805 5550 c-3 -5 -1 -10 4 -10 6 0 11 5 11 10 0 6 -2 10 -4 10 -3 0
-8 -4 -11 -10z"/>
<path d="M745 5239 c-4 -6 -5 -12 -2 -15 2 -3 7 2 10 11 7 17 1 20 -8 4z"/>
<path d="M602 5170 c0 -14 2 -19 5 -12 2 6 2 18 0 25 -3 6 -5 1 -5 -13z"/>
<path d="M3041 4764 c0 -11 3 -14 6 -6 3 7 2 16 -1 19 -3 4 -6 -2 -5 -13z"/>
<path d="M3171 4734 c0 -11 3 -14 6 -6 3 7 2 16 -1 19 -3 4 -6 -2 -5 -13z"/>
<path d="M778 4733 c7 -3 16 -2 19 1 4 3 -2 6 -13 5 -11 0 -14 -3 -6 -6z"/>
<path d="M3195 4710 c-3 -5 1 -10 10 -10 9 0 13 5 10 10 -3 6 -8 10 -10 10 -2
0 -7 -4 -10 -10z"/>
<path d="M3286 4681 c-4 -7 -5 -15 -2 -18 9 -9 19 4 14 18 -4 11 -6 11 -12 0z"/>
<path d="M578 4643 c7 -3 16 -2 19 1 4 3 -2 6 -13 5 -11 0 -14 -3 -6 -6z"/>
<path d="M390 4620 c0 -5 4 -10 9 -10 6 0 13 5 16 10 3 6 -1 10 -9 10 -9 0
-16 -4 -16 -10z"/>
<path d="M3571 4614 c0 -11 3 -14 6 -6 3 7 2 16 -1 19 -3 4 -6 -2 -5 -13z"/>
<path d="M3663 4565 c0 -8 4 -12 9 -9 5 3 6 10 3 15 -9 13 -12 11 -12 -6z"/>
<path d="M331 4534 c0 -11 3 -14 6 -6 3 7 2 16 -1 19 -3 4 -6 -2 -5 -13z"/>
<path d="M3681 4494 c0 -11 3 -14 6 -6 3 7 2 16 -1 19 -3 4 -6 -2 -5 -13z"/>
<path d="M3535 4479 c-4 -6 -5 -12 -2 -15 2 -3 7 2 10 11 7 17 1 20 -8 4z"/>
<path d="M250 4473 c0 -4 5 -15 10 -23 8 -13 10 -13 10 2 0 9 -4 20 -10 23 -5
3 -10 3 -10 -2z"/>
<path d="M3581 4444 c0 -11 3 -14 6 -6 3 7 2 16 -1 19 -3 4 -6 -2 -5 -13z"/>
<path d="M420 4429 c0 -5 5 -7 10 -4 6 3 10 8 10 11 0 2 -4 4 -10 4 -5 0 -10
-5 -10 -11z"/>
<path d="M3520 4433 c0 -14 31 -46 37 -39 3 3 -4 15 -16 27 -12 13 -21 18 -21
12z"/>
<path d="M2440 4416 c0 -9 40 -13 46 -5 3 5 -6 9 -20 9 -14 0 -26 -2 -26 -4z"/>
<path d="M420 4394 c0 -8 5 -12 10 -9 6 3 10 10 10 16 0 5 -4 9 -10 9 -5 0
-10 -7 -10 -16z"/>
<path d="M3475 4391 c-6 -11 9 -23 19 -14 9 9 7 23 -3 23 -6 0 -12 -4 -16 -9z"/>
<path d="M1658 4373 c7 -3 16 -2 19 1 4 3 -2 6 -13 5 -11 0 -14 -3 -6 -6z"/>
<path d="M261 4359 c-1 -9 6 -38 14 -65 9 -27 29 -109 45 -183 17 -76 37 -142
47 -153 14 -16 27 -18 78 -14 33 3 73 5 88 5 25 1 27 3 13 16 -8 8 -23 15 -33
14 -16 0 -16 -1 2 -10 16 -7 13 -8 -15 -7 -19 1 -45 -2 -57 -6 -26 -8 -63 0
-63 15 0 5 6 9 14 9 8 0 18 4 21 10 7 11 -23 2 -42 -13 -9 -6 -13 -5 -13 4 1
14 79 79 96 79 5 1 27 9 49 20 l40 19 13 -37 c7 -20 15 -63 17 -94 l5 -58 -58
-17 c-85 -26 -361 -23 -454 4 -53 16 -68 17 -68 7 0 -16 26 -31 66 -39 84 -16
259 -35 273 -29 9 3 36 8 61 10 54 5 138 23 163 36 9 5 16 5 15 1 -3 -13 22
-95 43 -141 11 -24 18 -49 16 -55 -3 -7 1 -27 9 -44 l13 -33 -60 -46 c-32 -26
-59 -53 -59 -60 0 -19 46 -47 61 -38 8 4 9 3 5 -4 -5 -9 8 -12 46 -12 30 0 59
-5 66 -12 9 -9 12 -8 12 4 0 20 -46 37 -122 45 -32 3 -58 9 -58 12 0 3 19 18
43 33 86 56 91 62 76 89 -7 13 -12 27 -12 30 1 4 -13 60 -32 125 -36 124 -40
144 -27 144 4 0 17 -42 30 -92 25 -98 67 -205 56 -140 -5 27 -3 32 15 34 12 0
26 1 31 2 6 1 10 -2 10 -7 0 -4 6 -21 15 -37 8 -16 14 -33 13 -37 -1 -4 4 -19
11 -33 8 -13 14 -38 13 -54 -1 -22 2 -26 8 -16 8 13 10 12 10 -2 0 -10 -1 -19
-1 -20 -1 -2 8 -23 20 -46 12 -24 20 -46 17 -49 -2 -3 6 -25 19 -51 13 -25 20
-52 17 -60 -4 -11 -1 -13 8 -7 10 6 12 4 7 -8 -3 -10 -2 -17 3 -17 5 0 7 -7 4
-15 -4 -8 -2 -15 3 -15 6 0 16 -19 23 -42 8 -24 16 -47 19 -53 3 -5 6 -12 6
-15 1 -11 28 -77 46 -111 10 -20 19 -41 19 -46 0 -6 14 -41 32 -79 17 -38 31
-72 30 -77 -1 -4 7 -23 17 -43 11 -20 17 -43 14 -52 -4 -10 -2 -13 5 -8 11 6
17 -5 13 -26 0 -5 4 -8 10 -8 5 0 8 -4 4 -9 -3 -5 -1 -12 5 -16 5 -3 23 -35
39 -70 17 -36 33 -65 35 -65 6 0 -52 139 -64 155 -8 11 -106 250 -165 405 -20
52 -46 114 -56 137 -10 23 -19 47 -19 52 0 6 -16 50 -35 98 -83 207 -138 360
-133 374 4 13 15 -11 97 -231 27 -74 55 -148 62 -165 7 -16 13 -34 15 -40 2
-10 81 -213 114 -295 10 -25 32 -81 49 -125 35 -89 44 -108 108 -245 25 -52
49 -106 54 -119 5 -13 12 -22 14 -19 5 5 -14 53 -61 155 -13 28 -24 54 -24 56
0 2 -14 35 -32 73 -17 38 -33 72 -34 77 -1 4 -3 9 -4 12 -1 3 -3 8 -4 13 -1 4
-10 22 -19 39 -10 18 -17 35 -17 38 0 8 -4 23 -15 50 -41 107 -55 145 -55 154
0 6 -4 11 -9 11 -4 0 -14 21 -21 48 -8 26 -20 63 -29 82 -8 19 -15 37 -16 40
-1 5 -42 115 -76 204 -22 56 -16 73 12 36 11 -14 29 -35 39 -46 11 -12 20 -27
20 -33 0 -6 4 -11 8 -11 5 0 24 -21 42 -46 18 -25 45 -59 59 -74 14 -15 54
-58 88 -96 34 -38 88 -96 121 -129 40 -41 71 -86 96 -140 67 -140 93 -192 109
-215 8 -12 13 -28 11 -35 -3 -7 -9 -52 -14 -101 -11 -108 -20 -154 -30 -154
-4 0 -19 -11 -34 -25 -42 -39 -67 -50 -78 -34 -5 9 -6 4 -2 -14 4 -17 2 -27
-5 -27 -6 0 -11 5 -11 10 0 6 -9 1 -20 -10 -19 -19 -33 -24 -53 -21 -5 1 -6
-3 -2 -9 11 -18 -14 -11 -25 8 -11 16 -11 16 -6 -1 4 -13 -2 -21 -22 -29 -181
-74 -290 -165 -262 -218 6 -11 8 -20 5 -20 -4 0 0 -6 7 -13 7 -8 23 -28 36
-45 13 -16 35 -33 48 -36 14 -4 22 -11 19 -16 -5 -8 49 -20 108 -24 14 0 23
-4 20 -8 -2 -5 1 -8 7 -8 6 0 9 -4 5 -9 -3 -5 2 -11 11 -13 11 -2 17 -15 18
-45 1 -25 10 -51 21 -63 10 -12 20 -31 22 -43 2 -11 7 -24 11 -27 4 -3 8 -36
9 -75 2 -38 3 -79 3 -90 1 -11 -11 -43 -25 -71 -23 -46 -26 -84 -5 -84 5 0 11
-18 15 -41 7 -43 52 -99 80 -99 10 0 15 -10 16 -27 2 -68 6 -84 28 -107 13
-14 27 -23 32 -21 4 3 11 0 14 -5 5 -7 57 -11 148 -10 78 1 337 1 575 1 393
-1 436 1 463 16 16 10 29 23 29 29 0 6 7 25 15 40 8 16 15 37 15 47 0 9 5 17
11 17 5 0 8 4 4 9 -3 5 3 12 13 15 10 4 25 17 32 31 7 13 16 22 20 20 16 -10
9 103 -11 162 -16 48 -19 74 -13 101 9 44 10 52 15 116 2 28 0 51 -6 53 -6 2
-11 -5 -12 -14 -6 -148 -82 -244 -143 -183 -44 44 -17 68 58 53 46 -9 47 -9
47 16 0 14 -6 33 -14 41 -12 12 -13 12 -8 -5 4 -11 2 -27 -3 -35 -11 -16 -12
-11 -11 35 l0 30 -10 -34 c-15 -49 -22 -31 -8 20 12 46 17 68 18 83 1 4 8 5
17 2 10 -4 13 -2 8 6 -5 8 -2 9 9 5 10 -3 17 -2 17 3 0 14 28 12 32 -2 3 -8
15 -2 32 17 25 27 27 35 22 78 -3 26 -11 54 -19 62 -14 14 -100 34 -129 29
-13 -2 -14 3 -7 30 5 17 11 46 14 63 2 18 9 41 14 51 6 11 13 34 16 52 3 18
11 42 17 54 7 11 13 28 14 36 7 43 16 76 25 84 5 6 9 22 9 36 0 14 4 30 9 36
5 5 19 43 31 84 13 41 30 91 38 110 9 19 16 42 17 50 1 8 2 22 3 32 1 11 10
15 27 14 13 -2 22 1 19 5 -3 5 0 9 5 9 6 0 11 -4 11 -10 0 -5 11 -10 24 -10
13 0 26 -4 28 -9 6 -18 111 -81 135 -81 13 0 22 -4 19 -8 -7 -12 85 2 112 17
15 8 21 18 18 28 -3 8 -6 17 -6 19 0 3 -5 2 -12 -2 -8 -5 -9 -2 -5 10 4 9 3
14 -2 11 -5 -3 -12 -1 -16 5 -3 5 5 14 18 19 25 10 40 41 28 58 -3 6 -31 16
-61 23 -30 7 -80 29 -110 49 -73 50 -118 71 -136 64 -21 -8 -17 15 5 27 11 5
31 10 45 10 25 0 98 -37 104 -52 4 -9 66 -38 92 -44 46 -9 139 -19 163 -16 50
6 28 22 -31 22 -78 0 -142 21 -232 75 -101 61 -149 61 -176 -3 -8 -19 -17 -33
-20 -30 -7 8 7 58 16 58 5 0 18 30 31 68 23 72 36 95 49 87 5 -3 11 -1 14 4 7
11 49 1 92 -22 25 -14 26 -16 9 -18 -11 -1 -23 -1 -27 0 -11 1 -26 -63 -16
-67 4 -2 8 -9 8 -16 0 -7 11 -19 24 -26 30 -16 74 -1 94 31 11 18 11 24 -4 40
-22 24 -14 24 31 -1 50 -28 145 -29 145 -2 0 4 -27 8 -59 9 -44 1 -69 8 -100
27 -22 14 -44 26 -49 26 -4 0 -27 9 -50 20 -23 11 -53 21 -67 22 -21 2 -25 6
-21 28 7 36 85 261 95 274 5 6 11 28 14 49 3 20 9 43 14 50 5 6 18 43 28 80
18 71 35 88 65 69 26 -16 54 28 46 72 -10 50 -7 86 12 114 12 19 18 22 20 11
4 -21 68 -56 117 -63 22 -4 74 -9 115 -11 41 -3 86 -8 98 -11 13 -2 21 -1 19
3 -3 5 13 9 36 9 35 1 87 6 187 19 31 4 76 17 107 31 17 8 36 14 42 14 6 0 11
7 11 16 0 11 -5 14 -17 9 -10 -3 -65 -18 -123 -33 -93 -23 -125 -26 -275 -26
-138 -1 -182 3 -232 18 -35 10 -63 22 -63 25 0 12 42 176 46 180 2 2 14 0 27
-6 66 -30 99 -43 113 -43 9 0 12 -5 8 -12 -4 -7 -4 -10 0 -6 4 3 15 0 24 -8
10 -7 26 -21 37 -30 11 -8 14 -13 7 -9 -7 4 -19 1 -27 -5 -14 -12 -138 -22
-131 -11 2 3 -14 7 -35 7 -21 1 -37 -1 -34 -6 10 -17 185 -35 185 -19 0 4 7 5
17 2 12 -5 14 -3 8 7 -5 8 -4 11 2 7 13 -8 37 19 29 32 -3 5 -2 11 4 13 14 5
115 336 105 346 -2 2 -9 -16 -15 -39 -16 -59 -79 -258 -90 -286 -10 -23 -30
-32 -30 -13 0 31 -313 146 -525 194 -227 51 -407 78 -675 101 -111 10 -617 7
-785 -4 -245 -17 -555 -62 -584 -85 -12 -9 -13 -8 -6 3 6 11 4 13 -11 7 -10
-4 -71 -21 -133 -38 -215 -56 -389 -125 -445 -177 l-29 -26 6 40 c5 27 3 35
-3 25 -8 -12 -10 -10 -9 10 1 35 -78 322 -80 289z m1630 -59 c24 0 69 1 99 3
30 2 67 0 83 -4 18 -5 27 -4 27 4 0 7 4 6 10 -3 6 -10 10 -11 10 -2 0 6 7 12
16 12 10 0 14 -6 10 -17 -10 -35 -27 -219 -24 -258 3 -35 8 -42 48 -65 38 -21
58 -25 125 -25 82 0 145 17 145 40 0 14 25 27 34 18 11 -12 6 -33 -9 -33 -7 0
-18 -8 -23 -17 -6 -9 -18 -18 -28 -19 -11 -2 -41 -9 -69 -15 -49 -11 -113 -2
-179 26 -14 6 -17 5 -11 -4 12 -21 93 -52 138 -54 27 -1 58 7 85 21 55 29 51
6 -4 -25 -49 -28 -112 -30 -162 -4 -43 22 -79 58 -84 85 -5 31 -38 29 -49 -3
-16 -47 -104 -101 -163 -101 -67 0 -176 59 -176 96 0 19 -24 34 -40 24 -7 -4
-15 -19 -17 -31 -2 -13 -11 -31 -20 -41 -24 -27 -96 -58 -134 -58 -48 1 -113
32 -140 69 -12 17 -29 31 -36 31 -7 0 -13 9 -13 20 0 11 7 20 15 20 8 0 15 -6
15 -14 0 -17 20 -25 85 -36 97 -16 228 23 250 73 12 27 -30 244 -51 267 -12
12 -14 12 -14 -2 0 -9 -8 -19 -17 -21 -11 -3 -7 -5 10 -6 22 -1 27 -6 27 -25
0 -14 4 -36 9 -50 6 -13 12 -43 15 -65 2 -22 7 -44 10 -49 11 -18 -42 -79 -76
-87 -18 -4 -40 -9 -48 -11 -42 -11 -102 -15 -118 -8 -9 4 -26 8 -37 8 -12 1
-19 7 -17 16 2 8 0 12 -4 8 -4 -4 -15 2 -25 14 -12 13 -19 16 -19 8 0 -13 -14
-5 -16 8 0 4 -7 21 -14 37 -7 17 -12 38 -12 48 0 10 -4 15 -10 11 -7 -5 -9 -1
-5 9 3 9 2 19 -4 22 -5 4 -6 11 -3 17 5 7 2 8 -6 3 -10 -6 -12 -1 -8 19 4 18
1 26 -8 26 -37 0 3 52 42 54 16 1 35 5 42 9 6 5 12 4 12 -2 0 -6 11 -6 32 0
43 12 57 11 38 -2 -12 -9 -11 -9 5 -3 11 4 30 8 43 8 12 1 22 3 22 6 0 3 19 6
43 6 93 2 260 14 265 19 3 3 13 3 22 0 9 -3 37 -5 61 -5z m439 -14 c0 -6 9
-17 20 -24 25 -15 27 -4 3 14 -16 12 -10 13 42 9 83 -6 100 -11 98 -24 -2 -6
2 -11 7 -11 6 0 10 5 10 10 0 6 7 10 15 10 8 0 15 -8 15 -17 0 -33 -74 -233
-85 -230 -7 1 -23 -11 -37 -28 -24 -28 -30 -29 -106 -30 -48 -1 -79 2 -75 8 3
5 -3 6 -16 2 -13 -4 -21 -2 -21 5 0 6 -6 10 -12 7 -7 -2 -21 0 -31 5 -15 8
-16 12 -6 24 10 12 9 13 -6 8 -17 -7 -18 -2 -12 56 4 35 11 66 16 69 4 3 7 35
6 71 -2 36 -1 59 2 53 6 -16 63 -17 63 -2 0 6 -8 8 -19 4 -11 -3 -22 -2 -25 3
-3 5 18 10 46 11 29 1 53 3 55 5 9 9 53 2 53 -8z m323 -29 c15 3 34 0 42 -7 8
-7 15 -8 15 -3 0 6 21 5 53 -4 28 -7 66 -14 84 -15 18 -1 30 -5 27 -9 -3 -5 1
-7 8 -4 7 2 28 1 46 -3 l33 -7 -27 -50 c-15 -28 -40 -75 -56 -105 -16 -30 -33
-59 -38 -65 -4 -5 -8 -22 -7 -37 2 -23 10 -31 51 -48 68 -28 126 -25 126 6 0
8 7 14 15 14 22 0 18 -15 -12 -49 -33 -35 -77 -54 -107 -45 -30 9 -83 62 -90
90 l-6 24 -37 -20 c-21 -11 -51 -22 -68 -24 -86 -13 -105 -14 -100 -5 4 5 -2
9 -12 9 -10 0 -36 10 -58 21 l-40 21 20 -22 c57 -65 169 -73 247 -19 37 27 42
24 56 -26 19 -70 16 -94 -9 -88 -28 8 -31 19 -20 76 8 46 8 47 -10 32 -9 -9
-16 -22 -13 -29 6 -17 -75 -168 -87 -161 -5 4 -6 0 -4 -7 5 -12 -150 -254
-268 -419 -26 -37 -47 -72 -47 -78 0 -9 -14 -11 -47 -7 -27 4 -138 9 -249 12
l-200 7 -28 141 c-16 77 -30 155 -33 171 -2 17 -6 36 -8 43 -10 28 -45 288
-43 314 2 21 5 24 15 16 15 -12 17 -22 3 -13 -5 3 -10 4 -10 0 0 -3 21 -15 47
-26 54 -23 140 -27 174 -8 13 7 28 13 32 14 4 0 12 7 17 15 5 8 10 11 10 6 0
-6 7 -1 16 10 15 18 15 18 9 -10 -5 -22 -1 -33 15 -48 12 -11 19 -27 16 -35
-3 -8 -11 -78 -16 -156 -6 -78 -13 -153 -15 -167 -6 -29 -11 -76 -19 -185 -5
-64 -4 -74 5 -50 6 17 10 39 10 50 -3 44 22 214 30 210 4 -3 3 9 -3 27 -7 19
-8 33 -2 35 5 2 9 25 8 51 -4 78 8 173 23 188 8 8 12 14 8 14 -3 0 0 9 8 21 8
11 12 30 9 42 l-5 22 24 -21 c39 -35 65 -44 121 -45 64 -1 88 2 88 12 0 4 7 9
15 13 25 9 18 -32 -10 -58 -14 -13 -25 -27 -25 -32 0 -5 5 -2 10 6 8 12 10 9
10 -13 0 -16 -4 -26 -10 -22 -6 4 -10 -6 -10 -24 0 -16 -4 -33 -10 -36 -5 -3
-10 -15 -10 -26 0 -12 -10 -30 -22 -41 -13 -11 -17 -17 -10 -13 16 8 16 -25
-1 -50 -15 -21 -30 -85 -21 -85 3 0 10 13 15 30 6 16 15 27 20 24 5 -3 6 2 3
10 -3 7 11 61 31 118 20 56 46 133 58 171 22 68 33 81 39 50 2 -10 4 3 4 30 1
43 8 66 18 56 3 -2 8 -33 12 -67 6 -59 5 -64 -12 -62 -50 6 -59 -7 -11 -16 31
-5 49 20 40 57 l-6 24 19 -21 c10 -11 39 -32 64 -46 53 -31 124 -33 145 -5 7
9 17 17 23 17 5 0 12 7 16 15 7 19 8 19 -39 -5 -22 -11 -48 -20 -60 -20 -44 0
-100 24 -128 53 -27 29 -52 75 -44 83 2 2 23 -7 48 -19 31 -15 67 -23 122 -25
84 -4 124 6 154 41 18 22 18 22 -2 6 -33 -26 -76 -36 -147 -33 -79 3 -142 22
-128 39 5 6 5 16 -1 25 -8 12 -9 11 -7 -4 2 -10 -3 -21 -11 -24 -9 -3 -11 0
-6 8 5 8 4 11 -2 7 -24 -15 -19 38 13 135 19 57 36 110 37 118 6 34 17 41 45
26 15 -8 40 -12 55 -9z m-1424 -14 c10 -17 10 -17 11 0 0 9 5 17 10 17 7 0 7
-7 0 -21 -9 -16 -4 -38 28 -118 22 -53 42 -111 45 -128 5 -28 2 -31 -37 -43
-47 -15 -54 -17 -118 -24 -27 -4 -48 -2 -48 3 0 5 -9 7 -19 4 -13 -3 -23 2
-30 16 -7 12 -18 21 -27 21 -11 0 -8 -7 10 -27 21 -23 35 -28 89 -31 57 -4
125 9 183 34 6 3 14 -2 18 -11 3 -9 2 -14 -3 -11 -4 3 -28 -4 -52 -16 -46 -22
-125 -29 -169 -15 l-25 8 24 -20 c41 -37 130 -25 200 26 24 17 24 17 13 -4
-14 -26 -69 -61 -110 -69 -52 -10 -168 38 -140 58 10 7 9 8 -4 4 -11 -3 -19 2
-23 13 -3 10 -13 18 -23 17 -11 -1 -16 6 -16 17 1 10 -23 62 -53 115 -30 53
-56 107 -57 119 0 11 -4 19 -8 16 -5 -2 -8 0 -8 5 0 5 9 12 20 15 11 3 18 1
15 -3 -3 -5 -1 -11 5 -15 5 -3 10 0 10 8 0 9 9 12 30 9 17 -2 37 1 45 8 8 7
21 10 29 7 8 -3 17 -3 21 1 3 4 18 7 33 8 15 1 42 5 61 9 26 5 32 4 26 -5 -5
-9 -4 -11 4 -6 6 4 9 12 6 17 -4 5 1 9 9 9 8 0 20 -8 25 -17z m1800 -58 c45
-3 111 -25 111 -38 0 -8 3 -8 9 1 6 11 10 10 15 -3 3 -10 1 -25 -6 -34 -7 -9
-13 -17 -14 -19 -1 -1 -9 0 -18 4 -9 3 -13 10 -10 15 3 5 -2 6 -11 3 -9 -4
-26 -2 -38 4 -12 6 -40 16 -63 22 -26 6 -41 16 -41 25 0 10 6 14 15 10 12 -4
13 -3 2 10 -11 13 -10 14 5 9 9 -4 29 -8 44 -9z m-2141 -27 c2 -15 -2 -28 -10
-31 -7 -2 -6 -3 3 -2 21 3 30 -4 47 -34 8 -13 22 -38 32 -56 10 -18 16 -36 13
-39 -4 -3 -2 -6 4 -6 6 0 13 -14 15 -31 4 -23 0 -33 -15 -41 -15 -8 -18 -7
-11 4 6 10 5 10 -9 -1 -39 -31 -73 -23 -128 29 -44 42 -50 52 -39 65 11 13 10
14 -3 9 -10 -3 -20 3 -28 17 -9 17 -9 24 0 27 6 2 11 8 11 14 0 6 -7 8 -15 5
-8 -4 -17 -2 -20 4 -10 16 -16 59 -8 57 5 0 15 2 23 5 33 15 106 35 120 34 8
-1 16 -14 18 -29z m-151 -95 c26 -47 56 -100 65 -117 16 -28 16 -31 1 -48 -21
-23 -53 -23 -54 0 -1 16 -2 16 -6 0 -2 -10 -8 -18 -12 -18 -14 0 -31 24 -32
45 0 11 -3 14 -6 7 -3 -7 0 -25 6 -40 13 -32 56 -41 94 -20 12 7 25 11 29 10
4 -1 5 5 2 13 -8 20 23 20 42 0 20 -20 43 -19 104 4 45 17 50 17 50 3 0 -9
-12 -29 -27 -44 -20 -21 -36 -28 -64 -28 -21 0 -41 5 -44 10 -4 6 7 10 25 10
27 0 90 24 90 34 0 2 -22 -3 -49 -11 -29 -10 -56 -13 -67 -8 -25 10 -44 14
-44 9 0 -3 7 -21 15 -41 24 -56 20 -73 -16 -73 -30 0 -31 1 -24 33 4 17 9 43
11 57 3 21 2 20 -11 -7 -8 -18 -22 -33 -30 -33 -8 0 -15 -4 -15 -10 0 -5 6 -9
13 -7 6 1 11 -3 10 -10 -2 -6 8 -20 20 -30 13 -10 29 -27 36 -38 11 -19 12
-18 8 8 -3 18 0 27 10 27 20 0 25 22 14 54 -10 25 -9 26 10 16 12 -7 18 -18
15 -26 -3 -8 -2 -13 3 -10 4 3 34 -33 65 -79 32 -47 76 -106 100 -132 23 -27
60 -73 84 -103 23 -30 55 -70 72 -89 16 -18 27 -38 23 -44 -3 -5 -1 -7 4 -4 6
4 26 -10 43 -31 18 -20 53 -58 77 -84 24 -27 42 -52 39 -57 -3 -5 -18 -12 -33
-16 -16 -3 -35 -13 -44 -21 -15 -13 -23 -8 -81 53 -105 109 -240 261 -283 317
-22 29 -60 77 -84 107 -24 30 -68 90 -97 134 -29 44 -62 89 -74 100 l-23 20
17 -32 c28 -56 14 -93 -30 -76 -14 5 -15 17 -9 78 7 77 12 61 -76 225 -25 46
-25 73 0 65 11 -3 22 -1 26 5 4 6 15 8 26 5 12 -4 21 -1 25 9 3 9 8 16 9 16 2
0 25 -39 52 -87z m2478 77 c-3 -5 0 -7 9 -4 8 3 27 -3 42 -13 16 -10 29 -17
31 -15 32 27 -23 -111 -80 -198 -16 -26 -21 -43 -16 -65 4 -16 7 -46 8 -67 l1
-36 -30 11 c-34 13 -36 21 -15 57 20 35 18 46 -5 25 -11 -10 -18 -21 -15 -24
2 -4 -13 -5 -33 -3 -33 4 -43 -7 -10 -12 20 -3 38 -16 38 -29 0 -6 -7 -2 -15
9 -10 12 -13 13 -10 3 6 -16 5 -17 -154 -224 -116 -150 -180 -225 -298 -348
-63 -65 -83 -96 -130 -195 -31 -64 -60 -120 -65 -123 -5 -3 -9 -9 -9 -13 4
-29 -1 -46 -11 -40 -6 4 -8 3 -4 -4 3 -6 0 -15 -9 -19 -13 -8 -14 -22 -6 -103
6 -52 13 -140 17 -195 3 -55 9 -103 11 -108 4 -7 8 -36 18 -127 1 -14 5 -32 8
-40 3 -8 16 -49 30 -91 21 -65 23 -79 11 -90 -11 -12 -9 -14 11 -14 19 0 26 7
31 30 3 17 19 68 34 115 16 47 40 126 55 175 15 50 30 99 35 110 14 32 88 258
92 280 2 11 9 19 14 18 6 -1 21 32 34 73 21 67 26 74 49 74 41 -1 91 -23 165
-73 60 -40 77 -47 120 -47 l50 0 -34 -25 c-18 -14 -42 -28 -53 -31 -18 -6 -17
-8 9 -30 16 -13 35 -23 42 -24 28 0 9 -20 -20 -21 -18 -1 -40 -2 -48 -3 -31
-3 -94 25 -152 69 -47 35 -68 45 -98 45 -22 0 -42 -4 -45 -10 -10 -15 -84
-228 -117 -335 -17 -55 -43 -136 -58 -180 -65 -190 -80 -255 -60 -255 13 0 13
-57 0 -65 -6 -3 -29 -6 -53 -7 -23 0 -50 -4 -59 -9 -18 -10 -48 12 -48 36 0 7
-11 23 -25 33 -15 12 -21 23 -15 27 5 3 10 11 10 16 0 5 -11 2 -24 -6 -26 -18
-76 -29 -76 -18 0 3 5 22 12 40 10 27 17 33 40 33 16 0 28 -6 28 -12 1 -7 10
-2 20 11 15 18 20 37 19 80 -2 49 -3 51 -8 19 -5 -33 -8 -35 -23 -24 -10 7
-14 17 -10 22 4 5 -6 -2 -22 -16 -16 -14 -26 -19 -21 -11 5 9 4 12 -3 7 -7 -4
-12 -20 -12 -35 0 -39 -35 -114 -54 -117 -20 -3 -20 7 -1 48 21 46 53 224 43
240 -4 7 -8 24 -8 37 0 24 0 24 20 6 12 -11 26 -20 33 -21 7 -1 35 -12 62 -25
28 -13 55 -25 60 -28 6 -2 5 2 -1 10 -6 8 -14 45 -18 83 -4 39 -11 111 -16
160 -5 50 -12 123 -15 161 -3 39 -8 79 -10 90 -2 11 -4 23 -4 27 -1 4 -13 5
-28 4 -26 -3 -29 -7 -38 -72 -13 -90 -29 -68 -22 29 3 40 3 63 1 51 -4 -18
-15 -22 -81 -28 -112 -9 -211 -7 -218 4 -3 6 -1 10 6 10 6 0 -5 11 -25 25 -20
14 -42 24 -49 22 -7 -1 -13 11 -15 27 -2 18 0 26 7 21 6 -3 55 -8 108 -11 54
-2 123 -6 153 -8 30 -1 70 -4 88 -4 23 -2 32 -7 33 -19 1 -17 2 -17 6 0 4 16
33 25 33 10 0 -5 17 -9 38 -10 l37 -1 -43 13 c-110 35 -551 51 -722 26 -119
-17 -180 -31 -180 -41 0 -4 9 -6 20 -3 15 4 20 0 20 -16 0 -15 -5 -21 -17 -19
-14 2 -19 -7 -24 -42 -3 -24 -5 -59 -5 -77 1 -18 -2 -34 -5 -36 -3 -1 -8 -26
-11 -55 -4 -43 -3 -50 9 -41 7 7 16 10 18 7 6 -6 -23 -66 -36 -74 -5 -3 -16
-22 -25 -42 -10 -25 -33 -50 -70 -75 -40 -28 -53 -43 -49 -56 4 -13 -5 -22
-32 -36 -21 -11 -42 -20 -48 -20 -33 -2 -109 -89 -100 -113 3 -8 -2 -20 -11
-26 -47 -35 86 -52 150 -20 19 9 33 11 41 4 6 -5 26 -11 44 -12 21 -1 40 -11
52 -26 21 -28 21 -29 39 73 7 39 17 75 22 81 5 7 30 15 56 19 58 8 92 29 92
56 0 21 1 21 27 4 16 -10 33 -24 39 -32 7 -7 34 -22 62 -31 28 -10 57 -24 66
-31 22 -19 66 -170 66 -229 l0 -50 -37 -5 c-47 -5 -56 -1 -41 22 12 20 42 17
31 -3 -4 -8 -2 -8 7 1 16 14 5 32 -18 29 -20 -3 -50 33 -35 43 22 14 23 46 2
59 -24 16 -37 9 -21 -11 7 -8 9 -17 5 -20 -3 -4 -12 2 -20 13 -8 11 -25 20
-38 20 -28 0 -87 -49 -67 -57 6 -2 12 -13 12 -24 0 -10 -6 -19 -12 -20 -7 0
-2 -6 12 -12 71 -34 96 -71 43 -65 -17 2 -27 8 -25 16 1 8 -2 11 -9 6 -9 -5
-6 -12 10 -25 13 -10 17 -20 11 -24 -17 -10 -48 4 -55 26 -7 22 -2 20 -80 23
-33 2 -77 10 -97 19 -35 15 -38 19 -38 56 0 23 -4 41 -9 41 -5 0 -13 9 -16 21
-9 26 -28 20 -35 -12 -5 -21 -15 -26 -75 -37 -100 -18 -125 -17 -142 7 -9 14
-25 21 -47 21 -48 0 -130 45 -160 88 -32 47 -32 53 0 91 34 41 90 73 221 127
108 44 218 112 268 163 22 24 26 39 31 107 2 43 8 106 13 139 8 54 7 61 -10
74 -10 7 -19 18 -19 25 0 6 -25 64 -56 128 -31 65 -54 124 -51 132 6 16 151
63 222 72 l50 6 19 -66 c11 -36 23 -66 28 -66 11 0 10 27 -1 32 -5 2 -12 17
-15 35 l-7 31 73 6 c40 3 114 10 163 15 l90 9 -115 -4 c-63 -2 -139 -7 -167
-10 -43 -5 -53 -3 -53 8 0 20 98 28 329 28 161 0 439 -21 462 -35 5 -4 9 -1 9
4 0 6 -9 11 -19 11 -23 0 -40 22 -23 28 7 2 12 8 12 12 0 17 64 103 68 92 2
-7 9 -12 15 -12 8 0 7 4 -1 12 -18 18 -15 26 31 71 23 22 33 35 23 27 -17 -13
-18 -13 -10 0 5 8 20 32 33 53 12 20 27 37 32 37 5 0 9 6 9 13 0 8 14 33 30
55 17 23 30 45 30 48 0 14 38 53 45 46 5 -4 5 -1 0 7 -5 9 -2 19 9 27 10 7 17
16 16 21 -1 13 32 83 40 83 5 0 11 -7 14 -15 4 -11 17 -15 41 -13 37 2 49 16
34 39 -16 25 -10 30 16 13 18 -12 39 -15 69 -12 l44 5 -21 -32 c-19 -29 -23
-31 -33 -17 -10 14 -11 11 -8 -14 2 -23 -7 -43 -41 -89 -25 -33 -45 -63 -45
-68 0 -4 -5 -5 -12 -1 -7 4 -8 3 -4 -4 4 -7 2 -12 -3 -12 -6 0 -11 -5 -11 -11
0 -22 -37 -58 -47 -48 -8 8 -13 7 -18 -2 -5 -7 -4 -10 3 -5 6 3 13 2 16 -2 5
-9 -30 -48 -49 -54 -5 -2 -9 -8 -7 -15 1 -6 -3 -15 -9 -19 -8 -4 -9 -3 -5 4 4
7 2 12 -4 12 -7 0 -9 -8 -5 -22 6 -16 4 -20 -8 -15 -9 3 -14 0 -13 -11 1 -12
-5 -16 -19 -14 -16 2 -17 1 -5 -7 16 -11 23 -1 -71 -111 -60 -71 -79 -97 -61
-86 6 4 48 52 93 106 45 55 86 97 92 93 6 -3 7 -1 3 6 -10 15 92 143 106 134
7 -4 8 -1 3 6 -4 7 1 22 12 34 25 28 183 256 190 275 5 11 7 11 14 0 6 -9 9
-5 9 13 0 15 7 32 15 39 8 7 15 16 15 21 0 21 51 89 62 83 7 -4 8 -3 4 5 -7
11 41 109 72 144 16 18 37 24 27 7z m-138 -37 c35 -14 60 -29 57 -34 -3 -5
-10 -7 -15 -4 -5 3 -7 0 -4 -7 8 -19 -63 -128 -84 -128 -9 0 -25 -6 -36 -13
-18 -12 -38 -14 -98 -9 -10 1 -15 7 -12 13 4 6 0 9 -11 7 -13 -2 -20 4 -22 20
-4 29 25 75 41 66 9 -5 9 -4 1 5 -9 9 -4 26 19 68 29 54 30 55 65 48 20 -4 64
-18 99 -32z m-1341 -213 c7 -51 5 -54 -32 -44 -19 5 -20 10 -12 52 4 26 6 53
3 60 -3 7 0 10 5 7 6 -3 10 0 11 7 1 25 18 -32 25 -82z m-1136 45 c0 -5 -5 -3
-10 5 -5 8 -10 20 -10 25 0 6 5 3 10 -5 5 -8 10 -19 10 -25z m1514 18 c16 -59
17 -101 2 -106 -26 -10 -46 3 -42 27 3 11 8 38 11 59 6 39 20 49 29 20z
m-1469 -55 c8 -28 14 -53 12 -54 -9 -10 -27 17 -31 46 -3 19 -8 44 -12 54 -5
13 -4 17 4 12 6 -4 18 -30 27 -58z m2832 56 c-3 -3 -12 -4 -19 -1 -8 3 -5 6 6
6 11 1 17 -2 13 -5z m-2097 -58 c13 -47 8 -66 -16 -66 -12 0 -20 35 -14 65 1
5 2 18 3 27 2 31 14 19 27 -26z m-326 -16 c3 -16 9 -43 12 -60 5 -28 4 -30
-26 -30 -23 0 -31 4 -27 14 3 7 9 34 12 60 8 53 21 60 29 16z m617 -18 c-7
-13 -3 -19 21 -29 16 -7 34 -11 38 -8 9 6 32 -113 25 -126 -3 -4 0 -11 6 -14
5 -4 8 -14 5 -22 -4 -8 1 -42 9 -74 9 -33 13 -64 10 -70 -4 -5 -1 -16 5 -24 7
-8 10 -24 7 -35 -3 -12 -1 -18 5 -14 5 4 9 -4 7 -17 -1 -13 2 -33 7 -44 5 -11
9 -41 9 -67 0 -25 4 -44 8 -41 4 2 5 -8 2 -24 -5 -21 -4 -24 4 -13 9 12 11 11
11 -7 0 -22 -4 -23 -64 -23 -39 0 -68 5 -72 12 -4 6 -2 14 4 16 7 2 12 8 12
14 0 6 -6 6 -15 -2 -13 -10 -15 -9 -15 9 0 11 -4 21 -10 21 -5 0 -7 7 -4 15 4
8 1 15 -6 15 -7 0 -10 7 -6 15 3 8 1 15 -5 15 -14 0 -61 109 -53 122 4 7 2 8
-4 4 -7 -4 -14 4 -18 21 -4 15 -11 34 -17 41 -5 6 -6 12 -2 12 5 0 1 8 -7 18
-32 36 -85 159 -76 176 6 11 5 14 -4 11 -8 -3 -21 14 -36 46 -12 29 -21 53
-20 55 2 1 24 -3 50 -8 59 -14 154 5 169 34 6 10 14 16 20 13 6 -4 6 -13 0
-23z m-796 -2 c3 -5 1 -10 -4 -10 -6 0 -11 5 -11 10 0 6 2 10 4 10 3 0 8 -4
11 -10z m454 3 c-7 -41 17 -59 55 -42 17 8 22 17 20 33 -4 20 16 -20 52 -103
9 -20 47 -100 85 -179 38 -78 69 -145 69 -148 0 -4 37 -85 80 -176 10 -20 15
-39 12 -42 -3 -4 -23 -6 -45 -6 -22 0 -80 -8 -128 -17 l-89 -17 -29 30 c-17
16 -31 37 -31 47 0 9 -6 16 -12 15 -7 -2 -12 3 -10 10 1 6 -5 12 -13 12 -8 0
-15 7 -15 17 0 9 -3 13 -7 10 -3 -4 -20 10 -37 30 -17 20 -41 46 -53 57 -13
11 -23 26 -23 33 0 7 -5 13 -10 13 -6 0 -9 3 -8 8 1 4 -15 25 -35 47 -21 22
-35 45 -33 51 3 7 -4 14 -13 17 -22 5 -118 127 -152 195 -7 12 -16 22 -20 22
-4 0 -10 7 -13 16 -5 12 -2 15 10 10 9 -4 23 -1 30 5 8 6 14 8 14 3 1 -5 7 2
15 16 l15 25 -6 -29 c-9 -37 16 -59 51 -46 13 5 26 6 30 2 3 -3 4 7 1 23 -8
44 7 63 27 35 8 -12 20 -19 26 -15 6 3 11 1 11 -5 0 -6 5 -8 10 -5 6 3 10 1
10 -5 0 -23 93 1 121 31 27 29 40 36 38 22z m1808 -126 c-3 -7 -46 -136 -97
-287 -50 -151 -96 -279 -101 -285 -6 -5 -15 -10 -22 -10 -10 0 -50 -102 -65
-167 -2 -7 -15 -40 -28 -73 -14 -33 -36 -98 -50 -145 -13 -47 -35 -112 -48
-145 -13 -33 -38 -107 -56 -165 -18 -58 -37 -114 -41 -125 -22 -55 -52 -144
-59 -178 -4 -21 -10 -41 -14 -44 -6 -6 -37 58 -42 86 -2 8 -5 25 -8 36 -6 22
-23 135 -31 205 -9 66 -16 145 -22 241 -6 108 -16 77 100 319 46 95 68 128
129 191 40 42 94 101 120 130 26 30 61 70 78 89 50 57 110 136 156 203 14 22
28 36 32 32 4 -3 2 -9 -3 -13 -6 -4 -10 -11 -10 -17 -1 -5 -7 -30 -15 -55 -7
-25 -14 -47 -15 -50 0 -3 -16 -50 -34 -105 -18 -55 -34 -107 -36 -115 -2 -8
-10 -32 -19 -52 -9 -21 -16 -45 -15 -55 0 -10 5 -5 11 12 5 17 16 44 23 60 7
17 41 116 75 220 77 234 93 275 104 275 4 0 6 -6 3 -13z m-17 -651 c26 -28 22
-48 -14 -71 -29 -19 -40 -15 -61 26 -18 33 -13 46 19 59 30 12 30 12 56 -14z
m-1202 -231 c0 -17 -13 -38 -33 -58 l-33 -32 -113 6 c-152 9 -169 14 -169 49
0 31 14 36 134 45 32 2 60 5 61 7 2 2 37 4 78 6 74 3 75 2 75 -23z m-349 -111
c12 -100 14 -130 6 -122 -6 5 -35 188 -35 217 0 9 3 11 9 6 5 -6 14 -51 20
-101z m423 44 c59 -78 46 -108 -47 -108 -75 0 -95 6 -95 30 0 24 78 110 100
110 10 0 29 -15 42 -32z m-467 -35 c2 -10 4 -18 5 -18 1 0 4 -24 6 -53 3 -42
0 -56 -16 -72 -11 -11 -21 -20 -23 -20 -1 0 -3 20 -3 44 0 25 4 42 10 39 5 -4
7 7 3 26 -7 32 1 87 10 77 2 -2 6 -12 8 -23z m221 -4 c80 -1 82 -2 82 -27 0
-14 7 -31 16 -37 8 -7 13 -15 9 -18 -3 -4 23 -8 58 -8 35 -1 66 -1 69 -1 3 -1
18 2 33 6 l28 7 -20 -28 c-28 -38 -34 -83 -16 -117 8 -15 15 -34 15 -42 0 -7
9 -18 20 -24 11 -6 19 -18 19 -28 -1 -16 -2 -16 -6 1 -2 9 -9 17 -14 17 -12 0
-12 -23 0 -35 14 -15 31 -85 20 -85 -22 0 -100 -44 -110 -62 -5 -10 -12 -35
-15 -55 -2 -21 -8 -40 -13 -43 -4 -3 -11 -17 -15 -32 -3 -16 -11 -28 -16 -28
-10 0 -35 78 -31 95 8 30 10 78 4 88 -17 27 -20 107 -8 182 6 36 3 45 -31 88
-20 26 -48 50 -60 53 -13 3 -22 10 -19 14 7 11 -50 24 -90 22 -43 -3 -52 7
-59 64 l-6 52 38 -9 c20 -4 74 -9 118 -10z m648 -61 c4 -46 9 -110 12 -143 2
-33 6 -73 9 -90 4 -30 8 -110 6 -131 -1 -16 -67 -1 -92 22 -18 16 -18 18 16
55 26 29 34 47 33 71 0 18 2 44 6 58 7 24 7 24 -9 5 -8 -11 -13 -25 -11 -32 3
-7 1 -13 -4 -13 -6 0 -10 5 -10 10 0 6 -7 10 -15 10 -8 0 -15 5 -15 12 0 6 -6
4 -13 -6 -10 -13 -14 -15 -14 -5 0 8 -4 29 -7 47 -8 39 -2 40 29 6 16 -18 25
-22 25 -12 0 17 -87 81 -95 69 -2 -5 2 -14 10 -21 8 -7 15 -25 15 -39 0 -25
-3 -27 -29 -23 -16 2 -32 -1 -36 -8 -6 -10 -1 -11 18 -6 36 9 70 -27 62 -65
-4 -15 -1 -30 4 -34 6 -3 11 -3 12 2 4 49 22 74 41 55 8 -8 8 -15 -3 -28 -9
-12 -10 -15 -1 -10 6 4 12 3 12 -3 0 -12 -60 -45 -61 -34 0 5 -4 -2 -9 -14 -5
-13 -24 -32 -42 -43 -63 -38 -128 -20 -152 42 -22 54 -19 106 8 151 21 34 24
36 29 18 3 -14 0 -21 -8 -21 -28 0 -23 -18 6 -22 28 -4 30 -3 26 19 -3 16 0
23 12 23 9 0 24 9 34 21 13 14 24 18 40 13 19 -6 20 -5 8 9 -7 9 -16 15 -20
13 -37 -19 -84 -29 -76 -16 13 21 -20 9 -47 -17 -26 -25 -42 -21 -16 5 6 6 9
15 5 19 -16 15 -27 -33 -28 -119 0 -10 -4 -18 -10 -18 -5 0 -9 9 -9 20 0 11
-9 29 -19 39 -16 16 -18 26 -11 52 5 17 16 39 25 49 8 9 15 22 15 28 0 7 9 12
20 12 10 0 23 6 27 14 4 8 22 15 38 17 17 2 35 7 42 12 7 5 18 5 25 1 7 -5 23
-7 36 -5 17 2 25 -3 29 -18 3 -11 9 -19 13 -16 4 3 13 -2 20 -10 7 -8 21 -15
31 -15 11 0 19 -7 19 -15 0 -8 6 -15 13 -15 9 0 9 -2 -1 -9 -12 -7 -12 -12 -1
-30 20 -32 27 -26 19 17 -10 48 -20 73 -29 67 -4 -2 -3 21 2 51 15 81 33 69
41 -28z m-111 60 c11 -9 14 -18 8 -27 -7 -11 -13 -12 -23 -3 -24 20 -109 16
-161 -7 -61 -26 -59 -26 -55 7 3 26 5 27 82 32 44 3 91 6 106 8 14 1 34 -4 43
-10z m-570 -131 c44 -19 95 -63 113 -99 15 -28 14 -34 -1 -69 -18 -38 -17 -45
6 -146 6 -29 8 -64 4 -80 -6 -26 -7 -27 -17 -8 -15 27 -30 36 -49 30 -16 -5
-17 5 -10 65 1 13 2 13 11 0 8 -12 10 -12 10 5 1 18 2 18 10 -3 5 -12 7 -29 4
-37 -4 -8 -1 -15 6 -15 9 0 10 9 4 33 -4 17 -7 59 -6 92 l1 60 -14 -55 c-20
-84 -74 -117 -136 -82 -19 10 -44 34 -56 52 -24 34 -30 55 -14 46 5 -3 11 1
15 9 8 22 23 18 29 -6 8 -29 31 -19 35 16 3 25 1 27 -22 21 -13 -3 -28 -1 -31
4 -4 6 -3 10 2 9 4 -1 22 2 40 6 24 5 37 17 52 47 l19 40 17 -33 c27 -52 75
-82 75 -48 0 6 -4 8 -9 5 -5 -3 -12 1 -15 10 -3 8 -11 12 -17 8 -7 -4 -10 -1
-7 7 5 14 -2 25 -37 60 l-20 20 -7 -33 c-3 -18 -18 -43 -33 -55 -27 -23 -51
-31 -40 -13 3 6 2 10 -2 10 -9 0 -30 -30 -31 -44 0 -9 -22 -26 -34 -26 -9 0
29 77 40 82 5 1 12 14 16 28 6 24 6 24 -9 -2 -9 -16 -19 -28 -23 -28 -11 0
-38 -70 -34 -88 2 -8 -1 -11 -7 -7 -6 3 -9 0 -5 -8 2 -7 -1 -14 -8 -14 -7 0
-21 -4 -31 -8 -12 -5 -17 -3 -15 5 2 7 -3 14 -10 16 -7 1 -8 0 -2 -3 7 -3 6
-9 -4 -17 -12 -8 -13 -15 -5 -26 9 -13 10 -12 5 3 -3 9 -1 17 4 17 6 0 10 -5
10 -12 0 -6 3 -8 7 -5 3 4 12 -1 20 -11 13 -16 14 -15 8 6 -11 38 11 24 23
-15 l11 -38 -5 41 c-3 23 -1 45 4 48 12 7 27 -48 18 -63 -4 -5 -2 -21 4 -35 5
-14 8 -26 6 -26 -3 0 -12 -3 -20 -6 -13 -5 -15 -2 -9 12 6 18 5 18 -17 -1
l-23 -20 11 22 c10 17 9 21 -3 19 -8 -1 -21 -8 -28 -16 -10 -10 -9 -11 3 -5 8
5 -2 -10 -22 -33 -21 -23 -38 -51 -38 -61 0 -11 -7 -26 -15 -34 -8 -8 -11 -18
-8 -21 4 -4 8 -13 9 -20 1 -10 -3 -11 -21 -2 -13 6 -21 14 -19 18 2 3 0 9 -6
13 -33 20 33 132 72 121 11 -2 17 -2 14 1 -3 4 2 16 13 27 21 24 37 66 24 66
-13 0 -34 -40 -28 -50 4 -6 0 -10 -7 -10 -19 0 -128 -88 -128 -103 0 -8 4 -7
10 3 7 11 10 6 10 -20 l-1 -35 -19 24 c-21 25 -27 13 -9 -20 7 -14 16 -18 27
-14 13 5 14 3 6 -5 -30 -30 -86 49 -64 90 6 12 9 24 6 28 -3 3 17 18 44 34 28
16 50 31 50 34 0 2 -20 -7 -43 -21 -24 -14 -50 -25 -58 -25 -8 0 14 16 49 36
73 42 98 75 142 194 18 47 41 94 51 105 40 41 124 56 182 32z m567 -272 c0 -8
-16 -30 -36 -49 -31 -30 -40 -34 -56 -25 -11 6 -18 7 -16 2 2 -4 -6 -17 -18
-29 l-22 -21 -5 40 c-8 55 -2 64 39 59 36 -4 94 14 94 29 0 5 5 9 10 9 6 0 10
-7 10 -15z m-682 -45 c1 -17 -1 -29 -6 -26 -4 2 -9 19 -10 36 -1 17 1 29 6 26
4 -2 9 -19 10 -36z m550 -245 c29 -75 35 -120 18 -134 -12 -10 -16 -8 -22 11
-4 13 -7 27 -6 31 1 5 -1 6 -6 3 -10 -6 -43 30 -35 37 3 3 -3 4 -14 3 -31 -5
-52 13 -60 52 -9 47 -10 52 -11 80 -1 12 -7 22 -13 22 -10 0 -8 -16 7 -82 8
-33 -1 -35 -41 -8 -16 11 -34 20 -40 20 -5 0 3 -9 18 -19 16 -10 28 -22 28
-27 0 -5 8 -9 18 -9 27 0 35 -10 10 -12 -27 -2 -51 -22 -42 -36 3 -5 1 -7 -4
-4 -6 4 -14 -3 -18 -16 -4 -14 -8 -17 -12 -9 -3 7 3 25 12 40 l16 27 -23 -27
c-19 -23 -24 -25 -25 -10 -1 9 -2 31 -3 47 -3 35 4 65 21 97 7 13 22 50 33 82
17 48 26 61 50 69 16 5 45 21 65 34 l36 25 11 -119 c7 -68 20 -139 32 -168z
m117 127 c-9 -31 -26 -79 -37 -105 -26 -59 -36 -53 -72 45 -27 71 -25 79 22
91 16 4 25 -1 33 -15 10 -19 11 -19 30 -2 25 22 24 44 -1 51 -25 7 -25 6 8 40
l27 28 3 -38 c2 -21 -4 -63 -13 -95z m-65 68 c0 -5 -2 -10 -4 -10 -3 0 -8 5
-11 10 -3 6 -1 10 4 10 6 0 11 -4 11 -10z m-932 -30 c0 -16 -3 -30 -8 -30 -10
0 -18 31 -13 48 8 22 20 12 21 -18z m972 5 c0 -12 -19 -12 -23 0 -4 9 -1 12 9
8 7 -3 14 -7 14 -8z m-987 -46 c30 -53 21 -65 -52 -74 -41 -5 -51 34 -19 75
30 37 49 37 71 -1z m1131 -47 c8 -13 -7 -29 -36 -36 -21 -5 -28 -3 -28 8 0 25
52 47 64 28z m-647 -79 c-9 -8 31 -36 42 -29 5 4 4 -5 -2 -19 -7 -14 -17 -23
-24 -20 -7 2 -21 -8 -32 -23 -19 -25 -20 -26 -21 -6 0 12 7 24 15 28 8 3 15
10 15 16 0 6 -8 4 -17 -6 -12 -11 -18 -13 -21 -5 -2 7 4 18 14 26 11 7 16 16
13 19 -3 3 -15 -3 -27 -14 -11 -11 -23 -16 -26 -12 -7 11 17 39 39 45 31 7 39
8 32 0z m484 -22 c25 32 24 18 -1 -32 -23 -44 -35 -44 -42 -2 -3 16 -9 37 -13
48 -5 13 0 10 15 -9 l23 -28 18 23z m-844 -61 c-1 -22 -4 -40 -8 -40 -13 0
-20 52 -8 66 17 20 18 18 16 -26z m-27 -26 c0 -2 -6 -4 -12 -4 -18 0 -40 48
-25 53 10 3 37 -34 37 -49z m734 27 c29 -25 48 -68 34 -77 -6 -4 -18 2 -26 12
-14 18 -14 18 -8 -2 4 -13 1 -26 -9 -34 -12 -10 -16 -8 -24 11 -7 18 -10 19
-10 7 -1 -10 -6 -18 -11 -18 -14 0 -29 41 -23 60 4 13 4 13 -6 0 -6 -8 -8 -24
-5 -35 5 -20 5 -20 -10 -1 -9 11 -16 24 -16 29 0 4 -4 5 -10 2 -23 -14 -8 35
17 55 30 23 74 20 107 -9z m601 11 c39 -8 40 -9 43 -56 3 -45 -9 -76 -29 -76
-12 0 -12 27 0 32 4 2 5 12 1 23 -7 18 -9 17 -15 -10 -4 -16 -8 -35 -10 -42
-2 -6 -29 -15 -59 -18 -44 -6 -56 -11 -56 -25 0 -10 8 -24 18 -31 15 -13 16
-12 4 3 -8 9 -11 22 -7 28 12 19 35 -22 24 -42 -5 -9 -9 -26 -9 -37 0 -12 -4
-21 -10 -21 -5 0 -10 10 -10 23 0 23 -29 72 -30 50 0 -6 5 -15 10 -18 6 -3 10
-25 10 -48 0 -37 -1 -39 -13 -22 -8 10 -19 15 -25 11 -17 -10 -15 6 3 30 19
25 19 35 0 28 -8 -4 -15 -16 -15 -27 0 -20 -1 -21 -17 -4 -17 17 -17 19 1 32
10 8 23 12 27 9 5 -3 9 0 9 5 0 15 -12 14 -39 -5 -17 -12 -26 -13 -34 -5 -17
17 3 30 51 32 28 2 42 8 42 17 0 8 -7 11 -17 8 -10 -2 -33 -8 -52 -11 -30 -7
-33 -5 -26 11 15 38 18 57 8 51 -6 -4 -13 -20 -16 -36 -6 -26 -10 -29 -51 -33
l-46 -3 2 37 c1 43 0 43 118 58 125 16 223 40 240 57 11 11 11 14 1 8 -25 -14
-81 -23 -87 -14 -3 5 -10 7 -15 4 -5 -4 -9 5 -9 20 0 21 4 25 23 20 12 -3 40
-9 62 -13z m-391 -4 c-6 -10 -4 -10 7 0 34 31 99 -1 99 -49 0 -34 -22 -36 -29
-3 -5 26 -20 44 -39 44 -12 0 -11 -4 6 -16 12 -8 22 -21 22 -28 0 -19 -37 -49
-53 -43 -8 3 -20 0 -26 -6 -17 -17 -25 1 -12 29 6 15 10 28 8 31 -2 2 -10 -10
-17 -27 -7 -16 -19 -30 -26 -30 -17 0 -18 14 -3 43 7 14 2 12 -14 -8 -36 -43
-45 -23 -13 26 22 33 32 40 52 36 13 -2 24 0 24 4 0 5 5 9 11 9 5 0 7 -6 3
-12z m-985 -14 c3 -3 -1 -10 -8 -17 -7 -7 -14 -8 -19 -2 -4 6 -14 11 -22 13
-41 9 -41 22 0 16 25 -3 47 -8 49 -10z m478 9 c-4 -3 -1 -13 6 -21 10 -13 9
-15 -11 -10 -19 5 -21 4 -11 -8 9 -11 8 -14 -2 -14 -36 1 -47 41 -14 52 28 8
40 9 32 1z m-380 -23 c8 -11 9 -21 3 -25 -8 -5 -30 24 -30 39 0 13 16 5 27
-14z m-143 -10 c26 -11 48 -19 51 -19 3 0 27 -3 53 -6 26 -4 56 -8 67 -9 15
-2 22 -13 26 -42 4 -21 5 -41 4 -43 -2 -1 -35 2 -74 9 -60 10 -71 15 -71 31 0
16 3 18 19 10 10 -6 21 -7 25 -4 3 4 13 -2 22 -13 14 -17 15 -18 10 -1 -3 10
-6 26 -6 35 0 14 -2 14 -9 3 -10 -15 -61 -7 -73 12 -5 8 -13 7 -30 -1 -13 -7
-15 -10 -5 -8 11 4 17 0 17 -12 0 -10 6 -24 13 -31 10 -10 4 -11 -28 -6 -63
11 -75 15 -75 30 0 7 -4 15 -8 17 -11 4 6 68 17 68 5 0 30 -9 55 -20z m647
-27 c-9 -15 -10 -12 -10 17 0 29 1 32 10 18 7 -12 7 -24 0 -35z m706 21 c-3
-3 -12 -4 -19 -1 -8 3 -5 6 6 6 11 1 17 -2 13 -5z m-672 -24 c3 -5 -1 -10 -9
-10 -9 0 -16 5 -16 10 0 6 4 10 9 10 6 0 13 -4 16 -10z m-155 -10 c0 -5 -9 -9
-20 -7 -31 5 -36 17 -7 17 15 0 27 -4 27 -10z m-193 -11 c15 -5 38 -21 50 -35
11 -14 23 -20 25 -14 1 5 23 14 48 19 25 5 37 9 28 10 -10 1 -18 4 -18 9 0 4
37 8 83 10 l82 2 -3 -45 c-3 -36 -7 -45 -19 -41 -8 3 -30 6 -49 6 -25 0 -34 4
-34 16 0 14 8 16 46 10 28 -3 43 -2 39 4 -3 6 -21 10 -40 10 -18 0 -36 6 -38
13 -8 19 -26 -11 -20 -34 5 -18 -2 -19 -96 -19 l-101 0 0 43 c0 29 -3 38 -9
27 -6 -8 -7 -27 -4 -42 5 -26 3 -28 -28 -28 -46 0 -59 10 -66 53 l-6 37 51 0
c28 0 63 -5 79 -11z m398 -18 c19 -10 31 -22 27 -26 -4 -4 2 -3 13 2 11 6 25
9 31 6 6 -2 17 3 24 12 19 23 30 18 30 -12 0 -44 -13 -56 -49 -48 -19 4 -29
11 -25 18 3 7 -1 5 -8 -4 -18 -22 -138 -25 -138 -3 0 8 8 15 18 16 9 1 24 2
32 4 8 1 26 3 40 4 l25 1 -23 9 c-13 6 -32 6 -48 0 -37 -14 -42 -13 -39 13 3
29 1 27 30 27 14 0 41 -8 60 -19z m222 10 c1 -1 -2 -12 -7 -26 -6 -16 -6 -25
0 -25 6 0 10 9 10 20 0 11 6 20 14 20 19 0 29 -17 16 -25 -12 -8 -13 -35 -1
-35 5 0 12 11 15 25 4 17 11 23 23 18 11 -4 14 -3 9 5 -5 8 2 12 19 12 24 0
26 -3 23 -32 l-3 -33 -103 -3 c-103 -3 -103 -3 -100 20 2 17 11 24 31 26 15 2
27 7 27 11 0 4 -13 6 -30 3 -28 -4 -39 6 -23 21 5 6 62 4 80 -2z m-927 -85 c0
-18 -6 -38 -12 -45 -11 -10 -10 -11 3 -6 13 5 18 -1 21 -24 3 -23 1 -31 -11
-32 -10 0 -11 -3 -4 -5 7 -3 10 -11 8 -17 -13 -38 -12 -77 1 -77 18 0 17 -10
-1 -34 -23 -31 -17 -125 7 -110 6 4 6 9 -2 14 -8 5 -9 13 -1 26 5 11 13 36 16
56 6 39 22 59 29 36 2 -7 7 -25 10 -40 4 -19 13 -28 26 -28 11 0 20 4 20 9 0
5 3 16 6 25 3 9 1 16 -5 16 -6 0 -11 -7 -11 -15 0 -28 -15 -15 -17 15 -3 47
21 36 50 -22 40 -82 40 -127 -2 -169 -31 -31 -83 -39 -122 -19 -49 27 -63 125
-26 198 8 18 11 29 5 26 -6 -4 -19 -26 -29 -50 -20 -44 -39 -65 -39 -43 0 7
14 37 31 67 26 46 29 60 23 96 -3 22 -8 59 -10 81 -2 22 -7 56 -10 76 -6 35
-5 36 20 32 22 -4 26 -11 26 -37z m34 7 c16 -81 18 -128 6 -116 -12 11 -29 78
-30 121 0 31 17 28 24 -5z m55 -48 c-2 -47 -6 -65 -16 -65 -9 0 -13 14 -13 43
0 23 -3 52 -6 65 -5 18 -2 22 15 22 21 0 22 -4 20 -65z m47 52 c8 3 17 -2 20
-11 3 -9 11 -16 16 -16 6 0 7 7 4 16 -5 12 -1 14 17 8 12 -4 25 -11 28 -16 3
-5 10 -9 15 -8 18 3 15 -19 -5 -39 -12 -12 -21 -24 -22 -28 -2 -20 -17 -35
-28 -29 -14 9 -15 36 0 36 5 0 8 4 4 9 -3 6 2 14 11 19 10 6 12 12 6 16 -11 6
-41 -35 -47 -65 -2 -10 1 -18 8 -16 6 1 13 -6 15 -15 4 -21 -6 -22 -31 -4 -15
12 -16 18 -6 40 9 19 9 29 1 39 -9 10 -9 16 0 25 15 15 6 24 -15 16 -14 -5
-14 -9 -1 -40 13 -30 13 -35 -1 -40 -8 -3 -12 -10 -9 -15 3 -5 0 -9 -5 -9 -7
0 -11 28 -11 72 0 53 3 69 11 61 6 -6 18 -9 25 -6z m170 -25 c8 -9 14 -12 14
-6 0 12 60 26 60 14 0 -4 16 -24 36 -45 32 -34 34 -39 20 -53 -14 -15 -17 -14
-31 3 -8 12 -13 31 -10 45 5 22 4 23 -6 7 -10 -17 -12 -18 -30 -1 -10 9 -16
21 -13 25 3 5 1 9 -4 9 -5 0 -14 -12 -21 -27 -11 -24 -10 -25 4 -13 13 11 18
10 30 -6 17 -23 18 -31 5 -39 -5 -3 -10 -11 -10 -17 0 -6 8 -4 18 6 18 15 20
15 37 -4 18 -20 18 -21 -1 -41 l-21 -20 -58 78 c-32 43 -62 83 -66 88 -14 18
34 15 47 -3z m145 8 c37 0 47 -22 21 -50 l-19 -21 -18 28 c-10 15 -26 34 -34
41 -14 12 -14 13 2 8 10 -3 32 -6 48 -6z m97 -2 c19 2 41 -3 50 -10 9 -7 13
-8 9 -2 -5 8 4 11 26 9 17 -2 43 -3 56 -4 20 -1 22 -5 17 -28 -5 -21 -4 -24 3
-13 9 13 12 12 25 -5 19 -25 20 -39 2 -54 -14 -11 -22 -1 -72 81 -11 18 -12
17 -28 -7 -21 -32 -33 -32 -48 0 -6 14 -15 25 -20 25 -5 0 1 -18 14 -41 19
-34 20 -42 8 -49 -8 -6 -10 -10 -4 -10 5 0 15 5 21 11 9 9 14 5 19 -15 5 -22
12 -26 43 -26 55 0 68 -12 47 -44 -21 -33 -65 -35 -92 -3 -27 31 -35 55 -21
61 7 2 3 5 -9 5 -11 1 -29 10 -39 21 -15 17 -16 24 -6 48 10 25 10 26 -4 8 -8
-11 -16 -18 -18 -15 -13 17 -37 59 -37 64 0 4 5 3 12 -1 7 -4 27 -7 46 -6z
m607 2 c-4 -6 -2 -17 5 -25 7 -9 8 -15 0 -20 -5 -3 -10 -11 -10 -17 0 -7 4 -7
14 1 21 18 41 -11 26 -38 -6 -12 -12 -21 -14 -21 -2 0 -16 19 -32 43 -33 47
-50 67 -59 67 -3 0 6 -15 20 -34 22 -29 25 -38 15 -56 -12 -22 -12 -22 -26 -2
-8 11 -11 29 -8 39 5 15 4 15 -5 3 -10 -14 -16 -7 -12 13 1 5 -3 6 -8 3 -5 -4
-12 3 -16 14 -8 27 -19 25 -35 -5 -16 -31 -20 -31 -43 0 -17 24 -17 24 15 30
18 3 65 6 103 8 39 2 71 4 73 5 2 1 0 -3 -3 -8z m-306 -13 c11 -15 5 -47 -9
-47 -4 0 -15 11 -24 25 -15 23 -39 35 -34 18 1 -5 -4 -19 -11 -31 -12 -23 -13
-23 -25 -5 -31 45 -28 50 33 52 39 1 62 -3 70 -12z m64 1 c-2 -5 1 -8 6 -8 6
0 11 6 12 13 0 7 3 6 6 -3 3 -8 15 -25 26 -37 19 -21 19 -23 3 -49 l-18 -26
-15 22 c-13 18 -14 27 -5 41 17 26 15 34 -4 19 -13 -11 -19 -9 -42 13 l-26 27
31 -3 c17 -1 29 -5 26 -9z m-638 -78 c-18 -20 -20 -20 -31 -5 -10 13 -10 23
-2 41 l12 25 20 -20 c19 -20 19 -21 1 -41z m539 35 c15 -22 15 -28 3 -45 -14
-20 -14 -20 -31 -1 -14 15 -15 23 -5 45 7 14 13 26 14 26 2 0 10 -11 19 -25z
m221 15 c-3 -5 -2 -10 3 -10 19 0 19 -26 1 -48 l-18 -23 -11 22 c-9 17 -9 27
1 45 7 13 16 24 21 24 5 0 6 -4 3 -10z m-515 -40 c0 -10 -6 -23 -14 -29 -12
-10 -17 -8 -26 8 -15 29 5 68 26 50 8 -6 14 -19 14 -29z m162 -4 c25 -41 25
-45 7 -43 -14 1 -18 7 -13 22 5 20 5 20 -10 1 -9 -11 -17 -18 -19 -15 -1 2 -8
12 -15 21 -11 13 -11 20 0 37 7 12 15 21 18 21 3 0 17 -20 32 -44z m212 -10
c-6 -26 -7 -26 -25 -10 -22 20 -24 35 -7 52 19 19 41 -9 32 -42z m-578 -11
c13 -20 14 -28 4 -40 -11 -14 -15 -14 -31 1 -22 20 -23 30 -6 49 16 18 14 19
33 -10z m686 -38 c-13 -15 -18 -15 -29 -4 -10 10 -11 18 -1 38 l12 26 17 -21
c16 -19 16 -22 1 -39z m-719 -47 c-13 -13 -17 -12 -31 10 -10 13 -25 33 -35
43 -15 14 -16 21 -6 33 9 12 18 7 49 -29 34 -37 37 -44 23 -57z m194 39 c-15
-25 -21 -24 -37 6 -11 20 -11 27 1 41 12 15 15 14 31 -6 14 -17 15 -25 5 -41z
m103 -1 c0 -4 -4 -10 -10 -13 -5 -3 -10 -1 -10 6 0 10 -3 10 -12 1 -10 -10
-16 -8 -29 9 -15 20 -15 24 0 40 15 18 16 18 38 -9 12 -15 22 -30 23 -34z
m196 36 c-3 -9 0 -11 12 -7 12 5 10 -1 -7 -20 -26 -28 -19 -37 9 -12 14 12 17
12 27 -4 9 -14 9 -23 0 -35 -11 -15 -16 -13 -50 18 -38 34 -38 35 -22 60 17
26 41 26 31 0z m82 6 c11 -17 10 -23 -3 -37 -15 -14 -18 -14 -32 -1 -12 12
-13 20 -4 37 15 26 23 26 39 1z m72 -36 c-10 -11 -16 -12 -26 -3 -17 14 -19
33 -2 23 7 -4 8 -3 4 4 -14 23 6 34 21 12 12 -17 12 -24 3 -36z m152 39 c17
-15 17 -17 1 -35 -15 -17 -18 -17 -34 -2 -15 13 -16 20 -6 35 14 23 16 23 39
2z m139 -51 c-6 -2 -11 -9 -11 -17 0 -7 -6 -18 -14 -24 -11 -9 -21 -3 -49 31
-31 37 -34 45 -22 57 12 12 17 12 30 1 8 -7 13 -20 10 -30 -3 -10 0 -17 9 -17
9 0 13 4 10 9 -3 5 2 21 12 36 l18 27 9 -35 c6 -23 5 -36 -2 -38z m29 64 c0
-3 -4 -8 -10 -11 -5 -3 -10 -1 -10 4 0 6 5 11 10 11 6 0 10 -2 10 -4z m-1136
-54 c-10 -41 -12 -42 -59 -42 -42 0 -43 1 -43 34 l0 33 54 1 c53 0 54 0 48
-26z m40 -6 c-2 -21 5 -20 22 2 13 16 16 14 48 -20 19 -21 38 -38 43 -38 5 0
24 17 42 37 l33 37 19 -23 c14 -17 16 -27 9 -42 -14 -25 -27 -24 -41 2 -9 17
-13 19 -20 8 -12 -19 -11 -39 2 -39 6 0 8 8 5 18 -4 11 0 8 12 -7 l19 -23 22
23 c13 13 27 34 32 47 11 27 21 28 45 1 18 -20 18 -21 0 -35 -15 -10 -23 -11
-33 -2 -7 6 -16 8 -20 4 -4 -3 2 -13 13 -21 21 -16 38 -20 30 -6 -9 14 25 23
40 10 29 -24 11 -29 -98 -26 -82 1 -112 5 -111 14 2 7 -4 10 -12 7 -23 -9 -58
3 -90 30 -28 24 -43 71 -21 63 6 -2 10 -12 10 -21z m382 -41 c14 -19 14 -19 8
4 -5 19 -3 23 9 18 8 -3 19 -1 25 5 6 6 12 6 16 0 6 -9 -60 -72 -75 -72 -3 0
-16 11 -29 25 -21 23 -22 27 -10 51 13 24 15 24 28 7 7 -10 20 -27 28 -38z
m358 39 c12 -12 14 -20 5 -36 -10 -19 -11 -19 -30 -2 -20 18 -27 6 -8 -13 23
-23 -10 -43 -40 -24 -11 7 -7 17 19 50 18 23 35 41 36 41 1 0 10 -7 18 -16z
m73 -1 c4 -10 16 -25 27 -34 17 -14 18 -19 8 -32 -10 -12 -8 -15 13 -19 14 -3
25 -1 25 3 0 5 -6 9 -12 10 -10 0 -10 2 0 6 6 2 12 11 12 18 0 27 20 26 44 -2
28 -32 24 -47 -10 -39 -14 4 -24 2 -24 -4 0 -18 -56 -11 -75 10 -15 16 -15 22
-5 35 8 10 9 15 1 15 -6 0 -11 -5 -11 -12 0 -6 -9 -3 -20 7 -28 25 -25 9 5
-27 14 -16 23 -34 19 -39 -8 -14 76 -11 141 6 33 9 77 29 98 46 20 16 37 25
37 19 0 -16 -37 -49 -83 -73 -37 -20 -57 -22 -177 -22 -119 0 -140 3 -175 21
-41 22 -94 73 -65 62 45 -17 51 -17 20 1 -41 24 -33 28 11 6 16 -9 27 -20 24
-26 -4 -5 9 -16 29 -24 46 -19 57 -19 49 3 -6 15 -5 15 10 3 9 -7 14 -17 11
-22 -3 -5 10 -8 28 -8 19 1 25 3 13 6 -12 2 -26 13 -33 23 -10 17 -8 26 13 60
27 43 42 50 52 23z m71 -30 c-14 -14 -20 -14 -33 -3 -14 12 -14 15 2 32 15 17
18 17 32 3 14 -13 14 -17 -1 -32z m106 -15 c-4 -6 -2 -8 4 -4 6 3 14 1 17 -5
8 -13 7 -14 -24 -24 -21 -6 -23 -5 -19 13 4 13 2 19 -6 16 -7 -3 -21 5 -31 17
-19 21 -19 21 0 35 18 14 22 13 43 -11 12 -15 19 -31 16 -37z m-890 -48 c25
-7 59 -10 75 -8 18 3 28 0 24 -5 -4 -6 18 -7 58 -3 92 10 138 24 164 50 13 13
28 20 35 16 16 -10 -39 -55 -87 -71 -49 -17 -207 -17 -258 0 -66 22 -145 64
-145 78 0 8 17 2 45 -16 24 -16 65 -34 89 -41z m1116 55 c-7 -8 -9 -15 -4 -15
17 0 47 -93 45 -138 -2 -72 -40 -112 -105 -112 -37 0 -89 41 -98 78 -11 40 13
137 39 163 15 16 22 16 42 6 13 -7 22 -15 20 -19 -5 -8 31 -37 46 -38 15 0 17
47 3 56 -8 5 -9 2 -5 -9 8 -21 -6 -22 -23 -2 -10 12 -9 15 4 15 9 0 19 7 22
15 4 8 11 15 16 15 6 0 5 -6 -2 -15z m-610 -93 c28 -103 0 -157 -88 -171 -29
-4 -51 -6 -48 -4 2 2 -9 17 -25 33 -22 21 -29 38 -29 66 0 50 19 110 42 130
17 16 18 16 14 -15 -2 -17 -7 -35 -11 -39 -4 -4 -4 4 -1 18 6 19 5 21 -3 10
-17 -24 -13 -78 7 -89 15 -8 17 -4 19 27 5 104 14 119 38 68 21 -43 34 -53 46
-35 11 18 11 32 0 25 -4 -3 -16 3 -25 13 -17 18 -16 20 1 30 23 13 48 -14 63
-67z m-540 -1 c0 -3 -10 -17 -21 -31 -11 -14 -18 -20 -15 -14 3 7 -1 25 -9 40
-24 46 -19 57 15 32 17 -12 30 -24 30 -27z m631 -23 l27 -23 -38 -46 c-34 -43
-38 -45 -48 -28 -9 14 -9 25 0 44 9 21 9 28 -2 35 -7 4 -10 15 -7 24 4 9 2 16
-3 16 -6 0 -10 7 -10 15 0 14 3 14 28 1 15 -8 39 -25 53 -38z m-289 15 c-3
-16 -10 -31 -16 -35 -8 -5 -7 -8 2 -8 6 0 12 -7 12 -15 0 -23 -42 1 -62 36
-17 28 -17 29 5 29 12 0 29 5 37 10 24 15 28 12 22 -17z m633 19 c-5 -4 -10
-34 -10 -67 0 -33 -6 -73 -13 -90 l-15 -30 27 24 c21 20 26 21 26 8 0 -9 6
-16 13 -14 6 1 11 -4 9 -11 -1 -7 3 -12 10 -11 7 1 28 -2 46 -6 23 -5 32 -13
33 -29 2 -36 -2 -47 -29 -88 -20 -31 -30 -38 -46 -33 -12 3 -88 6 -169 6 -117
-1 -147 1 -141 11 6 10 5 10 -7 1 -11 -9 -122 -12 -419 -12 -384 1 -406 2
-429 20 -25 20 -42 77 -34 109 5 20 8 21 53 24 14 0 33 11 43 24 10 12 23 19
28 16 6 -3 5 -12 -3 -21 -6 -8 -13 -22 -14 -30 -4 -25 -13 -27 -57 -16 -35 10
-39 9 -24 -2 12 -8 14 -15 8 -20 -8 -4 -8 -12 -1 -26 6 -11 8 -24 5 -29 -3 -5
-1 -11 4 -14 9 -6 9 19 0 54 -3 12 9 15 71 15 108 0 112 -2 104 -39 -3 -17
-11 -34 -16 -37 -5 -3 -2 -9 8 -13 10 -4 20 -2 23 3 3 5 17 11 31 14 21 4 20
4 -8 6 -30 1 -32 3 -26 29 4 15 10 29 13 32 3 3 7 11 9 19 2 11 0 12 -11 3
-11 -9 -18 -8 -31 7 -17 18 -17 20 2 30 17 9 23 6 36 -14 9 -13 16 -29 16 -35
0 -5 7 -10 15 -10 11 0 15 -11 15 -41 0 -25 4 -38 10 -34 6 4 8 21 4 41 -5 29
-3 34 13 34 11 0 26 14 38 36 l19 36 23 -26 22 -26 19 25 c18 23 20 23 34 7
35 -40 33 -44 -20 -39 -27 2 -56 1 -63 -4 -8 -4 -19 -3 -26 3 -9 7 -13 7 -13
-1 0 -6 5 -11 11 -11 5 0 7 -5 3 -11 -5 -8 -1 -8 14 0 11 6 30 11 41 11 17 0
21 -6 21 -35 0 -33 2 -35 32 -35 27 0 33 13 7 16 -5 1 -13 2 -19 3 -5 0 -10
12 -10 26 0 24 5 27 58 25 4 0 6 -20 5 -43 l-2 -42 11 43 c7 27 17 42 27 43
21 1 106 -2 107 -4 1 -1 4 -16 7 -33 5 -28 4 -31 -17 -27 -13 3 -26 1 -29 -4
-4 -5 10 -10 29 -10 34 0 35 2 32 33 -3 41 9 55 40 43 26 -10 29 -41 5 -64
-16 -16 -15 -17 3 -13 15 3 19 12 19 41 l0 38 45 -1 c71 -3 82 -1 74 11 -4 7
-1 10 7 7 8 -3 14 -18 14 -38 0 -28 -5 -35 -25 -41 -23 -6 -22 -7 8 -8 25 -1
32 3 32 18 0 37 12 51 41 51 24 0 29 -4 29 -25 0 -21 -5 -25 -30 -25 -16 0
-30 -5 -30 -10 0 -6 13 -8 31 -5 26 5 30 3 25 -10 -3 -9 -2 -13 4 -10 6 3 10
24 10 46 0 32 4 39 19 39 16 0 30 16 35 40 1 3 6 13 12 23 10 17 11 17 28 -2
15 -16 16 -24 7 -35 -6 -8 -21 -12 -31 -9 -11 3 -20 0 -20 -6 0 -6 5 -11 10
-11 6 0 10 -11 10 -25 0 -21 -5 -25 -30 -25 -16 0 -30 -5 -30 -11 0 -7 10 -9
25 -5 14 4 25 2 25 -4 0 -14 13 -12 36 5 16 13 16 14 2 9 -15 -5 -18 0 -18 24
0 22 6 32 20 37 27 9 42 -3 35 -26 -4 -11 -2 -19 5 -19 9 0 10 11 5 36 -5 31
-4 34 8 22 8 -7 13 -21 11 -30 -2 -11 3 -18 13 -18 12 0 13 3 4 13 -6 8 -8 17
-4 20 13 13 23 7 23 -15 0 -18 2 -20 9 -8 6 8 8 18 5 22 -3 4 0 18 6 30 9 19
9 21 -2 7 -19 -22 -44 -29 -57 -16 -15 15 -14 30 2 20 6 -4 19 -8 27 -10 13
-1 12 0 -1 10 -9 7 -16 15 -15 19 3 22 -15 15 -29 -11 -8 -17 -21 -31 -28 -31
-9 0 -9 2 1 8 9 7 8 13 -8 27 -25 23 -25 37 1 61 17 16 22 16 29 4 6 -8 10
-10 10 -4 0 6 -7 17 -15 24 -8 7 -15 19 -15 27 0 8 7 21 15 29 8 9 15 19 15
24 0 5 -7 7 -15 4 -8 -4 -15 -2 -15 4 0 11 17 20 40 21 9 0 11 -2 5 -7z m-920
-12 c22 -8 24 -12 13 -24 -11 -12 -15 -12 -30 1 -17 15 -24 33 -14 33 3 0 16
-4 31 -10z m866 -11 c17 -9 18 -13 8 -26 -12 -13 -14 -13 -25 2 -12 16 -14 16
-28 2 -19 -19 -21 -34 -3 -18 11 8 19 5 37 -14 l23 -24 -24 -20 c-13 -11 -25
-15 -27 -10 -2 5 -8 9 -13 9 -6 0 -6 -7 -1 -17 10 -20 5 -43 -9 -43 -12 0 -68
62 -69 76 0 6 6 17 14 23 21 18 44 -14 28 -40 -15 -24 -4 -25 14 -1 18 23 17
42 0 42 -8 0 -18 9 -21 20 -7 22 -25 27 -25 8 0 -7 -4 -20 -10 -28 -7 -12 -12
-12 -29 4 -11 10 -18 23 -15 27 3 5 0 9 -5 9 -6 0 -11 -6 -11 -14 0 -7 -7 -19
-15 -26 -12 -10 -18 -10 -30 0 -9 7 -14 19 -11 27 3 7 -1 13 -9 13 -7 0 -17 5
-21 11 -5 8 5 9 34 4 34 -5 87 -7 185 -4 9 0 17 4 17 10 0 12 17 11 41 -2z
m-841 -89 c0 -3 -4 -12 -10 -20 -7 -12 -12 -12 -29 4 -23 21 -51 15 -51 -11 0
-13 -3 -14 -12 -5 -9 9 -9 18 1 38 10 22 14 24 27 13 12 -10 17 -10 27 1 9 10
9 11 -1 5 -8 -4 -21 0 -32 10 -16 14 -17 21 -8 38 10 20 13 19 49 -24 21 -24
38 -46 39 -49z m60 80 c0 -5 -4 -10 -9 -10 -5 0 -11 -8 -15 -17 -3 -10 -9 -25
-12 -33 -4 -10 -1 -10 9 2 13 17 15 17 32 -2 14 -16 16 -23 7 -32 -7 -7 -12
-17 -12 -22 0 -6 7 -3 14 6 12 17 14 17 31 -1 15 -17 15 -22 3 -40 -14 -19
-17 -17 -72 50 -55 68 -57 72 -40 90 18 20 64 26 64 9z m43 -51 l-21 -21 -11
21 c-9 16 -9 26 0 42 l11 21 21 -21 21 -21 -21 -21z m37 46 c-7 -8 -14 -15
-15 -15 -2 0 -5 7 -9 15 -4 10 1 15 16 15 17 0 18 -2 8 -15z m51 -44 c-15 -26
-35 -28 -28 -2 3 14 1 18 -9 14 -17 -6 -19 18 -2 35 10 10 16 8 31 -7 16 -15
17 -22 8 -40z m-291 -6 c-7 -9 -15 -13 -17 -11 -7 7 7 26 19 26 6 0 6 -6 -2
-15z m260 -24 c0 -3 -7 -15 -15 -25 -15 -19 -15 -19 -33 0 -17 17 -17 21 -4
42 14 21 16 22 33 6 11 -10 19 -20 19 -23z m86 7 c5 4 -2 -5 -15 -20 -20 -23
-26 -25 -37 -13 -16 16 -18 35 -4 35 6 0 10 8 10 18 1 15 3 14 19 -5 10 -12
22 -19 27 -15z m350 14 c9 -14 8 -23 -3 -37 -14 -19 -15 -19 -28 -1 -11 14
-11 22 -2 37 15 24 19 24 33 1z m83 -3 c7 -12 9 -24 4 -28 -13 -9 -53 -68 -53
-78 0 -4 7 1 15 11 12 16 17 17 30 6 14 -12 14 -15 -1 -31 -23 -26 -28 -24
-58 16 -22 28 -25 38 -16 55 13 24 30 26 30 5 0 -8 5 -15 10 -15 13 0 13 13
-1 27 -8 8 -7 17 3 32 16 26 20 26 37 0z m-725 -47 c15 -18 15 -20 -2 -36 -16
-13 -21 -14 -30 -3 -11 13 -6 57 8 57 4 0 14 -8 24 -18z m86 -22 c0 -3 -9 -11
-19 -17 -16 -10 -22 -9 -32 3 -9 11 -8 18 7 35 17 19 19 19 31 3 7 -10 13 -20
13 -24z m145 -20 c-18 -20 -18 -20 -32 0 -11 15 -11 24 -2 41 l11 21 21 -20
c20 -21 20 -22 2 -42z m103 15 c24 -34 36 -43 53 -40 13 3 26 0 30 -6 4 -7 12
-5 22 5 20 20 31 20 47 1 7 -8 20 -15 29 -14 10 0 12 2 3 6 -6 2 -10 9 -6 14
3 5 2 8 -3 7 -16 -6 -16 7 -1 35 l14 28 29 -40 c15 -23 25 -45 21 -48 -12 -12
-155 -13 -162 -2 -4 8 -9 7 -15 -2 -7 -11 -9 -11 -9 1 0 13 -1 13 -10 0 -7
-10 -10 -11 -10 -2 0 10 -4 10 -19 0 -17 -10 -24 -9 -41 7 -33 30 -42 52 -30
75 15 29 22 26 58 -25z m268 27 c9 -14 8 -22 -2 -37 -13 -17 -16 -18 -30 -3
-13 13 -14 19 -2 37 16 26 20 26 34 3z m160 4 c3 -8 0 -24 -6 -36 -11 -20 -14
-21 -27 -7 -12 11 -13 19 -4 36 13 24 29 27 37 7z m-805 -44 c18 -21 36 -50
24 -40 -4 4 -14 3 -20 -2 -8 -7 -21 -7 -36 -1 -13 5 -19 10 -12 10 7 1 10 8 6
18 -4 11 -3 14 5 9 8 -5 10 -2 6 8 -8 22 8 20 27 -2z m849 -36 c-15 -19 -36
-21 -43 -3 -4 9 -8 8 -16 -3 -5 -8 -13 -12 -16 -9 -3 4 7 20 22 38 27 31 28
31 47 12 16 -17 17 -23 6 -35z m-690 29 c16 -19 6 -45 -19 -45 -23 0 -35 28
-20 46 15 18 24 18 39 -1z m530 -5 c13 -24 5 -40 -20 -40 -22 0 -34 28 -19 46
16 19 26 17 39 -6z"/>
<path d="M1733 4273 c9 -2 23 -2 30 0 6 3 -1 5 -18 5 -16 0 -22 -2 -12 -5z"/>
<path d="M1804 4264 c6 -7 14 -10 18 -7 4 2 73 4 153 4 79 0 147 4 150 9 3 4
-71 7 -163 7 -126 -2 -165 -5 -158 -13z"/>
<path d="M1758 4253 c6 -2 18 -2 25 0 6 3 1 5 -13 5 -14 0 -19 -2 -12 -5z"/>
<path d="M1408 4236 c-25 -6 -50 -15 -55 -19 -4 -5 3 -6 17 -3 14 3 35 8 48 9
12 2 28 9 34 15 7 7 10 11 8 11 -3 -1 -26 -6 -52 -13z"/>
<path d="M1470 4240 c0 -11 14 -11 50 0 22 7 21 8 -12 9 -21 1 -38 -3 -38 -9z"/>
<path d="M1558 4243 c6 -2 18 -2 25 0 6 3 1 5 -13 5 -14 0 -19 -2 -12 -5z"/>
<path d="M1940 4210 c0 -5 5 -10 10 -10 6 0 10 5 10 10 0 6 -4 10 -10 10 -5 0
-10 -4 -10 -10z"/>
<path d="M1308 4203 c7 -3 16 -2 19 1 4 3 -2 6 -13 5 -11 0 -14 -3 -6 -6z"/>
<path d="M1440 4169 c0 -5 5 -7 10 -4 6 3 10 8 10 11 0 2 -4 4 -10 4 -5 0 -10
-5 -10 -11z"/>
<path d="M1850 4140 c0 -5 5 -10 11 -10 5 0 7 5 4 10 -3 6 -8 10 -11 10 -2 0
-4 -4 -4 -10z"/>
<path d="M2028 4133 c6 -2 18 -2 25 0 6 3 1 5 -13 5 -14 0 -19 -2 -12 -5z"/>
<path d="M2058 4009 c-23 -24 -34 -29 -63 -26 -19 2 -33 1 -31 -2 6 -9 -127
-7 -141 2 -7 5 -17 6 -22 2 -5 -3 -12 -1 -16 5 -4 6 -10 8 -15 5 -5 -3 -11 4
-15 15 -8 25 -28 27 -23 3 6 -33 75 -57 163 -57 107 -1 171 18 191 55 19 37 7
36 -28 -2z"/>
<path d="M1660 3952 c0 -12 -38 -27 -58 -23 -7 1 -11 -4 -10 -11 2 -8 -5 -12
-17 -11 -11 1 -50 3 -87 5 -38 1 -68 5 -68 9 0 4 -8 10 -17 13 -15 6 -15 5 1
-12 21 -24 88 -44 136 -41 58 4 146 57 126 76 -3 3 -6 1 -6 -5z"/>
<path d="M1750 3956 c0 -12 70 -49 112 -60 56 -14 80 -10 163 30 47 22 45 35
-2 19 -69 -23 -139 -25 -208 -5 -36 10 -65 18 -65 16z"/>
<path d="M2270 4270 c-24 -8 -23 -8 8 -9 17 -1 32 4 32 9 0 11 -5 11 -40 0z"/>
<path d="M2387 4249 c7 -7 15 -10 18 -7 3 3 -2 9 -12 12 -14 6 -15 5 -6 -5z"/>
<path d="M2586 4249 c3 -5 -1 -9 -8 -9 -8 0 -6 -5 5 -11 10 -6 23 -8 30 -5 7
2 3 5 -8 6 -20 1 -20 2 -1 9 19 7 19 8 -2 13 -12 4 -20 2 -16 -3z"/>
<path d="M2640 4226 c0 -9 6 -16 13 -17 74 -3 141 -18 204 -45 37 -17 43 -17
43 -4 0 14 -63 38 -118 45 -26 3 -51 10 -56 15 -5 5 -18 5 -32 0 -17 -7 -28
-5 -39 6 -13 14 -15 14 -15 0z"/>
<path d="M2670 4160 c0 -5 5 -10 10 -10 6 0 10 5 10 10 0 6 -4 10 -10 10 -5 0
-10 -4 -10 -10z"/>
<path d="M2571 4134 c0 -11 3 -14 6 -6 3 7 2 16 -1 19 -3 4 -6 -2 -5 -13z"/>
<path d="M2647 4133 c-4 -3 -7 -11 -7 -17 0 -6 5 -5 12 2 6 6 9 14 7 17 -3 3
-9 2 -12 -2z"/>
<path d="M2703 4115 c-7 -8 -9 -16 -4 -19 5 -3 12 1 15 10 8 22 4 25 -11 9z"/>
<path d="M2535 4100 c-3 -5 -1 -10 4 -10 6 0 11 5 11 10 0 6 -2 10 -4 10 -3 0
-8 -4 -11 -10z"/>
<path d="M2859 3881 c26 -23 44 -31 73 -31 51 0 49 15 -3 17 -22 0 -48 8 -57
16 -35 29 -46 29 -13 -2z"/>
<path d="M2427 3773 c-4 -3 -7 -16 -6 -27 0 -19 1 -19 10 3 10 24 8 36 -4 24z"/>
<path d="M1810 3740 c0 -5 5 -10 10 -10 6 0 10 5 10 10 0 6 -4 10 -10 10 -5 0
-10 -4 -10 -10z"/>
<path d="M1962 3691 c-6 -18 -7 -29 -2 -26 6 4 10 14 10 23 1 14 4 13 19 -5
11 -13 27 -23 38 -23 17 1 16 1 -2 12 -11 6 -27 20 -36 31 -16 19 -16 19 -27
-12z"/>
<path d="M2050 3704 c0 -8 5 -12 10 -9 6 4 8 11 5 16 -9 14 -15 11 -15 -7z"/>
<path d="M1840 3678 c0 -10 -5 -15 -13 -12 -8 3 -14 -2 -14 -11 0 -18 7 -19
29 -2 11 9 14 18 7 28 -7 12 -9 11 -9 -3z"/>
<path d="M2400 3650 c0 -19 3 -21 12 -12 9 9 9 15 0 24 -9 9 -12 7 -12 -12z"/>
<path d="M1870 3640 c0 -19 3 -21 12 -12 9 9 9 15 0 24 -9 9 -12 7 -12 -12z"/>
<path d="M2380 3590 c0 -5 10 -10 23 -10 18 0 19 2 7 10 -19 13 -30 13 -30 0z"/>
<path d="M1966 3567 c3 -10 9 -15 12 -12 3 3 0 11 -7 18 -10 9 -11 8 -5 -6z"/>
<path d="M2412 3548 c-7 -7 -12 -16 -12 -21 0 -5 8 -1 17 9 11 11 18 13 21 5
2 -6 8 -11 14 -11 6 0 6 6 -2 15 -15 18 -22 19 -38 3z"/>
<path d="M2473 3536 c1 -17 9 -31 17 -33 10 -3 11 -2 4 4 -7 4 -14 19 -17 33
-4 22 -5 21 -4 -4z"/>
<path d="M2521 3514 c0 -11 3 -14 6 -6 3 7 2 16 -1 19 -3 4 -6 -2 -5 -13z"/>
<path d="M2012 3450 c0 -14 2 -19 5 -12 2 6 2 18 0 25 -3 6 -5 1 -5 -13z"/>
<path d="M2254 3463 c4 -7 1 -23 -6 -35 -12 -23 -14 -29 -17 -49 0 -5 -5 -8
-10 -5 -4 3 -6 -6 -3 -20 3 -15 0 -29 -5 -33 -12 -7 -34 -91 -24 -91 3 0 23
50 44 111 30 86 35 114 26 123 -9 8 -10 8 -5 -1z"/>
<path d="M2277 3383 c3 -7 6 -13 8 -13 2 0 5 6 8 13 3 8 -1 14 -8 14 -7 0 -11
-6 -8 -14z"/>
<path d="M2346 3268 c3 -5 10 -6 15 -3 13 9 11 12 -6 12 -8 0 -12 -4 -9 -9z"/>
<path d="M2166 3255 c-9 -26 -7 -32 5 -12 6 10 9 21 6 23 -2 3 -7 -2 -11 -11z"/>
<path d="M2241 3244 c0 -11 3 -14 6 -6 3 7 2 16 -1 19 -3 4 -6 -2 -5 -13z"/>
<path d="M1070 4209 c0 -5 5 -7 10 -4 6 3 10 8 10 11 0 2 -4 4 -10 4 -5 0 -10
-5 -10 -11z"/>
<path d="M1156 4211 c-4 -5 0 -12 6 -15 7 -4 3 -4 -9 -2 -15 3 -20 0 -16 -10
3 -8 9 -14 13 -14 11 0 34 30 24 30 -5 0 -2 5 6 10 13 8 13 10 -2 10 -9 0 -19
-4 -22 -9z"/>
<path d="M1098 4191 c-1 -6 -21 -12 -43 -15 -22 -2 -53 -9 -68 -15 -16 -6 -36
-11 -45 -11 -12 0 -13 -3 -4 -12 8 -8 22 -7 55 6 25 9 64 19 88 22 52 6 54 8
35 23 -9 8 -15 8 -18 2z"/>
<path d="M1011 4094 c0 -11 3 -14 6 -6 3 7 2 16 -1 19 -3 4 -6 -2 -5 -13z"/>
<path d="M832 4117 c-6 -7 -7 -19 -3 -26 6 -9 10 -5 13 13 6 30 5 31 -10 13z"/>
<path d="M836 4032 c-6 -10 31 -48 38 -41 2 2 -4 14 -14 27 -10 12 -21 18 -24
14z"/>
<path d="M670 3976 c0 -8 4 -17 9 -20 5 -4 7 3 4 14 -6 23 -13 26 -13 6z"/>
<path d="M760 3850 l-35 -7 32 -2 c17 0 35 4 38 9 3 6 5 9 3 9 -2 -1 -19 -5
-38 -9z"/>
<path d="M935 3660 c3 -5 8 -10 11 -10 2 0 4 5 4 10 0 6 -5 10 -11 10 -5 0 -7
-4 -4 -10z"/>
<path d="M905 3641 c-5 -9 -2 -17 9 -23 24 -14 62 -51 69 -68 4 -11 6 -11 6
-1 1 15 -44 72 -56 71 -4 -1 -10 6 -13 16 -5 14 -8 15 -15 5z"/>
<path d="M1000 3552 c0 -5 9 -17 20 -27 11 -10 20 -24 20 -32 0 -20 17 -16 23
6 3 12 -1 18 -12 17 -9 0 -15 4 -14 10 1 5 -7 15 -18 22 -10 7 -19 8 -19 4z"/>
<path d="M1152 3378 c-7 -7 -12 -17 -12 -22 0 -6 5 -3 11 7 6 9 15 14 21 11 7
-4 8 -2 4 4 -9 15 -9 15 -24 0z"/>
<path d="M1220 3290 c0 -5 5 -10 11 -10 5 0 7 5 4 10 -3 6 -8 10 -11 10 -2 0
-4 -4 -4 -10z"/>
<path d="M1314 3235 c-3 -8 -4 -20 -2 -27 3 -7 7 -1 10 15 6 29 1 36 -8 12z"/>
<path d="M1335 3190 c3 -5 8 -10 11 -10 2 0 4 5 4 10 0 6 -5 10 -11 10 -5 0
-7 -4 -4 -10z"/>
<path d="M3184 4056 c16 -7 35 -24 42 -37 10 -19 13 -20 14 -6 0 24 -36 57
-62 56 -21 -1 -20 -2 6 -13z"/>
<path d="M3207 3991 c-4 -17 -3 -21 5 -13 5 5 8 16 6 23 -3 8 -7 3 -11 -10z"/>
<path d="M3064 3901 c4 -6 1 -11 -6 -12 -7 0 -4 -4 7 -9 27 -12 98 -12 91 -1
-3 5 -15 7 -26 4 -11 -3 -32 2 -46 12 -15 9 -23 12 -20 6z"/>
<path d="M3040 3854 c0 -11 4 -35 10 -54 12 -41 1 -56 -29 -41 -13 7 -18 18
-15 29 4 14 3 13 -7 -2 -10 -16 -9 -21 7 -33 39 -28 79 -7 64 33 -5 13 -6 24
-3 24 4 0 2 5 -5 12 -21 21 -13 27 17 17 21 -7 36 -7 48 0 16 9 14 11 -12 12
-16 1 -34 1 -39 0 -4 -1 -14 4 -22 10 -11 9 -14 8 -14 -7z"/>
<path d="M3085 3780 c3 -5 8 -10 11 -10 2 0 4 5 4 10 0 6 -5 10 -11 10 -5 0
-7 -4 -4 -10z"/>
<path d="M2966 3695 c-9 -26 -7 -32 5 -12 6 10 9 21 6 23 -2 3 -7 -2 -11 -11z"/>
<path d="M2905 3610 c-3 -5 -2 -10 4 -10 5 0 13 5 16 10 3 6 2 10 -4 10 -5 0
-13 -4 -16 -10z"/>
<path d="M2865 3570 c3 -5 8 -10 11 -10 2 0 4 5 4 10 0 6 -5 10 -11 10 -5 0
-7 -4 -4 -10z"/>
<path d="M2760 3550 c-9 -6 -10 -10 -3 -10 6 0 15 5 18 10 8 12 4 12 -15 0z"/>
<path d="M2595 3350 c-3 -5 -1 -10 4 -10 6 0 11 5 11 10 0 6 -2 10 -4 10 -3 0
-8 -4 -11 -10z"/>
<path d="M1963 3174 c10 -10 87 -14 87 -4 0 6 -21 10 -47 10 -25 0 -44 -3 -40
-6z"/>
<path d="M2075 3164 c8 -6 12 -14 8 -17 -3 -4 1 -7 11 -7 9 0 14 5 11 10 -8
13 23 12 145 0 142 -15 160 -20 160 -40 0 -10 -6 -20 -12 -23 -10 -3 -10 -7
-1 -17 9 -10 14 -3 24 34 6 25 15 49 20 51 4 3 34 -3 66 -14 32 -11 59 -18 61
-16 6 6 -30 21 -81 35 -43 12 -49 11 -61 -5 -11 -16 -19 -16 -86 -5 -111 19
-284 28 -265 14z"/>
<path d="M1546 3150 c-17 -6 -18 -7 -3 -13 9 -3 19 -2 23 4 9 15 2 18 -20 9z"/>
<path d="M1460 3117 c0 -14 5 -29 10 -32 7 -4 8 3 4 22 -9 38 -14 42 -14 10z"/>
<path d="M1415 3110 c3 -5 8 -10 11 -10 2 0 4 5 4 10 0 6 -5 10 -11 10 -5 0
-7 -4 -4 -10z"/>
<path d="M2165 3110 c-3 -5 -1 -10 4 -10 6 0 11 5 11 10 0 6 -2 10 -4 10 -3 0
-8 -4 -11 -10z"/>
<path d="M1857 3103 c-4 -3 -7 -11 -7 -17 0 -6 5 -5 12 2 6 6 9 14 7 17 -3 3
-9 2 -12 -2z"/>
<path d="M2030 3096 c0 -9 5 -16 10 -16 6 0 10 4 10 9 0 6 -4 13 -10 16 -5 3
-10 -1 -10 -9z"/>
<path d="M1370 3075 c0 -18 19 -40 26 -32 4 4 0 15 -9 24 -9 10 -17 13 -17 8z"/>
<path d="M2295 3070 c3 -5 8 -10 11 -10 2 0 4 5 4 10 0 6 -5 10 -11 10 -5 0
-7 -4 -4 -10z"/>
<path d="M1434 3040 c1 -30 10 -38 21 -20 3 5 0 19 -8 30 -14 19 -14 19 -13
-10z"/>
<path d="M1486 3045 c8 -37 14 -45 14 -19 0 10 -5 26 -10 34 -8 11 -9 7 -4
-15z"/>
<path d="M2379 3048 c-2 -7 -7 -89 -5 -86 2 2 10 22 19 46 15 36 15 42 2 42
-8 0 -15 -1 -16 -2z"/>
<path d="M1411 3000 c0 -8 6 -24 14 -34 19 -25 19 -9 0 24 -8 14 -14 19 -14
10z"/>
<path d="M1461 2994 c0 -11 3 -14 6 -6 3 7 2 16 -1 19 -3 4 -6 -2 -5 -13z"/>
<path d="M1587 2995 c3 -8 9 -12 14 -9 12 7 11 11 -5 17 -10 4 -13 1 -9 -8z"/>
<path d="M1675 2980 c12 -41 27 -60 20 -25 -4 17 -11 35 -17 40 -7 7 -8 2 -3
-15z"/>
<path d="M1515 2980 c-3 -5 -1 -18 5 -29 14 -28 13 -41 -7 -41 -9 0 -14 -2
-12 -5 6 -5 172 24 179 32 5 5 -75 -4 -115 -13 -14 -3 -23 3 -32 22 -7 15 -10
31 -7 35 3 5 3 9 0 9 -3 0 -8 -4 -11 -10z"/>
<path d="M2416 2973 c-6 -14 -5 -15 5 -6 7 7 10 15 7 18 -3 3 -9 -2 -12 -12z"/>
<path d="M1475 2961 c-3 -5 -1 -12 5 -16 5 -3 10 1 10 9 0 18 -6 21 -15 7z"/>
<path d="M1794 2949 l-89 -6 112 0 c62 1 118 4 125 9 8 4 -2 7 -23 5 -20 -1
-76 -5 -125 -8z"/>
<path d="M1995 2949 c-30 -8 -30 -8 5 -5 31 3 120 -3 285 -18 37 -4 43 -3 23
4 -15 4 -67 11 -115 14 -49 4 -106 8 -128 10 -22 2 -53 0 -70 -5z"/>
<path d="M2357 2936 c-4 -10 -5 -21 -2 -24 9 -9 17 6 13 25 -3 17 -4 17 -11
-1z"/>
<path d="M1455 2890 c-8 -13 5 -13 25 0 13 8 13 10 -2 10 -9 0 -20 -4 -23 -10z"/>
<path d="M1945 2859 c-4 -6 -5 -12 -2 -15 2 -3 7 2 10 11 7 17 1 20 -8 4z"/>
<path d="M2246 2841 c-6 -9 -44 -17 -146 -30 l-65 -9 75 3 c85 3 173 22 164
36 -7 11 -21 12 -28 0z"/>
<path d="M2342 2830 c0 -14 2 -19 5 -12 2 6 2 18 0 25 -3 6 -5 1 -5 -13z"/>
<path d="M2988 2833 c7 -3 16 -2 19 1 4 3 -2 6 -13 5 -11 0 -14 -3 -6 -6z"/>
<path d="M1204 2314 c-18 -14 -18 -15 4 -4 12 6 22 13 22 15 0 8 -5 6 -26 -11z"/>
<path d="M2320 2276 c0 -8 5 -18 10 -21 18 -11 11 -43 -10 -47 -12 -2 -17 -7
-12 -15 5 -8 13 -7 30 6 22 16 22 18 7 54 -16 39 -25 47 -25 23z"/>
<path d="M1100 2220 c-35 -7 -35 -7 -5 -9 17 0 37 4 45 9 17 11 11 11 -40 0z"/>
<path d="M1690 2210 c0 -5 5 -10 10 -10 6 0 10 5 10 10 0 6 -4 10 -10 10 -5 0
-10 -4 -10 -10z"/>
<path d="M1581 2193 c-1 -7 -12 -29 -26 -49 -19 -28 -25 -32 -26 -18 -1 10 0
24 1 29 1 6 -1 7 -5 3 -4 -4 -8 -33 -9 -65 -1 -32 -5 -65 -9 -74 -6 -12 4 -19
53 -34 33 -10 63 -15 67 -12 3 4 -1 7 -10 7 -26 0 -66 22 -71 39 -2 9 -8 27
-11 40 -5 18 -4 22 6 16 9 -6 11 -3 5 10 -4 12 2 31 20 56 14 21 24 44 21 51
-4 9 -6 9 -6 1z"/>
<path d="M1765 2174 c21 -23 30 -48 27 -76 -1 -3 6 -12 14 -19 13 -11 14 -9 8
17 -9 37 -34 87 -48 96 -24 16 -24 7 -1 -18z"/>
<path d="M968 2183 c12 -2 32 -2 45 0 12 2 2 4 -23 4 -25 0 -35 -2 -22 -4z"/>
<path d="M1045 2126 c0 -36 4 -68 9 -73 5 -4 5 2 2 15 -6 17 -3 22 9 22 11 0
15 -5 11 -16 -3 -8 -2 -12 3 -9 5 3 12 1 16 -5 8 -13 25 -13 25 1 0 5 -4 7
-10 4 -5 -3 -15 5 -22 20 -10 22 -8 28 10 48 27 29 28 37 3 37 -11 0 -23 5
-26 10 -3 6 -12 10 -18 10 -8 0 -12 -21 -12 -64z m40 24 c-3 -5 -10 -10 -16
-10 -5 0 -9 5 -9 10 0 6 7 10 16 10 8 0 12 -4 9 -10z"/>
<path d="M1606 2169 c8 -13 114 -22 137 -12 18 8 13 10 -28 10 -27 0 -64 2
-82 5 -17 2 -30 1 -27 -3z"/>
<path d="M2433 2090 c0 -30 2 -43 4 -27 2 15 2 39 0 55 -2 15 -4 2 -4 -28z"/>
<path d="M1310 2063 c0 -6 -6 -11 -12 -10 -29 1 -48 -4 -48 -11 0 -5 14 -7 30
-4 30 4 47 18 36 29 -3 4 -6 2 -6 -4z"/>
<path d="M1565 2060 c-3 -5 -2 -10 4 -10 5 0 13 5 16 10 3 6 2 10 -4 10 -5 0
-13 -4 -16 -10z"/>
<path d="M2320 2049 c0 -5 5 -7 10 -4 6 3 10 8 10 11 0 2 -4 4 -10 4 -5 0 -10
-5 -10 -11z"/>
<path d="M2460 2039 c-23 -19 -23 -19 -2 -9 12 6 26 9 31 6 4 -3 8 1 8 9 0 20
-7 19 -37 -6z"/>
<path d="M1137 2038 c6 -10 35 -10 51 0 8 5 -1 8 -22 8 -19 -1 -32 -4 -29 -8z"/>
<path d="M1567 2029 c7 -7 15 -10 18 -7 3 3 -2 9 -12 12 -14 6 -15 5 -6 -5z"/>
<path d="M1815 2030 c-3 -5 1 -10 9 -10 9 0 16 5 16 10 0 6 -4 10 -9 10 -6 0
-13 -4 -16 -10z"/>
<path d="M2530 2010 c0 -6 7 -10 15 -10 8 0 15 2 15 4 0 2 -7 6 -15 10 -8 3
-15 1 -15 -4z"/>
<path d="M2448 1983 c7 -3 16 -2 19 1 4 3 -2 6 -13 5 -11 0 -14 -3 -6 -6z"/>
<path d="M3046 4043 c-6 -14 -5 -15 5 -6 7 7 10 15 7 18 -3 3 -9 -2 -12 -12z"/>
<path d="M1545 3630 c3 -5 8 -10 11 -10 2 0 4 5 4 10 0 6 -5 10 -11 10 -5 0
-7 -4 -4 -10z"/>
<path d="M1805 3330 c-3 -5 -1 -10 4 -10 6 0 11 5 11 10 0 6 -2 10 -4 10 -3 0
-8 -4 -11 -10z"/>
<path d="M1710 3321 c0 -6 4 -13 10 -16 6 -3 7 1 4 9 -7 18 -14 21 -14 7z"/>
<path d="M1771 3254 c0 -11 3 -14 6 -6 3 7 2 16 -1 19 -3 4 -6 -2 -5 -13z"/>
<path d="M1090 3835 c0 -6 9 -23 19 -39 11 -17 18 -33 15 -37 -2 -4 3 -10 12
-13 8 -3 12 -11 9 -16 -4 -6 -2 -9 3 -8 6 2 10 -1 10 -5 1 -5 8 -15 18 -21 10
-8 15 -20 11 -29 -4 -10 -2 -14 6 -11 15 5 60 -69 49 -81 -4 -5 -2 -5 5 -1 7
4 16 -1 21 -11 10 -22 10 -33 -3 -53 -7 -12 -6 -13 6 -3 25 20 61 -11 54 -45
-4 -21 -3 -22 3 -8 8 19 9 19 17 0 4 -10 7 -23 6 -27 -1 -5 3 -6 9 -2 9 5 14
-7 11 -27 0 -4 8 -12 19 -18 11 -6 20 -16 20 -22 0 -6 17 -29 38 -52 20 -23
50 -57 65 -76 31 -38 26 -24 -10 29 -12 18 -20 38 -16 44 3 6 1 7 -5 3 -6 -4
-18 5 -28 19 -9 13 -21 22 -27 18 -5 -3 -7 -1 -3 5 3 6 -16 41 -44 79 -92 125
-100 137 -186 268 -90 136 -104 155 -104 140z"/>
<path d="M1421 3734 c0 -11 3 -14 6 -6 3 7 2 16 -1 19 -3 4 -6 -2 -5 -13z"/>
<path d="M1070 3670 c0 -5 5 -10 11 -10 5 0 7 5 4 10 -3 6 -8 10 -11 10 -2 0
-4 -4 -4 -10z"/>
<path d="M1436 3645 c9 -14 21 -22 27 -18 8 5 7 8 -1 11 -7 2 -12 10 -12 18 0
8 -7 14 -15 14 -14 0 -13 -3 1 -25z"/>
<path d="M1395 3650 c3 -5 8 -10 11 -10 2 0 4 5 4 10 0 6 -5 10 -11 10 -5 0
-7 -4 -4 -10z"/>
<path d="M1340 3621 c0 -6 4 -12 8 -15 5 -3 9 1 9 9 0 8 -4 15 -9 15 -4 0 -8
-4 -8 -9z"/>
<path d="M1415 3599 c-4 -6 -5 -12 -2 -15 2 -3 7 2 10 11 7 17 1 20 -8 4z"/>
<path d="M1310 3585 c0 -8 4 -15 10 -15 5 0 7 7 4 15 -4 8 -8 15 -10 15 -2 0
-4 -7 -4 -15z"/>
<path d="M1178 3573 c7 -3 16 -2 19 1 4 3 -2 6 -13 5 -11 0 -14 -3 -6 -6z"/>
<path d="M1460 3571 c0 -5 9 -7 20 -4 11 3 20 7 20 9 0 2 -9 4 -20 4 -11 0
-20 -4 -20 -9z"/>
<path d="M1410 3549 c0 -5 5 -7 10 -4 6 3 10 8 10 11 0 2 -4 4 -10 4 -5 0 -10
-5 -10 -11z"/>
<path d="M1558 3313 c6 -2 18 -2 25 0 6 3 1 5 -13 5 -14 0 -19 -2 -12 -5z"/>
<path d="M1526 3263 c-6 -14 -5 -15 5 -6 7 7 10 15 7 18 -3 3 -9 -2 -12 -12z"/>
<path d="M1645 3270 c3 -5 8 -10 11 -10 2 0 4 5 4 10 0 6 -5 10 -11 10 -5 0
-7 -4 -4 -10z"/>
<path d="M1660 2810 c0 -5 7 -7 15 -4 8 4 15 8 15 10 0 2 -7 4 -15 4 -8 0 -15
-4 -15 -10z"/>
<path d="M1713 2813 c9 -2 23 -2 30 0 6 3 -1 5 -18 5 -16 0 -22 -2 -12 -5z"/>
<path d="M1793 2803 c9 -2 23 -2 30 0 6 3 -1 5 -18 5 -16 0 -22 -2 -12 -5z"/>
<path d="M1936 2774 c-8 -22 -8 -24 7 -24 7 0 13 9 14 20 2 24 -12 27 -21 4z"/>
<path d="M1918 2732 c-41 -4 -58 -27 -25 -36 12 -3 26 -1 32 5 7 7 4 8 -10 4
-15 -5 -17 -5 -6 3 10 7 21 7 33 1 10 -5 18 -7 18 -3 0 3 6 2 13 -4 8 -7 18
-6 31 4 19 13 19 14 -5 14 -14 0 -29 3 -34 8 -6 4 -26 6 -47 4z"/>
<path d="M2100 2654 c-44 -32 -43 -31 -20 -29 12 1 33 13 48 28 33 33 19 34
-28 1z"/>
<path d="M2210 2650 c8 -5 2 -10 -17 -15 -15 -5 -32 -7 -36 -6 -5 1 -6 -3 -2
-8 3 -6 21 -4 47 5 23 8 51 11 62 7 12 -4 27 -6 34 -5 6 2 12 -4 12 -13 0 -8
7 -15 15 -15 20 0 9 21 -22 44 -14 11 -23 14 -19 8 8 -13 -6 -16 -18 -5 -4 4
-21 8 -38 9 -17 1 -25 -1 -18 -6z"/>
<path d="M2030 2576 c0 -31 6 -34 13 -6 3 11 1 23 -4 26 -5 3 -9 -6 -9 -20z"/>
<path d="M2096 2492 c-9 -14 6 -52 19 -52 16 0 29 35 20 50 -7 12 -32 13 -39
2z"/>
<path d="M2209 2473 c4 -16 16 -30 27 -32 10 -2 16 0 12 4 -4 5 -3 14 3 21 15
18 3 34 -26 34 -21 0 -22 -3 -16 -27z"/>
<path d="M2165 2440 c3 -5 8 -10 11 -10 2 0 4 5 4 10 0 6 -5 10 -11 10 -5 0
-7 -4 -4 -10z"/>
<path d="M2147 2398 c-7 -5 0 -8 16 -8 15 0 30 0 34 -1 4 0 9 3 10 8 4 10 -45
11 -60 1z"/>
<path d="M2150 2376 c0 -2 7 -6 15 -10 8 -3 15 -1 15 4 0 6 -7 10 -15 10 -8 0
-15 -2 -15 -4z"/>
<path d="M1750 2570 c0 -5 5 -10 11 -10 5 0 7 5 4 10 -3 6 -8 10 -11 10 -2 0
-4 -4 -4 -10z"/>
<path d="M1521 2536 l-23 -25 21 -27 c11 -15 21 -25 22 -23 7 32 4 49 -7 45
-7 -3 -16 -1 -19 4 -4 6 5 10 18 10 14 0 31 8 38 18 11 14 11 15 -1 5 -8 -7
-20 -13 -28 -13 -12 0 -12 3 -2 15 20 24 6 17 -19 -9z"/>
<path d="M1786 2525 c20 -30 24 -31 17 -6 -3 11 -11 22 -19 25 -11 4 -11 0 2
-19z"/>
<path d="M1655 2520 c6 -10 4 -12 -11 -6 -15 6 -17 5 -6 -5 9 -9 15 -10 23 -2
8 8 7 13 -2 18 -8 6 -10 4 -4 -5z"/>
<path d="M1735 2441 c-7 -24 4 -51 21 -51 17 0 19 27 2 33 -8 3 -6 6 5 6 21 1
22 17 1 25 -22 8 -22 8 -29 -13z"/>
<path d="M1690 2361 c0 -5 12 -8 26 -8 18 0 22 2 13 8 -18 11 -39 11 -39 0z"/>
<path d="M1690 2330 c0 -5 5 -10 11 -10 5 0 7 5 4 10 -3 6 -8 10 -11 10 -2 0
-4 -4 -4 -10z"/>
<path d="M1417 2297 l-17 -32 20 24 c17 20 26 41 18 41 -2 0 -11 -15 -21 -33z"/>
<path d="M2045 2206 c8 -24 11 -46 8 -49 -3 -3 0 -14 6 -24 9 -15 10 -13 11
16 0 37 -19 101 -31 101 -4 0 -1 -20 6 -44z"/>
<path d="M1990 2196 c0 -9 5 -16 10 -16 6 0 10 4 10 9 0 6 -4 13 -10 16 -5 3
-10 -1 -10 -9z"/>
<path d="M2075 2074 c8 -19 24 -47 36 -62 24 -30 24 -28 -11 45 -28 59 -49 73
-25 17z"/>
<path d="M1997 1973 c-4 -3 -7 -11 -7 -17 0 -7 3 -7 8 1 4 6 21 13 37 16 l30
4 -31 2 c-17 0 -34 -2 -37 -6z"/>
<path d="M2630 1907 c0 -11 -10 -20 -30 -23 -29 -6 -36 -14 -24 -27 4 -3 13 0
21 8 16 17 37 20 28 5 -3 -5 -1 -10 4 -10 6 0 11 7 11 16 0 8 4 13 9 10 5 -3
15 2 22 11 12 15 12 16 -5 10 -12 -5 -23 -3 -28 5 -6 10 -8 8 -8 -5z"/>
<path d="M2551 1883 c0 -6 -4 -20 -7 -30 -5 -14 -4 -15 5 -7 7 7 11 20 8 30
-3 11 -5 14 -6 7z"/>
<path d="M2511 1871 c-25 -7 -42 -31 -21 -31 6 0 8 5 5 10 -3 6 3 10 14 10 11
0 23 5 26 10 3 6 5 10 3 9 -2 -1 -14 -4 -27 -8z"/>
<path d="M2380 1855 c0 -12 5 -13 18 -7 9 5 24 12 32 15 8 3 0 6 -17 6 -23 1
-33 -4 -33 -14z"/>
<path d="M1224 1905 c11 -8 22 -12 25 -9 6 6 -19 24 -34 24 -5 -1 -1 -7 9 -15z"/>
<path d="M1400 1876 c0 -9 30 -14 35 -6 4 6 -3 10 -14 10 -12 0 -21 -2 -21 -4z"/>
<path d="M1490 1876 c0 -2 14 -6 30 -8 17 -3 30 -1 30 4 0 4 -13 8 -30 8 -16
0 -30 -2 -30 -4z"/>
<path d="M1600 1866 c0 -2 7 -7 16 -10 8 -3 12 -2 9 4 -6 10 -25 14 -25 6z"/>
<path d="M1728 1843 c6 -2 18 -2 25 0 6 3 1 5 -13 5 -14 0 -19 -2 -12 -5z"/>
<path d="M1338 1353 c6 -2 18 -2 25 0 6 3 1 5 -13 5 -14 0 -19 -2 -12 -5z"/>
<path d="M2485 1650 c4 -6 11 -8 16 -5 14 9 11 15 -7 15 -8 0 -12 -5 -9 -10z"/>
<path d="M2529 1533 c-11 -28 -2 -83 14 -86 5 -1 10 24 12 56 4 61 -9 75 -26
30z m8 -35 c-3 -8 -6 -5 -6 6 -1 11 2 17 5 13 3 -3 4 -12 1 -19z"/>
<path d="M2525 1380 c3 -5 8 -10 11 -10 2 0 4 5 4 10 0 6 -5 10 -11 10 -5 0
-7 -4 -4 -10z"/>
<path d="M2608 1373 c6 -2 18 -2 25 0 6 3 1 5 -13 5 -14 0 -19 -2 -12 -5z"/>
<path d="M1980 1556 c0 -2 7 -7 16 -10 8 -3 12 -2 9 4 -6 10 -25 14 -25 6z"/>
<path d="M1900 1384 c0 -34 70 -46 105 -17 l20 16 -20 -8 c-47 -18 -78 -18
-92 1 -7 10 -13 13 -13 8z"/>
<path d="M2105 1481 c-3 -6 -12 -8 -18 -5 -8 5 -8 3 1 -7 9 -10 15 -10 24 -1
6 6 9 14 6 17 -3 4 -9 1 -13 -4z"/>
<path d="M2105 1441 c-3 -5 -1 -12 5 -16 5 -3 10 1 10 9 0 18 -6 21 -15 7z"/>
<path d="M1816 1484 c-8 -22 -4 -25 11 -9 7 8 9 16 4 19 -5 3 -12 -1 -15 -10z"/>
<path d="M2555 1300 c3 -5 11 -10 16 -10 6 0 7 5 4 10 -3 6 -11 10 -16 10 -6
0 -7 -4 -4 -10z"/>
<path d="M2555 1271 c3 -6 11 -8 17 -5 6 4 15 0 20 -7 8 -12 9 -11 5 1 -2 8
-14 17 -26 18 -15 2 -21 0 -16 -7z"/>
<path d="M1421 1240 c-1 -36 10 -48 39 -39 21 6 22 7 4 8 -12 1 -24 12 -31 29
l-11 27 -1 -25z"/>
<path d="M1481 1243 c0 -10 4 -27 9 -38 6 -16 9 -17 14 -5 8 21 1 53 -12 58
-7 2 -12 -5 -11 -15z"/>
<path d="M1933 1212 c-1 -32 0 -33 7 -12 11 33 12 50 3 50 -5 0 -9 -17 -10
-38z"/>
<path d="M2148 1225 c-6 -30 -3 -43 8 -33 3 4 4 19 2 35 l-3 28 -7 -30z"/>
<path d="M1698 1215 c-3 -14 -1 -25 3 -25 5 0 9 7 9 15 0 8 8 15 18 15 14 0
15 2 2 10 -23 15 -27 12 -32 -15z"/>
<path d="M2502 1215 c-15 -8 -19 -14 -10 -17 16 -6 60 16 51 25 -8 9 -13 8
-41 -8z"/>
<path d="M2100 1210 c0 -6 7 -10 15 -10 8 0 15 2 15 4 0 2 -7 6 -15 10 -8 3
-15 1 -15 -4z"/>
<path d="M2440 1210 c0 -5 7 -10 16 -10 8 0 12 5 9 10 -3 6 -10 10 -16 10 -5
0 -9 -4 -9 -10z"/>
<path d="M1733 1203 c9 -2 23 -2 30 0 6 3 -1 5 -18 5 -16 0 -22 -2 -12 -5z"/>
<path d="M1878 1193 c6 -2 18 -2 25 0 6 3 1 5 -13 5 -14 0 -19 -2 -12 -5z"/>
<path d="M1847 1333 c-10 -9 -9 -23 2 -23 5 0 11 7 15 15 5 15 -5 20 -17 8z"/>
<path d="M1395 4350 c4 -6 11 -8 16 -5 14 9 11 15 -7 15 -8 0 -12 -5 -9 -10z"/>
<path d="M3590 4349 c0 -5 5 -7 10 -4 6 3 10 8 10 11 0 2 -4 4 -10 4 -5 0 -10
-5 -10 -11z"/>
<path d="M2800 4330 c0 -5 6 -10 14 -10 8 0 18 5 21 10 3 6 -3 10 -14 10 -12
0 -21 -4 -21 -10z"/>
<path d="M231 4314 c0 -11 3 -14 6 -6 3 7 2 16 -1 19 -3 4 -6 -2 -5 -13z"/>
<path d="M425 4320 c-3 -5 -1 -10 4 -10 6 0 11 5 11 10 0 6 -2 10 -4 10 -3 0
-8 -4 -11 -10z"/>
<path d="M1000 4316 c0 -2 7 -7 16 -10 8 -3 12 -2 9 4 -6 10 -25 14 -25 6z"/>
<path d="M2890 4316 c0 -2 7 -7 16 -10 8 -3 12 -2 9 4 -6 10 -25 14 -25 6z"/>
<path d="M3810 4275 c0 -8 5 -15 10 -15 6 0 10 7 10 15 0 8 -4 15 -10 15 -5 0
-10 -7 -10 -15z"/>
<path d="M81 4264 c0 -11 3 -14 6 -6 3 7 2 16 -1 19 -3 4 -6 -2 -5 -13z"/>
<path d="M121 4264 c0 -11 3 -14 6 -6 3 7 2 16 -1 19 -3 4 -6 -2 -5 -13z"/>
<path d="M3616 4265 c-9 -26 -7 -32 5 -12 6 10 9 21 6 23 -2 3 -7 -2 -11 -11z"/>
<path d="M3530 4260 c0 -5 5 -10 10 -10 6 0 10 5 10 10 0 6 -4 10 -10 10 -5 0
-10 -4 -10 -10z"/>
<path d="M240 4240 c0 -11 4 -20 9 -20 5 0 7 9 4 20 -3 11 -7 20 -9 20 -2 0
-4 -9 -4 -20z"/>
<path d="M460 4220 c-8 -5 -10 -10 -5 -10 6 0 17 5 25 10 8 5 11 10 5 10 -5 0
-17 -5 -25 -10z"/>
<path d="M3818 4223 c7 -3 16 -2 19 1 4 3 -2 6 -13 5 -11 0 -14 -3 -6 -6z"/>
<path d="M3520 4200 c0 -5 5 -10 10 -10 6 0 10 5 10 10 0 6 -4 10 -10 10 -5 0
-10 -4 -10 -10z"/>
<path d="M3660 4180 c-6 -11 -8 -20 -6 -20 3 0 10 9 16 20 6 11 8 20 6 20 -3
0 -10 -9 -16 -20z"/>
<path d="M260 4181 c0 -6 4 -13 10 -16 6 -3 7 1 4 9 -7 18 -14 21 -14 7z"/>
<path d="M3475 4180 c-3 -5 -1 -10 4 -10 6 0 11 5 11 10 0 6 -2 10 -4 10 -3 0
-8 -4 -11 -10z"/>
<path d="M3420 4160 c0 -5 5 -10 11 -10 5 0 7 5 4 10 -3 6 -8 10 -11 10 -2 0
-4 -4 -4 -10z"/>
<path d="M3525 4161 c-3 -5 -2 -12 3 -15 5 -3 9 1 9 9 0 17 -3 19 -12 6z"/>
<path d="M466 4151 c-4 -5 3 -7 14 -4 23 6 26 13 6 13 -8 0 -17 -4 -20 -9z"/>
<path d="M3646 4137 c3 -10 9 -15 12 -12 3 3 0 11 -7 18 -10 9 -11 8 -5 -6z"/>
<path d="M3744 4135 c21 -16 32 -13 21 4 -3 6 -14 11 -23 11 -15 -1 -15 -2 2
-15z"/>
<path d="M3630 4087 c0 -14 -7 -30 -15 -37 -8 -7 -15 -17 -15 -23 0 -17 36 26
42 51 3 12 2 25 -3 28 -5 3 -9 -6 -9 -19z"/>
<path d="M3705 4079 c-4 -6 -5 -12 -2 -15 2 -3 7 2 10 11 7 17 1 20 -8 4z"/>
<path d="M3807 4079 c7 -7 15 -10 18 -7 3 3 -2 9 -12 12 -14 6 -15 5 -6 -5z"/>
<path d="M202 4041 c-11 -7 -11 -9 1 -14 9 -3 18 1 21 9 6 16 -2 18 -22 5z"/>
<path d="M3785 4040 c-3 -5 -1 -10 4 -10 6 0 11 5 11 10 0 6 -2 10 -4 10 -3 0
-8 -4 -11 -10z"/>
<path d="M300 4033 c0 -4 5 -15 10 -23 8 -13 10 -13 10 2 0 9 -4 20 -10 23 -5
3 -10 3 -10 -2z"/>
<path d="M143 4010 c2 -8 12 -16 23 -17 13 -2 15 -1 4 4 -8 3 -19 11 -23 17
-6 7 -7 6 -4 -4z"/>
<path d="M197 3990 c14 -15 53 -22 53 -9 0 14 -18 20 -25 9 -5 -8 -12 -7 -23
2 -14 10 -15 10 -5 -2z"/>
<path d="M3592 3993 c5 -16 -23 -53 -35 -47 -9 5 -9 4 0 -6 10 -11 16 -9 32
11 23 28 25 35 11 44 -6 4 -9 3 -8 -2z"/>
<path d="M3716 3977 c3 -10 9 -15 12 -12 3 3 0 11 -7 18 -10 9 -11 8 -5 -6z"/>
<path d="M416 3971 c-4 -5 3 -7 14 -4 23 6 26 13 6 13 -8 0 -17 -4 -20 -9z"/>
<path d="M696 3590 c7 -33 22 -79 33 -102 30 -67 41 -108 30 -108 -5 0 -14 10
-19 23 -9 21 -10 21 -7 -5 1 -22 -11 -39 -67 -91 -37 -36 -66 -71 -64 -78 3
-8 36 17 84 63 l80 76 22 -61 c12 -34 23 -66 25 -72 1 -6 -33 -10 -88 -10 -52
0 -91 -4 -92 -10 -1 -5 6 -10 17 -9 10 0 17 -3 15 -6 -2 -4 28 -6 68 -6 l72 1
17 -35 c20 -40 22 -60 8 -60 -20 0 -114 -90 -118 -112 -5 -30 24 -40 112 -36
51 2 88 -1 91 -7 2 -5 4 -1 2 10 -2 18 -9 20 -95 19 -50 -1 -92 2 -92 7 0 17
114 109 135 109 3 0 16 -25 30 -55 23 -52 46 -85 60 -85 3 0 1 9 -5 20 -6 11
-8 20 -5 20 4 0 -3 13 -14 29 -11 15 -18 31 -15 34 9 9 -27 56 -40 51 -7 -2
-23 19 -39 51 -31 64 -31 65 -14 65 7 0 21 -24 31 -52 10 -29 21 -47 24 -40 2
8 -1 19 -7 25 -6 6 -11 18 -11 27 0 9 -8 32 -18 52 -11 20 -25 57 -32 83 -7
26 -19 49 -26 52 -8 3 -12 8 -10 12 4 5 -3 36 -28 126 -2 6 -6 24 -11 40 -4
17 -11 35 -15 40 -4 6 -10 22 -14 38 -3 15 -10 27 -15 27 -5 0 -3 -27 5 -60z"/>
<path d="M3320 3035 c-6 -8 -32 -24 -56 -36 -25 -12 -43 -26 -41 -33 8 -24
127 -76 127 -56 0 5 -19 19 -42 31 l-41 21 43 38 c23 20 38 40 32 43 -5 4 -15
0 -22 -8z"/>
<path d="M925 2910 c4 -13 2 -20 -7 -20 -7 0 -42 -28 -77 -61 -61 -60 -63 -62
-45 -80 16 -15 37 -18 122 -20 56 -1 103 -5 103 -10 1 -5 2 -15 4 -21 1 -7
-25 -38 -57 -69 -50 -47 -59 -61 -56 -85 l3 -29 78 2 c47 1 85 7 95 15 12 10
14 10 8 1 -4 -8 -2 -13 6 -13 7 0 23 -24 36 -52 12 -28 24 -49 27 -46 3 3 -8
31 -24 62 -17 31 -31 60 -33 64 -3 8 -27 8 -123 -2 l-70 -7 68 65 c37 36 71
66 76 66 5 0 21 -24 35 -52 43 -88 105 -203 106 -196 0 4 -13 36 -30 71 -16
36 -30 71 -30 79 0 7 -7 22 -15 32 -8 11 -15 26 -15 34 0 8 -10 28 -22 45 -20
27 -22 28 -29 11 -6 -17 -8 -16 -20 11 -7 17 -13 35 -13 40 -1 6 -45 11 -106
12 -58 1 -109 2 -115 3 -5 0 2 8 16 18 14 9 49 38 78 64 46 41 51 50 41 68
-14 26 -23 26 -15 0z"/>
<path d="M959 2902 c16 -54 63 -142 76 -142 8 0 11 7 8 20 -3 11 -9 20 -14 20
-5 0 -9 5 -9 12 0 6 -11 35 -25 65 -27 56 -49 72 -36 25z"/>
<path d="M1050 2735 c0 -8 4 -15 10 -15 5 0 7 7 4 15 -4 8 -8 15 -10 15 -2 0
-4 -7 -4 -15z"/>
<path d="M1015 2600 c-3 -5 -1 -10 4 -10 6 0 11 5 11 10 0 6 -2 10 -4 10 -3 0
-8 -4 -11 -10z"/>
<path d="M1230 2505 c7 -9 15 -13 17 -11 7 7 -7 26 -19 26 -6 0 -6 -6 2 -15z"/>
<path d="M2627 1766 c-8 -20 32 -33 44 -15 13 20 11 37 -2 19 -8 -11 -12 -12
-16 -2 -6 16 -20 15 -26 -2z"/>
</g>
</svg>
