<svg version="1.1" xmlns="http://www.w3.org/2000/svg" style="display: block;" viewBox="0 0 2048 2048" width="1024" height="1024" preserveAspectRatio="none">
<defs>
	<linearGradient id="Gradient1" gradientUnits="userSpaceOnUse" x1="801.622" y1="1347.83" x2="699.992" y2="1108.07">
		<stop class="stop0" offset="0" stop-opacity="1" stop-color="rgb(83,147,192)"/>
		<stop class="stop1" offset="1" stop-opacity="1" stop-color="rgb(124,187,227)"/>
	</linearGradient>
</defs>
<path transform="translate(0,0)" fill="rgb(123,186,226)" d="M 1216 1071.07 L 1232.77 1071.04 L 1232.07 1087.41 C 1237.33 1087.41 1242.59 1087.3 1247.85 1087.1 L 1247.91 1103.58 C 1242.74 1103.44 1236.57 1103.11 1231.48 1103.3 C 1231.26 1129.91 1231.99 1156.55 1231.69 1183.14 L 1215.21 1183.25 C 1216.65 1196.39 1215.85 1232.66 1215.87 1247.57 C 1210.54 1247.63 1205.2 1247.62 1199.87 1247.53 C 1189.68 1250.84 1185.52 1252.83 1175.98 1257.75 C 1158.34 1269.08 1143.57 1277.29 1123.44 1284.02 C 1095.41 1293.55 1074.54 1295.52 1047.66 1303.09 C 1020.02 1317.81 960.81 1320.09 927.376 1325.25 C 927.576 1331.48 927.708 1337.7 927.772 1343.94 L 879.602 1343.94 C 879.788 1338.78 879.35 1333.25 879.075 1328.07 C 874.652 1326.7 868.932 1327.19 864.152 1327.26 L 864.097 1310.91 L 831.293 1311.23 C 831.983 1317.38 831.796 1321.64 831.653 1327.83 L 815.992 1327.99 L 815.935 1343.17 C 805.045 1343.2 793.934 1343.13 783.066 1343.31 L 783.108 1359.19 C 752.396 1359.24 719.6 1359.86 689.054 1359.19 L 688.158 1343.58 C 685.833 1342.98 675.864 1343.19 672.85 1343.18 L 672.896 1327.36 L 640.267 1327.16 L 623.318 1327.12 C 624.342 1336.15 623.922 1349.9 623.907 1359.32 C 611.416 1359.27 598.72 1359.1 586.247 1359.2 C 577.629 1359.32 569.009 1359.29 560.392 1359.12 L 559.982 1344.13 L 544.623 1344.1 L 544.556 1295.96 L 575.426 1295.92 C 577.08 1290.26 576.136 1254.35 576.026 1247.25 L 544.641 1247.13 C 544.034 1226.5 544.191 1204.35 544.01 1183.65 L 576.73 1183.79 L 576.475 1168.06 L 592.266 1168.04 L 592.193 1151.28 C 622.908 1150.49 657.089 1151.41 688.181 1151.23 C 688.446 1156.4 688.297 1162.49 688.303 1167.73 C 693.166 1167.18 699.091 1167.15 704.063 1166.98 L 704.063 1183.9 C 735.196 1183.1 768.694 1183.78 799.999 1183.85 L 799.955 1167.17 C 806.962 1167.14 815.884 1166.86 822.672 1167.6 C 826.016 1167.42 828.678 1167.61 831.617 1166.09 C 832.813 1156.21 831.975 1130.44 831.887 1119.36 L 848.019 1119.38 C 848.048 1108.88 847.988 1098.38 847.838 1087.88 L 864.078 1087.81 L 864.036 1071.68 C 874.595 1071.63 885.154 1071.79 895.706 1072.15 C 905.611 1098.59 983.849 1123.27 1009.94 1119.36 C 1038.93 1120.82 1092.56 1120.94 1119.87 1115.89 C 1130.27 1113.43 1140.74 1110.31 1151.03 1107.38 C 1173.19 1094.42 1180.83 1090.16 1199.98 1072.59 L 1199.84 1071.5 C 1205.69 1071.13 1210.11 1071.01 1216 1071.07 z"/>
<path transform="translate(0,0)" fill="url(#Gradient1)" d="M 849.499 1089.49 C 856.079 1089.52 861.301 1089.83 867.721 1088.31 C 864.785 1092.6 861.021 1099.01 862.956 1104.29 C 872.891 1131.43 904.816 1152.68 931.478 1161.39 C 937.001 1163.2 943.12 1164.06 945.686 1168.5 L 945.416 1170.29 C 941.25 1172.63 916.982 1167.39 911.432 1166.14 C 892.659 1161.93 876.788 1143.82 863.335 1130.31 C 858.791 1131.97 850.265 1134.4 848.783 1139.29 C 837.666 1175.96 867.548 1209.28 899.518 1222.57 C 902.429 1223.77 909.949 1227.42 911.579 1229.54 C 896.238 1239.92 852.301 1194.52 847.426 1223.15 C 842.253 1253.52 870.059 1266.73 893.535 1275.53 C 904.154 1279.43 916.676 1278.01 927.228 1281.14 C 927.411 1282.87 927.57 1284.38 927.706 1285.66 L 927.018 1287.23 C 909.761 1292.3 885.021 1289.64 870.599 1279.51 C 869.966 1279.06 866.231 1277.06 865.323 1276.62 C 858.997 1278.07 855.383 1278.89 848.889 1279.58 C 848.979 1284.27 848.963 1289.42 849.2 1294.06 C 853.08 1299.93 857.775 1308.97 864.097 1310.91 L 831.293 1311.23 C 831.983 1317.38 831.796 1321.64 831.653 1327.83 L 815.992 1327.99 L 815.935 1343.17 C 805.045 1343.2 793.934 1343.13 783.066 1343.31 L 783.108 1359.19 C 752.396 1359.24 719.6 1359.86 689.054 1359.19 L 688.158 1343.58 C 685.833 1342.98 675.864 1343.19 672.85 1343.18 L 672.896 1327.36 L 640.267 1327.16 L 623.318 1327.12 C 624.342 1336.15 623.922 1349.9 623.907 1359.32 C 611.416 1359.27 598.72 1359.1 586.247 1359.2 C 577.629 1359.32 569.009 1359.29 560.392 1359.12 L 559.982 1344.13 L 544.623 1344.1 L 544.556 1295.96 L 575.426 1295.92 C 577.08 1290.26 576.136 1254.35 576.026 1247.25 L 544.641 1247.13 C 544.034 1226.5 544.191 1204.35 544.01 1183.65 L 576.73 1183.79 L 576.475 1168.06 L 592.266 1168.04 L 592.193 1151.28 C 622.908 1150.49 657.089 1151.41 688.181 1151.23 C 688.446 1156.4 688.297 1162.49 688.303 1167.73 C 693.166 1167.18 699.091 1167.15 704.063 1166.98 L 704.063 1183.9 C 735.196 1183.1 768.694 1183.78 799.999 1183.85 L 799.955 1167.17 C 806.962 1167.14 815.884 1166.86 822.672 1167.6 C 828.185 1167.94 828.887 1167.04 832.086 1171.49 C 833.263 1176.15 830.486 1176.24 831.208 1180.97 L 832.361 1181.36 C 834.199 1176.84 832.583 1133.06 834.741 1122.2 C 838.489 1121.07 846.155 1121.4 850.387 1121.39 C 850.645 1111.57 850.88 1099.03 849.499 1089.49 z"/>
<path transform="translate(0,0)" fill="rgb(123,186,226)" d="M 591.203 1286.67 C 607.214 1270.43 609.782 1263.65 634.199 1262.87 C 663.115 1261.93 680.354 1265.84 701.397 1286.95 C 730.377 1316.02 763.291 1314.87 798.094 1297.29 C 811.933 1291.07 819.778 1274.45 829.763 1278.64 C 835.764 1293.82 781.007 1337.22 767.623 1340.72 C 751.599 1344.92 703.998 1345.57 688.158 1343.58 C 685.833 1342.98 675.864 1343.19 672.85 1343.18 L 672.896 1327.36 L 640.267 1327.16 L 640.281 1310.95 C 630.041 1311.26 620.901 1312 610.826 1314.15 C 609.312 1321.67 607.337 1333.14 605.318 1340.38 C 600.831 1342.13 595.682 1344.3 591.173 1345.81 C 591.153 1326.59 590.716 1305.76 591.203 1286.67 z"/>
<path transform="translate(0,0)" fill="rgb(123,186,226)" d="M 544.556 1295.96 L 575.426 1295.92 C 573.489 1307.09 575.47 1326.32 579.559 1337.24 C 583.134 1346.79 587.606 1349.55 586.217 1358.82 C 586.227 1358.94 586.237 1359.07 586.247 1359.2 C 577.629 1359.32 569.009 1359.29 560.392 1359.12 L 559.982 1344.13 L 544.623 1344.1 L 544.556 1295.96 z"/>
<path transform="translate(0,0)" fill="rgb(123,186,226)" d="M 820.184 1230.25 C 835.938 1229.13 832.409 1237.67 831.689 1250.42 C 819.87 1272.25 782.599 1292.41 758.085 1296.68 C 722.292 1302.9 715.652 1286.44 693.515 1263.15 C 689.054 1258.45 685.18 1253.21 679.748 1249.48 C 672.04 1246.27 664.397 1246.79 656.125 1246.78 L 656.255 1231.4 C 666.702 1231.11 674.315 1231.32 684.649 1232.33 C 689.893 1237.89 694.369 1242.74 700.833 1246.83 C 706.755 1247.13 713.473 1247.1 719.467 1247.21 L 722.614 1261.66 C 730.773 1263.83 738.597 1264.03 746.924 1264.54 C 786.444 1266.99 797.186 1263.14 820.184 1230.25 z"/>
<path transform="translate(0,0)" fill="rgb(94,157,201)" d="M 1216 1071.07 L 1232.77 1071.04 L 1232.07 1087.41 C 1237.33 1087.41 1242.59 1087.3 1247.85 1087.1 L 1247.91 1103.58 C 1242.74 1103.44 1236.57 1103.11 1231.48 1103.3 C 1231.26 1129.91 1231.99 1156.55 1231.69 1183.14 L 1215.21 1183.25 C 1216.65 1196.39 1215.85 1232.66 1215.87 1247.57 C 1210.54 1247.63 1205.2 1247.62 1199.87 1247.53 C 1189.68 1250.84 1185.52 1252.83 1175.98 1257.75 C 1158.34 1269.08 1143.57 1277.29 1123.44 1284.02 C 1095.41 1293.55 1074.54 1295.52 1047.66 1303.09 C 1055.98 1293.96 1080.14 1281.99 1091.6 1274.27 C 1126.88 1250.88 1154.06 1219.23 1177.79 1184.57 C 1182.01 1178.42 1204.66 1139.74 1194.91 1134.99 C 1186.07 1136.03 1168.73 1155 1162.58 1162.43 C 1136.96 1193.43 1104.88 1219.97 1070.86 1241.29 C 1062.97 1245.26 1054.52 1248.37 1046.37 1251.81 C 1039.73 1254.62 1033.96 1261.75 1026.61 1259.1 C 1024.55 1256.46 1024.92 1257.88 1025.1 1254.83 C 1029.88 1248.89 1048.61 1249.59 1052.08 1241.79 C 1057.61 1229.37 1070.88 1229.13 1081.07 1221.94 C 1087.73 1217.23 1091.25 1212.89 1096.08 1206.65 C 1090.05 1208.13 1081.14 1210.53 1075.29 1211.59 C 1064.99 1213.47 1013.13 1219.47 1007.17 1210.26 C 1007.91 1207.51 1010.27 1205.17 1013.08 1204.64 C 1043.78 1198.82 1096.91 1201.41 1121.21 1178.56 L 1122.21 1177.6 C 1111.66 1180.27 1052.05 1190.95 1045.05 1185.17 C 1045.08 1183.74 1045.17 1179.96 1046.43 1179.65 C 1057.2 1177.02 1076.21 1176.6 1086.38 1174.28 C 1126.94 1165.04 1153.19 1156.12 1181.96 1124.98 C 1198.82 1106.74 1200.53 1096.77 1199.98 1072.59 L 1199.84 1071.5 C 1205.69 1071.13 1210.11 1071.01 1216 1071.07 z"/>
<path transform="translate(0,0)" fill="rgb(123,186,226)" d="M 1123.44 1284.02 C 1119.53 1281.19 1117.8 1281.33 1114.6 1277.52 C 1119.19 1265.32 1162.37 1229.83 1170.94 1215.49 C 1174.81 1209.02 1189.33 1184.88 1194.93 1182.67 C 1210.09 1188.2 1179.45 1246.16 1175.98 1257.75 C 1158.34 1269.08 1143.57 1277.29 1123.44 1284.02 z"/>
<path transform="translate(0,0)" fill="rgb(98,30,36)" d="M 1216 1071.07 L 1232.77 1071.04 L 1232.07 1087.41 C 1227.65 1087 1220.66 1087.46 1216.02 1087.63 L 1216 1071.07 z"/>
<path transform="translate(0,0)" fill="rgb(98,30,36)" d="M 1232.07 1087.41 C 1237.33 1087.41 1242.59 1087.3 1247.85 1087.1 L 1247.91 1103.58 C 1242.74 1103.44 1236.57 1103.11 1231.48 1103.3 C 1231.89 1098.89 1231.92 1092.01 1232.07 1087.41 z"/>
<path transform="translate(0,0)" fill="rgb(94,157,201)" d="M 864.036 1071.68 C 874.595 1071.63 885.154 1071.79 895.706 1072.15 C 905.611 1098.59 983.849 1123.27 1009.94 1119.36 C 1038.93 1120.82 1092.56 1120.94 1119.87 1115.89 C 1130.27 1113.43 1140.74 1110.31 1151.03 1107.38 C 1145.66 1113.65 1130.11 1118.63 1122.58 1121.85 C 1086.52 1137.27 1053.46 1137.19 1014.78 1135.53 C 977.305 1133.93 941.483 1121.42 908.072 1104.67 C 900.518 1100.88 890.679 1098.09 884.828 1091.97 C 879.312 1085.58 875.348 1084.47 867.721 1088.31 C 861.301 1089.83 856.079 1089.52 849.499 1089.49 C 850.88 1099.03 850.645 1111.57 850.387 1121.39 C 846.155 1121.4 838.489 1121.07 834.741 1122.2 C 832.583 1133.06 834.199 1176.84 832.361 1181.36 L 831.208 1180.97 C 830.486 1176.24 833.263 1176.15 832.086 1171.49 C 828.887 1167.04 828.185 1167.94 822.672 1167.6 C 826.016 1167.42 828.678 1167.61 831.617 1166.09 C 832.813 1156.21 831.975 1130.44 831.887 1119.36 L 848.019 1119.38 C 848.048 1108.88 847.988 1098.38 847.838 1087.88 L 864.078 1087.81 L 864.036 1071.68 z"/>
<path transform="translate(0,0)" fill="rgb(94,157,201)" d="M 879.075 1328.07 C 887.879 1330.33 917.939 1327.94 927.376 1325.25 C 927.576 1331.48 927.708 1337.7 927.772 1343.94 L 879.602 1343.94 C 879.788 1338.78 879.35 1333.25 879.075 1328.07 z"/>
<path transform="translate(0,0)" fill="rgb(225,224,224)" d="M 1071.9 416.785 L 1104.64 416.972 C 1104.77 422.968 1105.02 426.915 1104.03 432.911 C 1114.63 432.985 1125.24 433.001 1135.84 432.958 C 1134.93 442.328 1135.12 455.345 1134.99 464.998 C 1144.56 464.824 1159.05 465.418 1167.94 463.886 L 1168.77 449.064 L 1182.81 448.865 C 1182.88 455.407 1182.46 474.298 1183.62 479.275 L 1199.78 479.32 L 1199.98 512.188 L 1215.95 511.946 L 1216.04 528.084 L 1247.98 528.118 C 1247.96 542.543 1248.53 561.638 1247.84 575.663 C 1243.04 575.757 1237.6 575.994 1232.85 575.824 C 1233.28 581.71 1233.82 586.944 1233.29 592.859 C 1227.28 592.856 1222.07 592.995 1216.08 592.246 C 1216.13 601.496 1216.59 615.365 1216.08 624.292 C 1210.47 624.671 1207.49 625.028 1201.83 624.387 L 1200.29 625.647 C 1199.39 636.979 1200.21 649.737 1199.99 661.193 C 1199.42 691.245 1201.34 723.858 1199.93 753.753 C 1194.87 761.312 1189.37 765.828 1183.11 772.342 L 1182.85 783.871 L 1167.55 784.005 C 1167.8 790.367 1167.72 792.691 1167.04 799.024 C 1153.98 799.327 1131.31 800.478 1118.97 799.645 L 1118.9 816.756 C 1114.89 817.871 1101.66 816.315 1096.96 815.662 C 1072.75 812.3 1052.17 821.849 1033.8 802.599 C 1022.47 799.748 1006.65 796.761 1007.02 782.409 C 994.785 775.388 980.774 767.397 970.746 757.365 C 965.394 752.011 961.9 744.99 955.792 739.857 C 954.772 751.411 953.767 750.376 942.871 753.315 C 938.96 753.153 931.092 753.581 926.921 753.685 L 926.981 768.072 L 896.891 767.859 L 896.754 752.103 L 880.669 752.594 C 880.614 746.817 880.519 741.723 880.97 735.952 L 848.722 735.897 C 848.097 725.669 847.62 713.127 848.766 702.965 L 832.844 703.074 C 832.231 697.967 832.146 693.112 831.967 687.982 L 817.171 687.715 L 817.413 671.1 L 832.119 670.924 C 832.095 655.21 831.938 639.497 831.649 623.786 C 829.066 623.415 819.537 623.149 816.517 622.997 C 815.49 603.178 815.876 580.146 815.969 560.094 L 832.657 560.068 L 832.76 544.458 C 838.058 544.279 843.65 544.281 848.974 544.203 C 848.799 528.279 848.77 512.354 848.888 496.43 C 858.097 496.098 871.359 496.176 880.468 496.61 L 881.059 480.71 L 897.048 480.606 C 896.999 469.724 896.703 458.892 897.82 448.071 C 914.617 449.726 942.135 447.629 960.954 448.586 C 960.494 442.126 960.545 439.155 960.945 432.708 C 994.805 431.435 1036.53 433.188 1071.41 432.834 L 1071.9 416.785 z"/>
<path transform="translate(0,0)" fill="rgb(250,183,142)" d="M 1154.4 576.238 C 1161.47 572.622 1165.86 570.653 1173.27 567.792 C 1177.71 572.48 1182.02 577.292 1186.19 582.224 C 1188.99 578.299 1187.58 579.58 1192.34 577.682 C 1195.43 582.675 1198.85 587.416 1199.87 593.232 C 1199.7 599.23 1198.27 620.377 1200.9 624.201 L 1201.83 624.387 L 1200.29 625.647 C 1199.39 636.979 1200.21 649.737 1199.99 661.193 C 1199.42 691.245 1201.34 723.858 1199.93 753.753 C 1194.87 761.312 1189.37 765.828 1183.11 772.342 L 1182.85 783.871 L 1167.55 784.005 C 1167.8 790.367 1167.72 792.691 1167.04 799.024 C 1153.98 799.327 1131.31 800.478 1118.97 799.645 L 1118.9 816.756 C 1114.89 817.871 1101.66 816.315 1096.96 815.662 C 1072.75 812.3 1052.17 821.849 1033.8 802.599 C 1022.47 799.748 1006.65 796.761 1007.02 782.409 C 994.785 775.388 980.774 767.397 970.746 757.365 C 965.394 752.011 961.9 744.99 955.792 739.857 C 953.466 737.348 947.433 735.926 943.982 734.846 L 942.977 720.744 C 932.799 721.057 924.407 721.226 914.154 720.797 C 911.532 719.028 909.042 717.073 906.701 714.947 C 884.715 695.364 877.552 677.917 900.187 655.057 C 910.549 654.37 917.981 653.952 928.468 654.249 C 938.004 671.201 942.295 674.441 956.466 687.687 C 958.554 687.806 960.644 687.883 962.735 687.917 C 967.88 688.019 971.332 688.613 975.053 685.037 C 978.073 675.53 976.108 637.563 976.267 623.962 L 992.253 623.686 L 992.446 607.998 L 1007.65 607.06 C 1007.95 596.795 1007.99 586.192 1008.14 575.897 L 1071.8 575.807 C 1077.09 575.885 1082.84 575.846 1088.09 576.148 C 1088.03 580.835 1087.27 587.528 1089.57 591.249 C 1091.7 591.794 1091.67 591.831 1093.86 592.043 C 1094.88 592.557 1095.65 593.008 1096.8 593.242 C 1127.22 599.374 1133.41 586.193 1152.96 576.911 L 1154.4 576.238 z"/>
<path transform="translate(0,0)" fill="rgb(232,135,105)" d="M 1007.02 782.409 C 1017.77 784.992 1028.91 784.979 1039.92 784.999 L 1039.98 799.208 C 1056.21 799.388 1072.45 799.399 1088.69 799.239 C 1096.35 799.183 1112.09 798.7 1118.97 799.645 L 1118.9 816.756 C 1114.89 817.871 1101.66 816.315 1096.96 815.662 C 1072.75 812.3 1052.17 821.849 1033.8 802.599 C 1022.47 799.748 1006.65 796.761 1007.02 782.409 z"/>
<path transform="translate(0,0)" fill="rgb(239,148,112)" d="M 1192.34 577.682 C 1195.43 582.675 1198.85 587.416 1199.87 593.232 C 1199.3 595.233 1199.32 595.032 1198.38 596.899 C 1194.9 594.322 1189.48 586.328 1186.19 582.224 C 1188.99 578.299 1187.58 579.58 1192.34 577.682 z"/>
<path transform="translate(0,0)" fill="rgb(2,2,2)" d="M 1151.43 655.235 L 1183.73 655.181 L 1183.69 688 L 1151.29 687.831 C 1151.25 676.965 1151.3 666.1 1151.43 655.235 z"/>
<path transform="translate(0,0)" fill="rgb(2,2,2)" d="M 1039.36 655.154 L 1071.44 655.211 C 1071.21 666.033 1071.5 677.235 1071.63 688.087 L 1039.37 687.953 C 1039.15 677.154 1039.33 665.984 1039.36 655.154 z"/>
<path transform="translate(0,0)" fill="rgb(239,148,112)" d="M 918.777 671.413 C 923.786 671.215 925.312 670.722 928.453 674.881 C 930.134 690.409 931.822 684.214 941.528 689.475 C 944.599 693.911 944.686 698.208 941.374 702.537 L 937.25 702.984 C 931.677 703.073 921.042 703.66 916.156 702.334 C 915.269 701.219 914.668 700.505 914.032 699.206 C 910.098 691.346 909.239 682.3 911.624 673.84 C 914.325 670.94 913.546 671.873 918.777 671.413 z"/>
<path transform="translate(0,0)" fill="rgb(239,148,112)" d="M 1135.93 704.03 C 1140.74 703.932 1146.3 703.678 1151.05 703.847 L 1151.01 717.211 L 1138.95 722.679 C 1137.05 726.769 1135.74 730.878 1134.27 735.136 C 1124.58 736.02 1114.63 735.665 1104.88 735.535 L 1104.87 720.001 C 1115.6 719.961 1124.53 719.857 1135.28 719.072 C 1135.92 714.115 1135.85 709.041 1135.93 704.03 z"/>
<path transform="translate(0,0)" fill="rgb(239,148,112)" d="M 1088.33 752.092 C 1103.93 752.302 1120.28 751.913 1135.93 751.769 L 1135.67 767.306 C 1119.91 767.649 1104.15 767.788 1088.39 767.723 L 1088.33 752.092 z"/>
<path transform="translate(0,0)" fill="rgb(232,135,105)" d="M 1135.87 688.038 L 1151.08 687.866 L 1151.05 703.847 C 1146.3 703.678 1140.74 703.932 1135.93 704.03 L 1135.87 688.038 z"/>
<path transform="translate(0,0)" fill="rgb(247,247,247)" d="M 1071.9 416.785 L 1104.64 416.972 C 1104.77 422.968 1105.02 426.915 1104.03 432.911 C 1114.63 432.985 1125.24 433.001 1135.84 432.958 C 1134.93 442.328 1135.12 455.345 1134.99 464.998 C 1144.56 464.824 1159.05 465.418 1167.94 463.886 L 1168.77 449.064 L 1182.81 448.865 C 1182.88 455.407 1182.46 474.298 1183.62 479.275 C 1184.51 485.464 1184.39 490.079 1184.37 496.317 C 1184.16 506.816 1183.68 518.73 1183.79 529.137 C 1200.45 528.884 1201.66 530.092 1215.67 539.139 C 1215.66 543.742 1215.88 549.966 1215.14 554.373 C 1215.16 555.616 1214.9 557.138 1214.75 558.414 C 1211.49 561.047 1204.58 560.134 1200.15 560 L 1200.16 543.78 C 1194.08 544.392 1175.14 543.858 1168.13 543.81 C 1168.07 535.048 1167.7 525.958 1167.46 517.171 C 1164.28 513.338 1156.49 503.22 1152.13 502.066 C 1152.83 518.574 1153.78 526.448 1150.9 542.717 C 1146.87 544.276 1143.16 545.727 1139.04 547.063 C 1134.88 553.939 1139.71 556.253 1131.14 561.569 C 1127.02 561.503 1121.97 561.897 1118.41 560.163 C 1117.7 557.258 1118.42 549.743 1118.56 546.518 C 1119.63 520.768 1119.93 516.896 1105.9 496.121 L 1055.45 496.18 L 1055.82 479.752 C 1071.13 479.658 1087.23 479.806 1102.47 479.412 C 1104.19 484.935 1105.52 489.05 1107.69 494.445 C 1116.8 494.85 1122.84 496.276 1130.57 492.035 C 1134.92 485.352 1126.91 481.335 1121.89 477.902 C 1120.18 473.771 1117.91 468.689 1116.47 464.561 C 1092.66 463.133 1065.35 464.477 1041.08 464.038 C 1040.96 474.949 1040.42 485.546 1040.2 496.365 L 1008.3 496.238 C 1007.91 490.252 1007.64 485.11 1006.66 479.179 C 1002.01 479.249 996.773 479.453 992.182 479.288 L 992.279 495.797 L 1008.29 495.974 L 1008.24 510.709 L 1041.15 510.661 L 1041.09 544.157 L 1023.69 544.248 C 1023.28 538.993 1022.74 533.482 1022.62 528.234 C 1010.4 528.241 1000.65 527.962 988.46 527.129 C 976.506 515.481 976.043 506.219 960.773 496.132 C 946.467 496.041 926.372 495.596 912.494 497.568 L 912.465 510.68 C 928.195 510.763 944.475 511.077 960.156 510.924 C 960.336 521.487 960.447 532.051 960.49 542.615 L 976.264 542.789 L 976.144 575.229 C 964.748 575.896 955.705 576.561 944.283 575.915 C 940.93 574.214 932.69 575.477 927.898 575.559 L 927.939 591.968 L 944.226 591.563 C 944.381 602.431 944.464 613.299 944.477 624.168 L 878.512 624.402 L 878.605 607.492 C 868.816 607.323 857.417 607.982 847.51 608.306 L 847.599 575.49 C 834.739 575.867 826.356 577.199 832.657 560.068 L 832.76 544.458 C 838.058 544.279 843.65 544.281 848.974 544.203 C 848.799 528.279 848.77 512.354 848.888 496.43 C 858.097 496.098 871.359 496.176 880.468 496.61 L 881.059 480.71 L 897.048 480.606 C 896.999 469.724 896.703 458.892 897.82 448.071 C 914.617 449.726 942.135 447.629 960.954 448.586 C 960.494 442.126 960.545 439.155 960.945 432.708 C 994.805 431.435 1036.53 433.188 1071.41 432.834 L 1071.9 416.785 z"/>
<path transform="translate(0,0)" fill="rgb(225,224,224)" d="M 863.866 569.528 C 863.802 565.961 863.287 563.107 865.03 560.124 C 869.072 558.394 873.883 559.776 878.995 560.245 L 880.743 575.066 L 896.42 575.197 L 896.231 560.548 C 900.493 560.146 907.158 560.096 911.606 559.939 L 911.522 575.147 L 896.178 575.042 L 897.028 591.091 C 888.206 591.065 877.533 590.741 868.865 591.114 C 866.689 591.137 866.841 591.174 864.961 590.076 C 863.378 584.801 863.908 575.511 863.866 569.528 z"/>
<path transform="translate(0,0)" fill="rgb(232,135,105)" d="M 1155.07 560.102 L 1175.68 559.724 C 1184.55 564.564 1186.86 569.339 1192.34 577.682 C 1187.58 579.58 1188.99 578.299 1186.19 582.224 C 1182.02 577.292 1177.71 572.48 1173.27 567.792 C 1165.86 570.653 1161.47 572.622 1154.4 576.238 L 1152.96 576.911 C 1133.41 586.193 1127.22 599.374 1096.8 593.242 C 1095.65 593.008 1094.88 592.557 1093.86 592.043 C 1135.46 593.047 1127.2 578.215 1150.29 574.775 C 1151.09 568.693 1152.69 565.647 1155.07 560.102 z"/>
<path transform="translate(0,0)" fill="rgb(250,183,142)" d="M 955.792 739.857 C 961.9 744.99 965.394 752.011 970.746 757.365 C 980.774 767.397 994.785 775.388 1007.02 782.409 C 1006.65 796.761 1022.47 799.748 1033.8 802.599 C 1052.17 821.849 1072.75 812.3 1096.96 815.662 C 1101.66 816.315 1114.89 817.871 1118.9 816.756 C 1126.93 815.019 1157.74 815.39 1166.98 815.348 C 1172.43 815.416 1177.88 815.533 1183.33 815.7 L 1183.07 831.256 L 1183.02 832.251 L 1167.14 832.171 C 1162.62 831.829 1155.32 830.829 1151.7 833.197 L 1151.45 833.732 C 1151.31 837.861 1151.29 843.98 1150.81 847.915 C 1150.73 851.005 1150.51 853.185 1151.19 856.228 C 1151.92 860.48 1152.4 859.55 1151.01 862.975 C 1147.85 864.694 1146.55 864.155 1142.99 863.942 L 1136.4 863.566 C 1135.5 869.06 1135.81 874.466 1135.93 880.026 C 1131.17 880.054 1124.6 879.915 1119.99 880.181 L 1119.72 895.353 L 1135.9 895.377 L 1136.01 911.801 C 1115.26 911.163 1092.92 911.659 1072.06 911.758 C 1071.95 917.179 1071.72 922.589 1072.09 927.993 C 1091.85 927.931 1116.55 927.19 1135.93 927.885 C 1152.06 928.382 1168.22 927.589 1183.91 928.049 L 1183.99 1006.66 C 1179.69 1006.66 1171.26 1006.99 1167.56 1006.14 L 1166.79 1007.93 C 1166.8 1010.78 1166.67 1012.62 1167.14 1015.44 C 1167.34 1020.33 1166.53 1020.06 1168.91 1023.29 C 1173.34 1025.19 1178.12 1023.8 1183.31 1023.94 L 1183.12 1039.72 L 1200.13 1039.45 L 1216.06 1039.52 C 1216.33 1045.13 1216.64 1050.25 1216.45 1055.88 L 1199.85 1055.76 C 1199.9 1060.32 1200.18 1067.13 1199.84 1071.5 L 1199.98 1072.59 C 1180.83 1090.16 1173.19 1094.42 1151.03 1107.38 C 1140.74 1110.31 1130.27 1113.43 1119.87 1115.89 C 1092.56 1120.94 1038.93 1120.82 1009.94 1119.36 C 983.849 1123.27 905.611 1098.59 895.706 1072.15 C 896.709 1059.38 895.964 1037.26 895.921 1023.8 C 869.462 1023.92 843.002 1023.85 816.544 1023.6 L 816.042 1007.29 C 805.038 1007.12 794.031 1007.19 783.03 1007.51 C 783.879 997.734 783.777 987.566 783.862 977.728 C 783.351 968.041 783.804 953.391 783.804 943.341 L 783.994 927.291 L 797.936 927.169 C 799.171 915.992 802.209 911.458 809.02 902.713 C 833.155 871.731 859.175 841.74 889.985 817.173 C 898.903 810.062 911.151 804.779 921.21 799.125 C 927.378 798.706 935.647 798.84 941.984 798.762 L 942.773 797.44 C 943.481 784.982 942.874 766.256 942.871 753.315 C 953.767 750.376 954.772 751.411 955.792 739.857 z"/>
<path transform="translate(0,0)" fill="rgb(250,183,142)" d="M 1072.09 927.993 C 1091.85 927.931 1116.55 927.19 1135.93 927.885 C 1152.06 928.382 1168.22 927.589 1183.91 928.049 L 1183.99 1006.66 C 1179.69 1006.66 1171.26 1006.99 1167.56 1006.14 L 1166.79 1007.93 C 1166.8 1010.78 1166.67 1012.62 1167.14 1015.44 C 1167.34 1020.33 1166.53 1020.06 1168.91 1023.29 C 1173.34 1025.19 1178.12 1023.8 1183.31 1023.94 L 1183.12 1039.72 L 1200.13 1039.45 L 1216.06 1039.52 C 1216.33 1045.13 1216.64 1050.25 1216.45 1055.88 L 1199.85 1055.76 C 1199.9 1060.32 1200.18 1067.13 1199.84 1071.5 L 1199.98 1072.59 C 1180.83 1090.16 1173.19 1094.42 1151.03 1107.38 C 1140.74 1110.31 1130.27 1113.43 1119.87 1115.89 C 1092.56 1120.94 1038.93 1120.82 1009.94 1119.36 C 983.849 1123.27 905.611 1098.59 895.706 1072.15 C 896.709 1059.38 895.964 1037.26 895.921 1023.8 C 869.462 1023.92 843.002 1023.85 816.544 1023.6 L 816.042 1007.29 C 805.038 1007.12 794.031 1007.19 783.03 1007.51 C 783.879 997.734 783.777 987.566 783.862 977.728 C 788.04 979.75 793.843 987.64 796.997 989.244 C 816.406 999.113 831.46 1007.23 853.183 1007.89 C 892.383 1009.08 913.779 1009.21 950.015 993.194 C 963.604 987.187 970.095 987.029 982.08 976.176 C 995.78 975.68 1026.51 977.557 1038.17 974.298 C 1039.78 967.622 1039.81 965.629 1040.04 958.847 L 1044.51 958.066 C 1050.03 957.077 1050.74 956.51 1056.09 957.7 L 1056.12 943.272 L 1071.86 942.93 L 1072.09 927.993 z"/>
<path transform="translate(0,0)" fill="rgb(239,148,112)" d="M 1040.04 958.847 L 1044.51 958.066 C 1050.03 957.077 1050.74 956.51 1056.09 957.7 C 1060.29 961.023 1080.62 958.972 1087.75 959.345 C 1084.8 961.048 1060.52 960.363 1056.08 960.336 L 1055.41 975.201 L 1039.92 975.991 C 1039.92 980.431 1040.11 987.713 1039.77 991.905 C 1020.95 991.96 1004.83 987.719 989.981 1002.35 C 952.712 1039.09 941.399 1081.4 993.778 1110.51 C 997.111 1112.37 1007.02 1116.93 1009.94 1119.36 C 983.849 1123.27 905.611 1098.59 895.706 1072.15 C 896.709 1059.38 895.964 1037.26 895.921 1023.8 C 869.462 1023.92 843.002 1023.85 816.544 1023.6 L 816.042 1007.29 C 805.038 1007.12 794.031 1007.19 783.03 1007.51 C 783.879 997.734 783.777 987.566 783.862 977.728 C 788.04 979.75 793.843 987.64 796.997 989.244 C 816.406 999.113 831.46 1007.23 853.183 1007.89 C 892.383 1009.08 913.779 1009.21 950.015 993.194 C 963.604 987.187 970.095 987.029 982.08 976.176 C 995.78 975.68 1026.51 977.557 1038.17 974.298 C 1039.78 967.622 1039.81 965.629 1040.04 958.847 z"/>
<path transform="translate(0,0)" fill="rgb(239,148,112)" d="M 1183.12 1039.72 L 1200.13 1039.45 L 1216.06 1039.52 C 1216.33 1045.13 1216.64 1050.25 1216.45 1055.88 L 1199.85 1055.76 C 1199.9 1060.32 1200.18 1067.13 1199.84 1071.5 L 1199.98 1072.59 C 1180.83 1090.16 1173.19 1094.42 1151.03 1107.38 C 1140.74 1110.31 1130.27 1113.43 1119.87 1115.89 C 1118.39 1114.97 1118.2 1114.67 1116.9 1113.49 L 1117.34 1111.61 C 1120.65 1108.24 1123.05 1107.68 1127.34 1105.68 C 1148.5 1095.8 1163.66 1084.52 1171 1061.34 C 1173.18 1054.44 1174.08 1048.88 1176.59 1041.78 C 1179.4 1039.28 1178.48 1040.06 1183.12 1039.72 z"/>
<path transform="translate(0,0)" fill="rgb(98,30,36)" d="M 1200.13 1039.45 L 1216.06 1039.52 C 1216.33 1045.13 1216.64 1050.25 1216.45 1055.88 L 1199.85 1055.76 C 1199.54 1050.12 1199.86 1045.06 1200.13 1039.45 z"/>
<path transform="translate(0,0)" fill="rgb(98,30,36)" d="M 1072.09 927.993 C 1091.85 927.931 1116.55 927.19 1135.93 927.885 L 1136.01 943.807 L 1119.44 943.739 L 1119.61 959.199 L 1119.16 959.395 C 1108.92 959.113 1098.05 959.321 1087.75 959.345 C 1080.62 958.972 1060.29 961.023 1056.09 957.7 L 1056.12 943.272 L 1071.86 942.93 L 1072.09 927.993 z"/>
<path transform="translate(0,0)" fill="rgb(98,30,36)" d="M 1119.61 959.199 L 1135.96 959.012 L 1135.59 975.585 L 1119.28 975.795 L 1119.16 959.395 L 1119.61 959.199 z"/>
<path transform="translate(0,0)" fill="rgb(98,30,36)" d="M 1135.72 975.557 L 1151.89 975.266 L 1151.69 991.785 C 1146.3 991.855 1140.9 991.87 1135.51 991.831 C 1135.53 986.438 1135.47 980.935 1135.72 975.557 z"/>
<path transform="translate(0,0)" fill="rgb(98,30,36)" d="M 1151.69 991.785 C 1157.58 991.316 1161.96 991.165 1167.85 991.148 L 1167.56 1006.14 L 1166.79 1007.93 L 1151.4 1007.9 C 1151.29 1002.54 1151.53 997.154 1151.69 991.785 z"/>
<path transform="translate(0,0)" fill="rgb(232,135,105)" d="M 1103.75 1088 L 1118.93 1087.99 C 1118.99 1094.66 1119.21 1097.81 1117.84 1104.34 C 1111.87 1104.94 1108.72 1106.43 1104.31 1101.91 C 1102.62 1097.54 1103.44 1092.83 1103.75 1088 z"/>
<path transform="translate(0,0)" fill="rgb(239,148,112)" d="M 955.792 739.857 C 961.9 744.99 965.394 752.011 970.746 757.365 C 980.774 767.397 994.785 775.388 1007.02 782.409 C 1006.65 796.761 1022.47 799.748 1033.8 802.599 C 1052.17 821.849 1072.75 812.3 1096.96 815.662 C 1101.66 816.315 1114.89 817.871 1118.9 816.756 C 1126.93 815.019 1157.74 815.39 1166.98 815.348 C 1172.43 815.416 1177.88 815.533 1183.33 815.7 L 1183.07 831.256 L 1183.02 832.251 L 1167.14 832.171 C 1162.62 831.829 1155.32 830.829 1151.7 833.197 L 1151.45 833.732 L 1151.05 832.962 C 1146.87 830.134 1106.34 833.377 1099.8 834.035 C 1058.45 838.197 1016.49 827.837 983.766 801.624 C 975.534 795.029 968.643 787.944 960.543 781.026 C 954.398 787.172 949.366 791.754 942.773 797.44 C 943.481 784.982 942.874 766.256 942.871 753.315 C 953.767 750.376 954.772 751.411 955.792 739.857 z"/>
<path transform="translate(0,0)" fill="rgb(98,30,36)" d="M 1166.98 815.348 C 1172.43 815.416 1177.88 815.533 1183.33 815.7 L 1183.07 831.256 L 1167.47 831.432 C 1167.51 827.393 1167.97 818.769 1166.98 815.348 z"/>
<path transform="translate(0,0)" fill="rgb(239,148,112)" d="M 1008.48 880 C 1019 880.004 1029.51 879.954 1040.03 879.851 L 1040.14 895.198 C 1032.99 894.899 1016.37 894.969 1008.77 896.516 C 1008 896.814 1005.18 902.325 1005.1 902.375 C 989.171 912.462 980.404 906.174 971.979 925.912 C 939.538 927.568 906.409 925.668 873.909 927.152 C 866.249 927.502 858.042 937.614 849.078 938.326 C 846.657 936.114 847.632 937.46 846.707 933.751 C 848.724 924.703 859.847 920.766 865.729 912.128 C 882.407 910.757 901.27 912.713 917.481 909.276 C 922.798 908.148 937.332 891.235 942.913 894.908 C 944.256 900.395 943.611 906.311 943.39 912.047 L 945.508 912.007 C 948.185 911.95 956.426 911.89 958.495 911.077 C 975.462 904.41 995.989 893.019 1008.48 880 z"/>
<path transform="translate(0,0)" fill="rgb(98,30,36)" d="M 1040.03 879.851 C 1050.23 879.654 1091.59 878.764 1099.88 879.796 C 1106.56 880.498 1113.29 880.626 1119.99 880.181 L 1119.72 895.353 L 1135.9 895.377 L 1136.01 911.801 C 1115.26 911.163 1092.92 911.659 1072.06 911.758 C 1072.45 907.805 1072.05 899.889 1071.96 895.639 C 1061.95 894.802 1050.76 895.862 1040.14 895.198 L 1040.03 879.851 z"/>
<path transform="translate(0,0)" fill="rgb(239,148,112)" d="M 1040.14 895.198 C 1050.76 895.862 1061.95 894.802 1071.96 895.639 C 1072.05 899.889 1072.45 907.805 1072.06 911.758 C 1071.95 917.179 1071.72 922.589 1072.09 927.993 L 1071.86 942.93 L 1056.12 943.272 C 1051.67 942.958 1044.45 943.122 1039.79 943.097 L 1039.88 927.9 L 1055.79 926.956 L 1056.14 910.97 L 1039.96 910.965 L 1040.14 895.198 z"/>
<path transform="translate(0,0)" fill="rgb(98,30,36)" d="M 1135.74 861.23 L 1136.4 863.566 C 1135.5 869.06 1135.81 874.466 1135.93 880.026 C 1131.17 880.054 1124.6 879.915 1119.99 880.181 C 1113.29 880.626 1106.56 880.498 1099.88 879.796 C 1104.59 879.278 1114.73 879.434 1119.85 879.371 L 1119.83 863.565 C 1122.2 863.644 1124.57 863.694 1126.94 863.714 C 1132.21 863.716 1132.87 864.093 1135.74 861.23 z"/>
<path transform="translate(0,0)" fill="rgb(98,30,36)" d="M 1135.36 847.742 L 1150.81 847.915 C 1150.73 851.005 1150.51 853.185 1151.19 856.228 C 1151.92 860.48 1152.4 859.55 1151.01 862.975 C 1147.85 864.694 1146.55 864.155 1142.99 863.942 L 1136.4 863.566 L 1135.74 861.23 C 1135.1 856.978 1135.33 852.095 1135.36 847.742 z"/>
<path transform="translate(0,0)" fill="rgb(239,148,112)" d="M 1175.98 1257.75 C 1185.52 1252.83 1189.68 1250.84 1199.87 1247.53 L 1200 1300.35 L 1200.31 1406.89 C 1194.43 1406.9 1186.71 1406.7 1181 1407.08 C 1181.83 1411.12 1183.49 1416.58 1182.36 1420.29 C 1179.62 1422.97 1179.32 1422.15 1174.47 1422.59 L 1167.91 1422.51 C 1166.77 1425.16 1167.73 1449.92 1167.87 1454.87 L 1152.37 1456.14 C 1152.68 1462.09 1152.74 1464.75 1152.23 1470.82 C 1147.29 1471.18 1142.33 1471.47 1137.42 1472.08 L 1134.68 1486.64 C 1129.96 1487.16 1124.92 1487.8 1120.23 1488.18 L 1120.03 1503.44 L 1104.74 1503.96 C 1104.44 1508.84 1104.02 1514 1103.86 1518.86 C 1098.21 1519.19 1092.54 1519.45 1086.9 1520 C 1087.02 1525.18 1087.23 1530.57 1087.25 1535.73 L 1071.98 1535.55 L 1072.12 1583.9 L 1055.9 1583.87 L 1056.14 1615.82 C 1042.26 1615.77 1021.41 1616.5 1008.3 1615.53 L 1007.73 1600.31 L 992.513 1600 L 992.087 1535.44 L 976.113 1535.86 C 976.089 1525.65 976.291 1514.5 975.91 1504.38 C 981.083 1503.89 986.83 1503.22 991.963 1502.87 L 992.445 1487.95 L 1008 1486.91 C 1008.07 1482.2 1007.56 1477.83 1009.72 1473.84 C 1013.78 1470.09 1018.96 1470.95 1024.54 1470.99 C 1024.43 1465.56 1024.5 1442.83 1023.46 1439.45 C 1020.5 1439.11 1019.01 1438.94 1015.98 1438.92 C 1008.99 1441.55 1010.53 1444.89 1005.12 1449.55 C 991.024 1461.71 974.94 1481.82 960.259 1492.37 L 958.165 1502.89 L 944.345 1502.94 L 944.044 1572.33 L 944.037 1615.21 L 927.059 1615.45 L 912.214 1615.96 L 912.034 1600.12 C 900.81 1600.1 890.941 1600.18 879.71 1600.8 C 879.364 1594.93 879.572 1589.89 879.761 1584.03 C 869.472 1584.07 858.132 1583.83 847.987 1584.92 C 848.177 1552.58 848.151 1520.25 847.909 1487.91 L 864.628 1487.93 C 863.857 1478.15 864.069 1466.33 864.039 1456.39 L 880.119 1456.38 L 879.962 1407.22 C 885.397 1407.51 891.186 1407.6 896.657 1407.78 C 896.073 1403.48 896.018 1396.57 895.844 1392.05 L 912.163 1392.1 C 911.992 1385.83 910.792 1380.66 914.522 1376.17 C 918.822 1374.4 923.467 1375.13 928.258 1375.35 C 928.32 1364.87 928.158 1354.4 927.772 1343.94 C 927.708 1337.7 927.576 1331.48 927.376 1325.25 C 960.81 1320.09 1020.02 1317.81 1047.66 1303.09 C 1074.54 1295.52 1095.41 1293.55 1123.44 1284.02 C 1143.57 1277.29 1158.34 1269.08 1175.98 1257.75 z"/>
<path transform="translate(0,0)" fill="rgb(250,183,142)" d="M 928.258 1375.35 L 929.661 1375.16 C 933.311 1374.65 935.075 1374.82 937.747 1372.38 C 943.508 1359.52 937.829 1357.52 953.457 1346.01 C 978.992 1327.19 1007.02 1323.23 1037.97 1326.82 C 1044.63 1327.54 1050.55 1330.15 1054.67 1334.99 C 1058.97 1340.04 1057.48 1382.15 1056.66 1387.14 C 1054.07 1402.99 1028.1 1422.59 1015.98 1438.92 C 1008.99 1441.55 1010.53 1444.89 1005.12 1449.55 C 991.024 1461.71 974.94 1481.82 960.259 1492.37 L 958.165 1502.89 L 944.345 1502.94 L 944.044 1572.33 L 944.037 1615.21 L 927.059 1615.45 L 912.214 1615.96 L 912.034 1600.12 C 900.81 1600.1 890.941 1600.18 879.71 1600.8 C 879.364 1594.93 879.572 1589.89 879.761 1584.03 C 869.472 1584.07 858.132 1583.83 847.987 1584.92 C 848.177 1552.58 848.151 1520.25 847.909 1487.91 L 864.628 1487.93 C 863.857 1478.15 864.069 1466.33 864.039 1456.39 L 880.119 1456.38 L 879.962 1407.22 C 885.397 1407.51 891.186 1407.6 896.657 1407.78 C 896.073 1403.48 896.018 1396.57 895.844 1392.05 L 912.163 1392.1 C 911.992 1385.83 910.792 1380.66 914.522 1376.17 C 918.822 1374.4 923.467 1375.13 928.258 1375.35 z"/>
<path transform="translate(0,0)" fill="rgb(239,148,112)" d="M 927.059 1615.45 C 927.179 1610.98 928.037 1598.66 928.785 1594.29 C 932.908 1570.22 895.42 1591.74 896.448 1569.32 C 902.923 1565.77 935.7 1569.04 944.044 1572.33 L 944.037 1615.21 L 927.059 1615.45 z"/>
<path transform="translate(0,0)" fill="rgb(250,183,142)" d="M 1151.05 1426.91 C 1098.74 1433.23 1089.97 1367.99 1114.16 1334.85 C 1128.23 1315.58 1161.53 1298.43 1183.84 1293.83 C 1189.99 1295.75 1193.2 1298.89 1200 1300.35 L 1200.31 1406.89 C 1194.43 1406.9 1186.71 1406.7 1181 1407.08 L 1178.52 1407.85 C 1166.66 1407.59 1161.23 1408.78 1149.7 1411.81 C 1149.95 1416.6 1150.6 1422.08 1151.05 1426.91 z"/>
<path transform="translate(0,0)" fill="rgb(239,148,112)" d="M 1181 1407.08 C 1181.83 1411.12 1183.49 1416.58 1182.36 1420.29 C 1179.62 1422.97 1179.32 1422.15 1174.47 1422.59 C 1177.3 1416.29 1178.1 1414.95 1178.52 1407.85 L 1181 1407.08 z"/>
<path transform="translate(0,0)" fill="rgb(229,71,132)" d="M 688.136 688.111 L 768.023 688.093 L 768.02 703.818 C 773.539 703.108 779.025 703.1 784.584 702.98 C 784.15 707.527 784.197 714.816 784.099 719.605 L 800.003 719.089 L 800.076 735.065 L 816.578 734.961 C 816.371 740.039 816.614 746.905 816.658 752.12 L 832.931 751.057 C 832.624 756.253 832.881 761.794 832.996 767.025 L 847.963 767.075 L 847.993 783.104 C 859.089 783.1 869.801 783.132 880.898 782.623 L 880.922 799.148 C 894.35 798.936 907.781 798.928 921.21 799.125 C 911.151 804.779 898.903 810.062 889.985 817.173 C 859.175 841.74 833.155 871.731 809.02 902.713 C 802.209 911.458 799.171 915.992 797.936 927.169 L 783.994 927.291 L 783.804 943.341 L 751.767 943.177 L 751.771 959.007 L 704.982 959.029 C 704.664 952.974 704.491 949.432 704.899 943.347 C 683.692 943.053 661.771 943.342 640.509 943.298 L 639.977 927.354 C 634.898 927.368 629.82 927.454 624.743 927.611 C 624.488 922.716 624.48 917.503 624.385 912.577 C 616.775 911.411 600.918 911.903 592.655 911.926 L 592.102 895.872 L 560.332 895.827 L 560.224 879.927 C 557.347 878.464 547.099 879.122 543.342 879.194 C 543.048 874.166 543.193 869.488 543.277 864.465 C 537.503 862.069 518.396 863.291 511.041 863.58 L 511.241 831.968 C 507.696 830.679 485.497 831.167 480.473 831.191 L 479.846 815.72 C 476.247 815.305 468.539 815.641 464.627 815.699 C 464.384 809.907 463.943 804.573 464.871 798.825 L 447.42 799.088 C 447.233 793.733 447.563 788.493 447.8 783.142 C 453.77 783.589 458.902 783.632 464.875 783.673 C 464.515 778.635 464.469 772.559 464.311 767.43 C 495.267 768.037 528.61 766.856 560.1 767.071 L 559.976 751.917 L 608.197 752.045 L 608.014 736.036 C 618.666 736.304 629.972 736.062 640.675 736.01 C 640.314 731.177 640.476 724.509 640.446 719.531 C 650.212 720.252 661.795 719.925 671.719 719.886 L 671.699 703.199 L 688.715 703.531 C 688.376 698.84 688.31 692.898 688.136 688.111 z"/>
<path transform="translate(0,0)" fill="rgb(241,105,154)" d="M 688.136 688.111 L 768.023 688.093 L 768.02 703.818 C 773.539 703.108 779.025 703.1 784.584 702.98 C 784.15 707.527 784.197 714.816 784.099 719.605 L 800.003 719.089 L 800.076 735.065 L 816.578 734.961 C 816.371 740.039 816.614 746.905 816.658 752.12 L 832.931 751.057 C 832.624 756.253 832.881 761.794 832.996 767.025 L 847.963 767.075 L 847.993 783.104 C 859.089 783.1 869.801 783.132 880.898 782.623 L 880.922 799.148 C 849.93 801.185 845.152 804.48 818.588 782.277 C 796.028 764.195 774.252 735.091 749.49 721.38 C 742.288 717.392 695.095 718.506 688.454 722.958 C 676.82 730.757 624.116 753.051 618.656 761.34 L 619.143 763.132 C 623.664 764.535 665.71 755.156 671.749 752.82 L 671.975 767.174 L 720.349 767.16 L 720.785 783.016 C 710.221 783.255 698.872 783.724 688.369 783.587 L 687.805 799.012 C 666.436 799.903 645.324 799.849 623.947 799.949 L 608.074 800.097 L 607.902 815.311 C 596.962 815.46 586.024 815.712 575.088 816.067 L 575.321 830.427 C 567.326 830.641 514.179 830.549 511.241 831.968 C 507.696 830.679 485.497 831.167 480.473 831.191 L 479.846 815.72 C 476.247 815.305 468.539 815.641 464.627 815.699 C 464.384 809.907 463.943 804.573 464.871 798.825 L 447.42 799.088 C 447.233 793.733 447.563 788.493 447.8 783.142 C 453.77 783.589 458.902 783.632 464.875 783.673 C 464.515 778.635 464.469 772.559 464.311 767.43 C 495.267 768.037 528.61 766.856 560.1 767.071 L 559.976 751.917 L 608.197 752.045 L 608.014 736.036 C 618.666 736.304 629.972 736.062 640.675 736.01 C 640.314 731.177 640.476 724.509 640.446 719.531 C 650.212 720.252 661.795 719.925 671.719 719.886 L 671.699 703.199 L 688.715 703.531 C 688.376 698.84 688.31 692.898 688.136 688.111 z"/>
<path transform="translate(0,0)" fill="rgb(229,71,132)" d="M 607.948 784.084 L 622.999 784.413 C 623.114 789.454 623.597 794.887 623.947 799.949 L 608.074 800.097 L 607.902 815.311 C 596.962 815.46 586.024 815.712 575.088 816.067 L 575.321 830.427 C 567.326 830.641 514.179 830.549 511.241 831.968 C 507.696 830.679 485.497 831.167 480.473 831.191 L 479.846 815.72 C 486.375 819.962 503.951 819.272 511.992 819.693 C 528.782 820.572 543.652 818.181 559.889 814.182 L 560.233 800.199 C 576.034 800.31 591.836 800.042 607.625 799.394 L 607.948 784.084 z"/>
<path transform="translate(0,0)" fill="rgb(241,105,154)" d="M 608.074 800.097 L 623.947 799.949 L 624.506 815.179 L 639.813 815.285 C 639.704 820.21 639.041 825.15 641.018 829.469 C 645.688 833.273 649.519 832.143 655.805 831.837 L 655.959 815.485 C 671.896 815.378 688.02 815.396 703.938 815.078 L 704.027 831.605 L 720.156 832.227 C 720.163 842.469 720.093 852.71 719.944 862.951 C 737.686 864.085 752.531 864.29 770.248 864.132 C 768.497 870.606 768.067 872.223 764.95 878.288 C 751.292 881.072 734.2 880.11 720.056 879.865 L 719.832 863.059 L 655.959 864.075 L 656.001 847.55 L 671.557 846.999 L 671.364 831.362 L 655.832 831.545 L 655.601 847.005 L 640.595 847.575 L 640.968 861.186 C 647.542 863.496 649.866 864.175 656.754 865.392 L 657.053 878.906 L 672.338 879.521 L 671.894 893.174 C 659.114 899.866 638.674 911.577 624.385 912.577 C 616.775 911.411 600.918 911.903 592.655 911.926 L 592.102 895.872 L 560.332 895.827 L 560.224 879.927 C 557.347 878.464 547.099 879.122 543.342 879.194 C 543.048 874.166 543.193 869.488 543.277 864.465 C 537.503 862.069 518.396 863.291 511.041 863.58 L 511.241 831.968 C 514.179 830.549 567.326 830.641 575.321 830.427 L 575.088 816.067 C 586.024 815.712 596.962 815.46 607.902 815.311 L 608.074 800.097 z"/>
<path transform="translate(0,0)" fill="rgb(229,71,132)" d="M 575.957 862.688 C 582.056 860.847 618.958 846.888 622.312 848.678 C 626.569 871.217 590.129 864.358 575.564 863.891 C 573.819 869.073 574.054 872.541 573.886 877.979 C 570.314 878.267 562.811 878.348 560.224 879.927 C 557.347 878.464 547.099 879.122 543.342 879.194 C 543.048 874.166 543.193 869.488 543.277 864.465 L 544.158 865.257 C 554.244 865.225 565.982 864.137 575.957 862.688 z"/>
<path transform="translate(0,0)" fill="rgb(241,105,154)" d="M 708.433 798.851 C 726.293 798.088 748.882 799.144 767.068 799.504 C 767.517 804.601 767.677 810.619 767.931 815.803 L 783.6 816.227 C 783.526 821.509 783.448 825.757 782.938 831.067 C 772.27 831.822 762.836 831.396 752.185 831.074 L 752.037 815.293 C 737.678 815.732 723.309 815.765 708.947 815.393 L 708.433 798.851 z"/>
<path transform="translate(0,0)" fill="rgb(250,183,142)" d="M 1151.45 833.732 L 1151.7 833.197 C 1155.32 830.829 1162.62 831.829 1167.14 832.171 L 1183.02 832.251 C 1188.66 832.516 1194.32 832.554 1199.97 832.363 L 1200.03 847.821 L 1232.95 847.001 C 1232.85 851.799 1232.91 858.51 1232.45 863.138 L 1248.82 863.006 L 1248.74 880.085 C 1273.36 879.99 1304.65 880.791 1328.67 879.239 C 1328.5 884.355 1328.19 889.945 1328.27 895.023 L 1375.22 895.052 L 1375.67 911.231 L 1395.67 911.266 C 1402.76 912.305 1416.69 911.513 1424.33 911.306 C 1429.34 911.334 1435.22 911.5 1440.16 911.348 L 1440.29 879.805 C 1445.57 879.561 1451.21 879.204 1456.47 879.086 C 1456.53 883.529 1456.41 890.698 1457.04 894.873 L 1471.95 895.073 L 1471.95 910.986 C 1481.1 910.981 1495.31 910.587 1504.04 911.144 C 1509.27 911.196 1514.6 911.325 1519.82 911.156 L 1519.63 927.616 L 1503.84 928.139 C 1495.46 928.285 1479.87 928.955 1472.01 928.209 L 1455.98 927.702 C 1449.01 927.033 1431.47 927.514 1423.82 927.626 L 1407.57 927.725 C 1407.6 948.208 1407.2 970.561 1408.01 990.896 L 1264.48 991.529 C 1264.62 986.078 1264.85 980.503 1264.76 975.061 L 1216.58 975.306 L 1216.31 958.954 L 1200.08 959.087 C 1200.11 977.916 1201.11 1005.49 1200.2 1023.26 L 1200.13 1039.45 L 1183.12 1039.72 L 1183.31 1023.94 C 1178.12 1023.8 1173.34 1025.19 1168.91 1023.29 C 1166.53 1020.06 1167.34 1020.33 1167.14 1015.44 C 1166.67 1012.62 1166.8 1010.78 1166.79 1007.93 L 1167.56 1006.14 C 1171.26 1006.99 1179.69 1006.66 1183.99 1006.66 L 1183.91 928.049 C 1168.22 927.589 1152.06 928.382 1135.93 927.885 C 1116.55 927.19 1091.85 927.931 1072.09 927.993 C 1071.72 922.589 1071.95 917.179 1072.06 911.758 C 1092.92 911.659 1115.26 911.163 1136.01 911.801 L 1135.9 895.377 L 1119.72 895.353 L 1119.99 880.181 C 1124.6 879.915 1131.17 880.054 1135.93 880.026 C 1135.81 874.466 1135.5 869.06 1136.4 863.566 L 1142.99 863.942 C 1146.55 864.155 1147.85 864.694 1151.01 862.975 C 1152.4 859.55 1151.92 860.48 1151.19 856.228 C 1150.51 853.185 1150.73 851.005 1150.81 847.915 C 1151.29 843.98 1151.31 837.861 1151.45 833.732 z"/>
<path transform="translate(0,0)" fill="rgb(239,148,112)" d="M 1375.66 927.867 C 1386.28 927.661 1396.97 927.315 1407.57 927.725 C 1407.6 948.208 1407.2 970.561 1408.01 990.896 L 1264.48 991.529 C 1264.62 986.078 1264.85 980.503 1264.76 975.061 L 1216.58 975.306 L 1216.31 958.954 L 1200.08 959.087 C 1200.11 977.916 1201.11 1005.49 1200.2 1023.26 L 1200.13 1039.45 L 1183.12 1039.72 L 1183.31 1023.94 C 1178.12 1023.8 1173.34 1025.19 1168.91 1023.29 C 1166.53 1020.06 1167.34 1020.33 1167.14 1015.44 C 1166.67 1012.62 1166.8 1010.78 1166.79 1007.93 L 1167.56 1006.14 C 1171.26 1006.99 1179.69 1006.66 1183.99 1006.66 L 1183.91 928.049 C 1198.04 928.011 1217.41 927.434 1231.1 928.465 C 1279.29 927.959 1327.48 927.76 1375.66 927.867 z"/>
<path transform="translate(0,0)" fill="rgb(250,183,142)" d="M 1231.1 928.465 C 1279.29 927.959 1327.48 927.76 1375.66 927.867 C 1365.93 955.571 1364.95 958.227 1335.95 957.575 C 1300.06 956.769 1257.58 956.854 1231.1 928.465 z"/>
<path transform="translate(0,0)" fill="rgb(98,30,36)" d="M 1167.14 1015.44 C 1167.85 1010.62 1167 1010.95 1169.74 1008.16 C 1174.28 1006.51 1178.4 1007.56 1183.42 1007.5 C 1183.45 1012.88 1183.58 1018.58 1183.5 1023.92 L 1200.2 1023.26 L 1200.13 1039.45 L 1183.12 1039.72 L 1183.31 1023.94 C 1178.12 1023.8 1173.34 1025.19 1168.91 1023.29 C 1166.53 1020.06 1167.34 1020.33 1167.14 1015.44 z"/>
<path transform="translate(0,0)" fill="rgb(246,217,101)" d="M 1440.29 879.805 C 1445.57 879.561 1451.21 879.204 1456.47 879.086 C 1456.53 883.529 1456.41 890.698 1457.04 894.873 L 1471.95 895.073 L 1471.95 910.986 C 1481.1 910.981 1495.31 910.587 1504.04 911.144 C 1509.27 911.196 1514.6 911.325 1519.82 911.156 L 1519.63 927.616 L 1503.84 928.139 C 1495.46 928.285 1479.87 928.955 1472.01 928.209 L 1455.98 927.702 C 1449.01 927.033 1431.47 927.514 1423.82 927.626 L 1407.57 927.725 C 1396.97 927.315 1386.28 927.661 1375.66 927.867 C 1327.48 927.76 1279.29 927.959 1231.1 928.465 C 1217.41 927.434 1198.04 928.011 1183.91 928.049 C 1168.22 927.589 1152.06 928.382 1135.93 927.885 C 1116.55 927.19 1091.85 927.931 1072.09 927.993 C 1071.72 922.589 1071.95 917.179 1072.06 911.758 C 1092.92 911.659 1115.26 911.163 1136.01 911.801 C 1151.76 912.238 1167.53 912.048 1183.27 911.232 C 1189.41 911.288 1196.69 911.169 1202.72 911.51 C 1215.61 912.713 1232.21 912.212 1245.42 911.995 C 1288.49 911.29 1332.74 913.049 1375.67 911.231 L 1395.67 911.266 C 1402.76 912.305 1416.69 911.513 1424.33 911.306 C 1429.34 911.334 1435.22 911.5 1440.16 911.348 L 1440.29 879.805 z"/>
<path transform="translate(0,0)" fill="rgb(250,183,142)" d="M 1440.29 879.805 C 1445.57 879.561 1451.21 879.204 1456.47 879.086 C 1456.53 883.529 1456.41 890.698 1457.04 894.873 L 1471.95 895.073 L 1471.95 910.986 L 1457.52 911.104 C 1451.77 911.407 1446.96 911.774 1441.18 911.263 L 1440.16 911.348 L 1440.29 879.805 z"/>
<path transform="translate(0,0)" fill="rgb(239,148,112)" d="M 1440.29 879.805 C 1445.57 879.561 1451.21 879.204 1456.47 879.086 C 1456.53 883.529 1456.41 890.698 1457.04 894.873 C 1451.94 894.663 1446.4 894.539 1441.35 894.209 L 1441.18 911.263 L 1440.16 911.348 L 1440.29 879.805 z"/>
<path transform="translate(0,0)" fill="rgb(232,135,105)" d="M 1457.04 894.873 L 1471.95 895.073 L 1471.95 910.986 L 1457.52 911.104 C 1457.49 905.41 1457.4 900.577 1457.04 894.873 z"/>
<path transform="translate(0,0)" fill="rgb(239,148,112)" d="M 1182.98 894.939 C 1188.04 895.052 1193.42 895.066 1198.44 895.374 C 1199.76 900.816 1200.95 906.198 1202.72 911.51 C 1196.69 911.169 1189.41 911.288 1183.27 911.232 L 1182.98 894.939 z"/>
<path transform="translate(0,0)" fill="rgb(98,30,36)" d="M 1151.45 833.732 L 1151.7 833.197 C 1155.32 830.829 1162.62 831.829 1167.14 832.171 L 1167.29 848.085 C 1161.48 847.845 1156.69 846.742 1152.15 849.632 C 1151.17 852.387 1151.32 853.318 1151.19 856.228 C 1150.51 853.185 1150.73 851.005 1150.81 847.915 C 1151.29 843.98 1151.31 837.861 1151.45 833.732 z"/>
<path transform="translate(0,0)" fill="rgb(98,30,36)" d="M 1423.82 927.626 C 1431.47 927.514 1449.01 927.033 1455.98 927.702 L 1472.01 928.209 L 1472.22 958.935 C 1468.13 958.958 1460.24 958.578 1456.77 959.929 L 1456.81 968.436 L 1456.93 991.998 C 1452.01 991.983 1445.14 992.172 1440.39 991.787 C 1438.86 1011.82 1440 1050.01 1439.99 1071.04 L 1424.11 1071.19 L 1423.92 1086.76 C 1419.24 1086.44 1412.51 1086.74 1407.68 1086.81 L 1407.7 1103.06 L 1392.6 1103.31 L 1392.28 1119.32 L 1375.65 1119.4 L 1375.48 1134.71 L 1359.83 1134.97 L 1359.8 1150.81 C 1355.13 1150.49 1348.19 1150.8 1343.35 1150.87 C 1343.73 1155.83 1343.64 1161.99 1343.71 1167.06 L 1327.45 1167.25 L 1327.5 1183.37 L 1343.67 1183.21 C 1343.84 1193.41 1343.52 1204.83 1343.42 1215.11 L 1327.52 1215.34 L 1327.73 1230.99 L 1296.43 1231.06 L 1296.07 1215.27 L 1280.48 1215.22 C 1280.27 1199.54 1280.43 1183.5 1280.42 1167.78 L 1296.04 1167.6 L 1295.87 1151.6 C 1302.09 1151.86 1306.45 1151.54 1312.64 1151.11 C 1312.47 1146.34 1312.52 1140.97 1312.47 1136.16 L 1328.29 1134.87 L 1328.42 1120.25 C 1333.86 1120.11 1338.63 1119.44 1344.01 1118.77 L 1344.12 1104.11 L 1360.77 1104.06 C 1360.47 1098.67 1360.55 1093.11 1360.55 1087.7 C 1365.88 1087.78 1371.06 1087.48 1376.38 1087.22 L 1376.39 1072.22 L 1391.89 1072.06 C 1392.2 1056.07 1391.97 1039.32 1392.01 1023.27 L 1408.16 1023.49 C 1408.22 1012.63 1408.17 1001.76 1408.01 990.896 C 1407.2 970.561 1407.6 948.208 1407.57 927.725 L 1423.82 927.626 z"/>
<path transform="translate(0,0)" fill="rgb(239,148,112)" d="M 1423.82 927.626 C 1431.47 927.514 1449.01 927.033 1455.98 927.702 L 1472.01 928.209 L 1472.22 958.935 C 1468.13 958.958 1460.24 958.578 1456.77 959.929 C 1453.83 958.428 1429.49 959.026 1424 959.013 L 1424.07 942.001 L 1423.82 927.626 z"/>
<path transform="translate(0,0)" fill="rgb(250,183,142)" d="M 1423.82 927.626 C 1431.47 927.514 1449.01 927.033 1455.98 927.702 L 1456.56 943.811 C 1450.83 943.994 1426.81 946.149 1424.07 942.001 L 1423.82 927.626 z"/>
<path transform="translate(0,0)" fill="rgb(239,148,112)" d="M 1424 959.013 C 1429.49 959.026 1453.83 958.428 1456.77 959.929 L 1456.81 968.436 L 1456.93 991.998 C 1452.01 991.983 1445.14 992.172 1440.39 991.787 C 1436.69 990.623 1428.78 990.971 1424.56 990.962 C 1424.25 984.205 1424.19 977.09 1424.03 970.297 L 1424 959.013 z"/>
<path transform="translate(0,0)" fill="rgb(250,183,142)" d="M 1424 959.013 C 1429.49 959.026 1453.83 958.428 1456.77 959.929 L 1456.81 968.436 L 1455.45 974.658 C 1449.32 975.86 1430.55 976.909 1425.43 974.288 L 1424.03 970.297 L 1424 959.013 z"/>
<path transform="translate(0,0)" fill="rgb(98,30,36)" d="M 1296.08 624.074 L 1327.48 624.243 L 1327.71 640.05 L 1344.18 640.036 L 1344.11 670.965 L 1327.26 670.603 L 1327.92 688.105 L 1344.45 688.091 L 1344.04 703.604 L 1360.04 703.297 L 1360.11 720.106 L 1375.82 720.009 L 1375.89 735.992 L 1391.95 736.168 L 1392.08 752.122 L 1407.92 752.158 L 1407.88 767.299 L 1424.11 767.145 L 1424.01 783.576 L 1440.73 783.444 C 1440.15 814.267 1439.43 849.164 1440.29 879.805 L 1440.16 911.348 C 1435.22 911.5 1429.34 911.334 1424.33 911.306 C 1416.69 911.513 1402.76 912.305 1395.67 911.266 L 1375.67 911.231 L 1375.22 895.052 C 1376.06 890.729 1375.22 869.173 1375.06 863.692 L 1407.97 863.821 C 1408.33 853.591 1408.02 842.091 1407.98 831.766 L 1392.09 831.183 C 1392.47 821.307 1392.08 809.577 1392 799.567 L 1375.94 799.12 C 1376.32 789.014 1376 777.634 1375.94 767.43 C 1371.29 767.652 1365.18 767.372 1360.41 767.298 L 1360.1 751.366 L 1344.21 751.324 L 1344.09 735.093 L 1328.91 735.073 C 1328.58 729.225 1328.5 725.033 1328.64 719.159 L 1312.12 719.17 L 1312 687.451 L 1295.5 687.348 C 1295.52 692.676 1295.24 698.596 1295.09 703.973 L 1279.99 703.909 C 1280.59 683.078 1280.25 660.972 1280.26 640.048 L 1296.33 640.035 L 1296.08 624.074 z"/>
<path transform="translate(0,0)" fill="rgb(239,148,112)" d="M 1375.06 863.692 L 1407.97 863.821 L 1407.98 879.273 L 1408.06 894.961 L 1424.04 895.133 C 1424.14 900.457 1424.32 906.002 1424.33 911.306 C 1416.69 911.513 1402.76 912.305 1395.67 911.266 L 1375.67 911.231 L 1375.22 895.052 C 1376.06 890.729 1375.22 869.173 1375.06 863.692 z"/>
<path transform="translate(0,0)" fill="rgb(250,183,142)" d="M 1390.21 880.679 C 1398.03 879.307 1400.08 878.92 1407.98 879.273 L 1408.06 894.961 L 1424.04 895.133 C 1424.14 900.457 1424.32 906.002 1424.33 911.306 C 1416.69 911.513 1402.76 912.305 1395.67 911.266 C 1389.67 900.172 1389.54 892.602 1390.21 880.679 z"/>
<path transform="translate(0,0)" fill="rgb(207,71,79)" d="M 1520.11 879.783 C 1530.99 879.99 1541.88 879.861 1552.75 879.396 C 1552.79 884.926 1552.91 890.772 1552.83 896.272 C 1558.08 895.794 1562.93 895.248 1568.22 895.296 C 1568.25 901.104 1568.24 906.913 1568.19 912.721 C 1567.98 916.348 1567.34 923.552 1567.62 926.895 L 1568.66 927.185 C 1567.56 932.382 1567.95 937.759 1568.03 943.12 L 1550.91 943.018 L 1551.01 959.149 C 1541.9 959.195 1529.36 958.877 1520.52 959.467 L 1520.05 944.576 C 1516.11 943.629 1508.22 943.933 1503.86 943.935 L 1503.84 928.139 L 1519.63 927.616 L 1519.82 911.156 C 1514.6 911.325 1509.27 911.196 1504.04 911.144 L 1504.18 895.048 C 1509.53 895.355 1514.72 895.777 1520.08 895.555 L 1520.11 879.783 z"/>
<path transform="translate(0,0)" fill="rgb(98,30,36)" d="M 1567.62 926.895 L 1568.66 927.185 C 1567.56 932.382 1567.95 937.759 1568.03 943.12 L 1550.91 943.018 L 1551.01 959.149 C 1541.9 959.195 1529.36 958.877 1520.52 959.467 L 1520.05 944.576 C 1531.26 948.098 1545 935.782 1551.07 927.129 L 1567.62 926.895 z"/>
<path transform="translate(0,0)" fill="rgb(98,30,36)" d="M 1232.21 751.065 C 1231.99 756.579 1231.82 761.572 1231.89 767.101 C 1226.87 767.335 1221.49 767.677 1216.49 767.791 L 1216.66 783.894 L 1199.89 784.012 L 1199.29 783.666 C 1199.78 780.016 1199.84 771.146 1199.97 767.085 L 1216.25 767.18 L 1215.87 751.398 C 1222.33 751.618 1225.76 751.778 1232.21 751.065 z"/>
<path transform="translate(0,0)" fill="rgb(98,30,36)" d="M 1199.29 783.666 L 1199.89 784.012 L 1199.79 815.136 L 1184.04 815.003 C 1183.61 804.439 1183.76 795.095 1183.11 784.106 L 1199.29 783.666 z"/>
<path transform="translate(0,0)" fill="rgb(98,30,36)" d="M 1248.05 720.072 L 1264.87 719.98 C 1263.63 724.84 1263.94 730.073 1263.93 735.154 C 1258.72 735.294 1253.2 735.531 1248.01 735.57 L 1247.91 750.988 L 1232.21 751.065 C 1232.65 747.859 1232.26 739.512 1232.2 735.883 C 1238.48 735.951 1241.92 735.916 1248.23 735.258 L 1248.05 720.072 z"/>
<path transform="translate(0,0)" fill="rgb(98,30,36)" d="M 1264.02 1119.15 L 1279.88 1119.12 L 1280.06 1135.2 C 1275.33 1134.56 1268.93 1134.93 1264.03 1135.03 L 1264.02 1119.15 z"/>
<path transform="translate(0,0)" fill="rgb(98,30,36)" d="M 1280.06 1135.2 C 1286.35 1135.63 1289.8 1135.67 1296.07 1135.4 L 1295.99 1151.21 L 1280.12 1151 L 1280.06 1135.2 z"/>
<path transform="translate(0,0)" fill="rgb(172,49,61)" d="M 1568.19 912.721 C 1573.97 912.367 1578.37 912.277 1584.15 912.348 L 1583.99 927.034 L 1568.66 927.185 L 1567.62 926.895 C 1567.34 923.552 1567.98 916.348 1568.19 912.721 z"/>
<path transform="translate(0,0)" fill="rgb(98,30,36)" d="M 1247.92 1103.35 C 1253.73 1103.92 1258.15 1103.79 1263.93 1103.68 L 1264.02 1119.15 C 1258.28 1118.93 1253.69 1118.77 1247.92 1119 L 1247.92 1103.35 z"/>
<path transform="translate(0,0)" fill="rgb(98,30,36)" d="M 1264.87 704.034 L 1279.99 703.909 C 1279.84 709.21 1279.63 714.697 1279.58 719.982 L 1264.87 719.98 C 1265.14 715.491 1264.9 708.708 1264.87 704.034 z"/>
</svg>