<svg width="32" height="32" viewBox="0 0 32 32" fill="none" xmlns="http://www.w3.org/2000/svg">
  <path fill-rule="evenodd" clip-rule="evenodd" d="M6 6H12V10H14V12H18V10H20V6H26V12H24V16H22V18H20V20H18V22H16V24H14V22H12V20H10V18H8V16H6V12V6ZM8 8V12H10V16H12V18H14V20H16V22H18V20H20V18H22V16H24V12H22V8H20V10H18V12H14V10H12V8H8Z" fill="#000000"/>
  <path fill-rule="evenodd" clip-rule="evenodd" d="M8 8H12V10H14V12H18V10H20V8H24V12H22V16H20V18H18V20H14V18H12V16H10V12H8V8Z" fill="#FF1493"/>
  <rect x="10" y="10" width="2" height="2" fill="white"/>
</svg>
